<svg xmlns="http://www.w3.org/2000/svg" viewBox="0 0 39 39" width="39" height="39">
	<defs>
		<clipPath clipPathUnits="userSpaceOnUse" id="cp1">
			<path d="M-1498 -61L423 -61L423 4718L-1498 4718Z" />
		</clipPath>
	</defs>
	<style>
		tspan { white-space:pre }
		.shp0 { fill: #909090 } 
	</style>
	<g id="Web 1920 – 1" clip-path="url(#cp1)">
		<g id="Component 1 – 1">
			<path id="icons8-поиск (1)" fill-rule="evenodd" class="shp0" d="M27.03 13.3C27.03 16.62 25.77 19.66 23.71 21.99L24.53 22.8L27.03 22.8L37.81 33.41C38.88 34.46 38.88 36.16 37.81 37.21C36.75 38.26 35.02 38.26 33.95 37.21L23.17 26.6L23.17 24.14L22.35 23.33C19.97 25.36 16.89 26.6 13.51 26.6C6.07 26.6 0 20.62 0 13.3C0 5.98 6.07 0 13.51 0C20.96 0 27.03 5.98 27.03 13.3ZM3.86 13.3C3.86 18.57 8.16 22.8 13.51 22.8C18.87 22.8 23.17 18.57 23.17 13.3C23.17 8.03 18.87 3.8 13.51 3.8C8.16 3.8 3.86 8.03 3.86 13.3Z" />
		</g>
	</g>
</svg>