<?xml version="1.0" encoding="utf-8"?>
<svg width="477px" height="483px" viewBox="0 0 477 483" version="1.1" xmlns:xlink="http://www.w3.org/1999/xlink" xmlns="http://www.w3.org/2000/svg">
  <desc>Created with Lunacy</desc>
  <defs>
    <path d="M0 0L476 0L476 482L0 482L0 0Z" id="path_1" />
    <clipPath id="mask_1">
      <use xlink:href="#path_1" />
    </clipPath>
  </defs>
  <g id="Mask-group" transform="translate(0.5 0.5)">
    <path d="M0 0L476 0L476 482L0 482L0 0Z" id="Mask" fill="none" stroke="none" />
    <g clip-path="url(#mask_1)">
      <g id="bars" transform="matrix(-0.6691307 -0.7431448 0.7431448 -0.6691307 -6.838135 736.8535)">
        <path d="M13.4654 5.18456e-06L734.554 0.50219C741.955 0.508798 748.006 6.82575 748 14.5435L747.997 16.9785C747.994 24.6963 741.936 31.0066 734.535 31L13.4464 30.4945C6.04517 30.4912 -0.00633168 24.1709 4.97189e-06 16.4532L4.97189e-06 14.0215C0.00634162 6.30374 6.06418 -0.00660251 13.4654 5.18456e-06" transform="translate(0 567.8318)" id="Fill-1" fill="#FFFFFF" fill-opacity="0.2" stroke="none" />
        <path d="M11.7996 1.3782e-06L652.216 0.419323C658.701 0.425489 664.003 5.59918 664 11.9229L663.997 15.5118C663.994 21.8356 658.682 27.0062 652.197 27L11.7806 26.5807C5.29591 26.5776 -0.00316033 21.3977 1.41412e-06 15.0771L0.00316315 11.4913C0.00632489 5.16752 5.31489 -0.00308187 11.7996 1.3782e-06" transform="translate(51.42651 628.1081)" id="Fill-3" fill="#FFFFFF" fill-opacity="0.2" stroke="none" />
        <path d="M11.2985 1.45033e-06L573.72 0.369312C579.93 0.375519 585.006 5.35965 585 11.4424L584.997 15.9455C584.994 22.0314 579.911 27.0062 573.701 27L11.2827 26.6307C5.07294 26.6276 -0.00316515 21.6465 1.48078e-06 15.5607L0.00316811 11.0576C0.00633474 4.97483 5.09194 -0.003102 11.2985 1.45033e-06" transform="translate(102.7688 685.1956)" id="Fill-5" fill="#FFFFFF" fill-opacity="0.2" stroke="none" />
        <path d="M10.4223 1.60604e-06L490.594 0.323456C496.322 0.326627 501.003 5.02622 501 10.7659L500.997 15.5734C500.994 21.3131 496.303 26.0032 490.575 26L10.4064 25.6765C4.67784 25.6734 -0.00632355 20.9738 6.40796e-06 15.2372L0.00317138 10.4266C0.00317138 4.69008 4.69367 -0.00316951 10.4223 1.60604e-06" transform="translate(151.7429 744.455)" id="Fill-7" fill="#FFFFFF" fill-opacity="0.2" stroke="none" />
        <path d="M9.5106 1.83884e-06L408.505 0.277596C413.732 0.280901 418.006 4.74224 418 10.1851L417.997 15.1058C417.994 20.5519 413.716 25.0033 408.493 25L9.49474 24.7191C4.26851 24.7158 -0.00316949 20.2611 1.76459e-06 14.8149L0.00317302 9.89095C0.00634428 4.44812 4.28754 -0.00330285 9.5106 1.83884e-06" transform="translate(203.9707 801.0388)" id="Fill-9" fill="#FFFFFF" fill-opacity="0.2" stroke="none" />
        <path d="M8.66588 1.8786e-06L319.344 0.200403C324.105 0.203486 328.003 4.00493 328 8.64498L327.997 11.5678C327.994 16.2109 324.093 20.0031 319.331 20L8.65323 19.7965C3.88842 19.7934 -0.00316196 15.992 1.92783e-06 11.355L1.92783e-06 8.42917C0.00316581 3.78912 3.90424 -0.00308121 8.66588 1.8786e-06" transform="translate(259.5125 862.819)" id="Fill-11" fill="#FFFFFF" fill-opacity="0.2" stroke="none" />
        <path d="M8.09473 1.98856e-06L233.921 0.146343C238.37 0.149392 242.003 3.65549 242 7.93902L241.997 12.2165C241.994 16.5 238.354 20.003 233.905 20L8.08207 19.8537C3.63282 19.8506 -0.00316241 16.3415 2.06402e-06 12.0579L0.00316654 7.78659C0.00633101 3.5 3.64864 -0.00304679 8.09473 1.98856e-06" transform="translate(313.946 918.8656)" id="Fill-13" fill="#FFFFFF" fill-opacity="0.2" stroke="none" />
        <path d="M7.19248 0L149.82 0.0995775C153.773 0.102897 157 3.50845 157 7.66083L156.994 14.452C156.991 18.6044 153.757 22.0033 149.804 22L7.17985 21.9004C3.22683 21.8971 -0.00315505 18.4949 2.31282e-06 14.3392L0.00315968 7.54798C0.00631705 3.39227 3.24262 0 7.19248 0" transform="translate(367.5464 974.284)" id="Fill-15" fill="#FFFFFF" fill-opacity="0.2" stroke="none" />
        <path d="M3.75894 0L68.2411 0.0408674C70.3097 0.0437865 72 1.61134 72 3.52335C71.9968 5.43828 70.3066 7.00291 68.2348 7L3.75579 6.96205C1.68711 6.96205 -0.00314906 5.39449 4.40535e-06 3.47956C4.40535e-06 1.56464 1.69342 0 3.75894 0" transform="translate(419.2881 1036.53)" id="Fill-17" fill="#FFFFFF" fill-opacity="0.2" stroke="none" />
        <path d="M13.2404 29.3848L730.693 31C737.993 31.0158 743.978 25.0616 743.994 17.7677L744 14.3567C744.016 7.36363 738.304 1.63111 731.308 1.61527L12.7586 3.2875e-05C5.75962 -0.0158028 0.0222342 5.69138 0.00638505 12.6844L4.5398e-05 16.0954C-0.0189736 23.3862 5.9403 29.3658 13.2404 29.3848" transform="translate(28.77075 511.1987)" id="Fill-19" fill="#FFFFFF" fill-opacity="0.2" stroke="none" />
        <path d="M13.0365 26.5028L692.9 28C700.087 28.0154 705.981 22.2868 705.997 15.2682L706 14.2815C706.013 7.26604 700.15 1.50954 692.96 1.49408L13.0999 4.49688e-05C5.91015 -0.0185144 0.0190356 5.71015 0.00319926 12.7287L3.19908e-05 13.7154C-0.0158044 20.734 5.84998 26.4874 13.0365 26.5028" transform="translate(55.8103 456.6932)" id="Fill-21" fill="#FFFFFF" fill-opacity="0.2" stroke="none" />
        <path d="M12.3348 29.642L609.602 31C616.4 31.0159 621.978 25.4083 621.994 18.5386L622 16.139C622.016 9.26934 616.464 1.37078 609.662 1.358L12.3981 3.40524e-05C5.5964 -0.015942 0.0190152 5.59165 0.00319729 12.4582L3.37153e-05 17.1264C-0.0157842 23.9929 5.53629 29.626 12.3348 29.642" transform="translate(88.08691 397.995)" id="Fill-23" fill="#FFFFFF" fill-opacity="0.2" stroke="none" />
        <path d="M12.9767 29.8265L525.963 31C533.118 31.016 538.981 25.0906 538.997 17.8342L539 16.6767C539.016 9.41704 533.176 1.1864 526.023 1.17033L13.0401 3.26321e-05C5.8847 -0.0160428 0.0190456 5.90937 0.00320107 13.1658L3.21634e-05 16.6028C-0.0158124 23.8592 5.82449 29.8104 12.9767 29.8265" transform="translate(120.5676 340.7588)" id="Fill-25" fill="#FFFFFF" fill-opacity="0.2" stroke="none" />
        <path d="M12.8352 32.0282L437.102 33C444.178 33.016 449.981 27.1498 449.997 19.9591L450 14.5227C450.019 7.33513 444.241 0.987882 437.165 0.971845L12.8983 3.28016e-05C5.82241 -0.0160037 0.0189771 5.85015 0.00318976 13.0409L3.2292e-05 18.9327C-0.0157551 26.1171 5.75926 32.0121 12.8352 32.0282" transform="translate(154.042 284.7527)" id="Fill-27" fill="#FFFFFF" fill-opacity="0.2" stroke="none" />
        <path d="M12.6003 32.2403L353.336 33C360.284 33.0157 365.981 27.8453 365.997 20.9609L366 13.3042C366.016 6.41982 360.345 0.778558 353.403 0.762862L12.6637 2.10162e-05C5.71878 -0.012536 0.0222111 5.60361 0.00636967 12.488L3.31068e-05 20.1447C-0.0158083 27.0259 5.65542 32.2246 12.6003 32.2403" transform="translate(188.845 228.4839)" id="Fill-29" fill="#FFFFFF" fill-opacity="0.2" stroke="none" />
        <path d="M11.7691 35.4344L266.171 36C272.654 36.0124 277.975 30.8012 277.991 24.4185L278 12.1937C278.013 5.81099 272.72 0.578023 266.231 0.562485L11.8323 3.46536e-05C5.34618 -0.0155027 0.0252849 5.19571 0.00949594 11.5784L2.25492e-05 23.8001C-0.0126086 30.1859 5.28302 35.4189 11.7691 35.4344" transform="translate(207.6594 172.0115)" id="Fill-31" fill="#FFFFFF" fill-opacity="0.2" stroke="none" />
        <path d="M10.9159 35.6065L188.021 36C194.038 36.0125 198.971 31.1756 198.987 25.249L199 11.1913C199.016 5.26465 194.102 0.405956 188.084 0.393466L10.9793 2.4136e-05C4.96179 -0.0124661 0.0285586 4.82437 0.0158768 10.751L2.45062e-05 24.8087C-0.0126573 30.7322 4.89838 35.594 10.9159 35.6065" transform="translate(252.3379 115.4482)" id="Fill-33" fill="#FFFFFF" fill-opacity="0.2" stroke="none" />
        <path d="M10.6727 35.799L101.264 36C107.146 36.0157 111.972 31.2343 111.984 25.3761L112 10.875C112.013 5.01686 107.209 0.21666 101.324 0.200963L10.7358 3.85402e-05C4.85068 -0.0156586 0.0284235 4.7657 0.0126542 10.6239L3.87172e-05 25.125C-0.0157306 30.9831 4.7876 35.7865 10.6727 35.799" transform="translate(284.738 59.02966)" id="Fill-35" fill="#FFFFFF" fill-opacity="0.2" stroke="none" />
        <path d="M9.59107 40.9621L26.3465 41C31.6333 41.0126 35.9688 36.6389 35.9813 31.2825L36 9.79969C36.0125 4.44006 31.6957 0.0474298 26.4089 0.0347891L9.65657 2.73512e-05C4.36668 -0.0126133 0.0312174 4.35789 0.0187412 9.71753L2.69758e-05 31.2003C-0.0124492 36.5568 4.3043 40.9494 9.59107 40.9621" transform="translate(313.7566 0)" id="Fill-37" fill="#FFFFFF" fill-opacity="0.2" stroke="none" />
      </g>
    </g>
  </g>
</svg>