<?xml version="1.0" encoding="utf-8"?>
<svg width="78px" height="54px" viewBox="0 0 78 54" version="1.1" xmlns:xlink="http://www.w3.org/1999/xlink" xmlns="http://www.w3.org/2000/svg">
  <desc>Created with Lunacy</desc>
  <g id="Group-3">
    <path d="M8.66435 0L8.66435 7.63047L1.83795 5.14111L0 11.0399L7.14166 13.0423L2.10043 19.374L7.08908 23L11.5 16.3435L15.9109 23L20.847 19.374L15.8583 13.0423L23 11.0399L21.1621 5.14111L14.3357 7.63047L14.3357 0L8.66435 0Z" transform="translate(55 0)" id="Fill-1" fill="#3DA5AA" stroke="none" />
    <path d="M40.7358 0L35.4754 20.7916L29.8302 0L21.0415 0L15.5244 20.7916L10.3283 0L0 0L10.3924 35L19.6302 35L25.4679 14.4692L31.2415 35L40.6075 35L51 0L40.7358 0Z" transform="translate(0 19)" id="Fill-2" fill="#FEFEFE" stroke="none" />
  </g>
</svg>