<?xml version="1.0" encoding="utf-8"?>
<svg width="159px" height="28px" viewBox="0 0 159 28" version="1.1" xmlns:xlink="http://www.w3.org/1999/xlink" xmlns="http://www.w3.org/2000/svg">
  <desc>Created with Lunacy</desc>
  <defs>
    <path d="M0 0L15.3574 0L15.3574 20.7895L0 20.7895L0 0Z" id="path_1" />
    <path d="M0 0L15.7223 0L15.7223 15.2977L0 15.2977L0 0Z" id="path_2" />
    <clipPath id="mask_1">
      <use xlink:href="#path_1" />
    </clipPath>
    <clipPath id="mask_2">
      <use xlink:href="#path_2" />
    </clipPath>
  </defs>
  <g id="logo">
    <path d="M23.1636 0L20.1723 11.8808L16.9622 0L11.9648 0L8.82765 11.8808L5.87296 0L0 0L5.90953 20L11.1622 20L14.4817 8.26806L17.7648 20L23.0906 20L29 0L23.1636 0Z" transform="translate(0 7.85141)" id="Fill-1" fill="#4C4846" stroke="none" />
    <g id="Group-21" transform="translate(27.12378 0)">
      <path d="M10.3114 20.7529C14.6993 20.7529 17.9536 18.663 19.8549 14.5563L13.4926 14.5563C12.6149 15.3263 11.6642 15.6563 10.4942 15.6563C7.97125 15.6563 6.47213 14.5563 5.96015 12.4664L20.7691 12.4664L20.7691 11.8432C20.7691 4.50991 16.491 0 10.2382 0C7.56906 0 4.97285 1.09995 2.9984 3.08C1.06044 5.02314 0 7.55316 0 10.3032C0 13.0897 0.987303 15.583 2.88861 17.5996C4.89971 19.7262 7.31315 20.7529 10.3114 20.7529ZM10.3114 5.24316C12.6149 5.24316 14.2604 6.34328 14.9552 8.35991L5.77722 8.35991C6.17957 6.48996 7.89811 5.24316 10.3114 5.24316Z" transform="translate(0 7.06189)" id="Fill-2" fill="#4C4846" fill-rule="evenodd" stroke="none" />
      <path d="M0 26.0696L5.59445 26.0696L5.59445 23.8697C7.31315 25.5562 9.06818 26.1797 11.4083 26.1797C13.7851 26.1797 15.8329 25.4097 17.5514 23.8697C19.8184 21.853 20.9885 19.2131 20.9885 16.1331C20.9885 13.3099 19.8915 10.7798 17.844 8.79995C16.0156 7.00334 13.7851 6.08666 11.2987 6.08666C8.81227 6.08666 7.02059 7.00334 5.81403 8.57993L5.81403 0L0 0L0 26.0696ZM15.2113 16.0965C15.2113 18.8464 13.0904 20.9364 10.1286 20.9364C7.64222 20.9364 5.55798 18.8831 5.55798 16.1697C5.55798 13.3464 7.60573 11.2199 10.3114 11.2199C13.0537 11.2199 15.2113 13.4565 15.2113 16.0965Z" transform="translate(21.26746 1.268555)" id="Fill-4" fill="#4C4846" fill-rule="evenodd" stroke="none" />
      <g id="Group-8" transform="translate(42.00928 7.061951)">
        <path d="M0 0L15.3574 0L15.3574 20.7895L0 20.7895L0 0Z" id="Clip-7" fill="none" stroke="none" />
        <g clip-path="url(#mask_1)">
          <path d="M5.44817 14.4097L5.44817 14.5929C5.44817 15.6929 6.32569 16.4629 7.5689 16.4629C8.81227 16.4629 9.5435 15.8396 9.5435 14.7396C9.5435 13.1264 7.97125 13.1998 5.52131 12.4298C2.12073 11.3664 0.475327 9.5332 0.475327 6.56314C0.475327 2.71314 3.2908 0 7.97125 0C12.0299 0 14.6261 2.30984 14.8454 6.04975L9.61649 6.04975C9.39723 4.76652 8.9219 4.21655 7.89811 4.21655C6.76452 4.21655 6.10643 4.87645 6.10643 5.82989C6.10643 7.18645 7.31299 7.51641 9.32409 8.06639C13.3463 9.1665 15.3574 10.7065 15.3574 13.9696C15.3574 17.9295 12.2492 20.7895 7.49576 20.7895C3.10803 20.7895 0.402187 18.4062 0 14.4097L5.44817 14.4097Z" id="Fill-6" fill="#4C4846" stroke="none" />
        </g>
      </g>
      <path d="M0 10.7065L0 6.38002L2.48658 6.38002L2.48658 0L8.33694 0L8.33694 6.38002L10.933 6.38002L10.933 10.7065L8.33694 10.7065L8.33694 26.0694L2.48658 26.0694L2.48658 10.7065L0 10.7065Z" transform="translate(57.20129 1.268585)" id="Fill-9" fill="#4C4846" stroke="none" />
      <path d="M9.58015 20.093C11.9203 20.093 13.6753 19.4695 15.3939 17.783L15.3939 19.9829L20.9883 19.9829L20.9883 0.293364L15.2111 0.293364L15.2111 2.49327C13.8947 0.806591 12.0664 0 9.68962 0C7.2032 0 4.97285 0.916682 3.14452 2.7133C1.09693 4.69318 0 7.2232 0 10.0464C0 13.1264 1.16991 15.7664 3.43708 17.783C5.15562 19.323 7.2032 20.093 9.58015 20.093ZM15.4305 10.083C15.4305 12.7965 13.3463 14.8497 10.8599 14.8497C7.89795 14.8497 5.77722 12.7597 5.77722 10.0099C5.77722 7.3699 7.89795 5.13324 10.6404 5.13324C13.3463 5.13324 15.4305 7.25981 15.4305 10.083Z" transform="translate(67.29309 7.355225)" id="Fill-11" fill="#4C4846" fill-rule="evenodd" stroke="none" />
      <path d="M5.48466 0.293364L5.48466 2.96991C6.43548 0.990023 8.08072 0 10.421 0L10.421 5.35325L10.2747 5.35325C6.6184 5.35325 5.85052 6.59989 5.85052 10.2299L5.85052 19.9829L0 19.9829L0 0.293364L5.48466 0.293364Z" transform="translate(89.47339 7.355194)" id="Fill-13" fill="#4C4846" stroke="none" />
      <g id="Group-17" transform="translate(99.99036 7.061951)">
        <path d="M0 0L15.3574 0L15.3574 20.7895L0 20.7895L0 0Z" id="Clip-16" fill="none" stroke="none" />
        <g clip-path="url(#mask_1)">
          <path d="M5.44817 14.4097L5.44817 14.5929C5.44817 15.6929 6.32569 16.4629 7.56906 16.4629C8.81227 16.4629 9.5435 15.8396 9.5435 14.7396C9.5435 13.1264 7.97109 13.1998 5.52131 12.4298C2.12073 11.3664 0.475327 9.5332 0.475327 6.56314C0.475327 2.71314 3.2908 0 7.97109 0C12.0299 0 14.6261 2.30984 14.8454 6.04975L9.61664 6.04975C9.39738 4.76652 8.92206 4.21655 7.89811 4.21655C6.76468 4.21655 6.10627 4.87645 6.10627 5.82989C6.10627 7.18645 7.31315 7.51641 9.32425 8.06639C13.3463 9.1665 15.3574 10.7065 15.3574 13.9696C15.3574 17.9295 12.2493 20.7895 7.49592 20.7895C3.10803 20.7895 0.402187 18.4062 0 14.4097L5.44817 14.4097Z" id="Fill-15" fill="#4C4846" stroke="none" />
        </g>
      </g>
      <g id="Group-20" transform="translate(116.0361 0)">
        <path d="M0 0L15.7223 0L15.7223 15.2977L0 15.2977L0 0Z" id="Clip-19" fill="none" stroke="none" />
        <g clip-path="url(#mask_2)">
          <path d="M4.84592 15.2977L1.43582 12.886L4.88194 8.67475L0 7.34284L1.25638 3.4195L5.92271 5.07516L5.92271 0L9.79957 0L9.79957 5.07516L14.4659 3.4195L15.7223 7.34284L10.8403 8.67475L14.2504 12.886L10.8764 15.2977L7.86114 10.8704L4.84592 15.2977Z" transform="translate(0 -3.051758E-05)" id="Fill-18" fill="#009D9E" stroke="none" />
        </g>
      </g>
    </g>
  </g>
</svg>