<?xml version="1.0" standalone="no"?>
<!DOCTYPE svg PUBLIC "-//W3C//DTD SVG 20010904//EN"
 "http://www.w3.org/TR/2001/REC-SVG-20010904/DTD/svg10.dtd">
<svg version="1.0" xmlns="http://www.w3.org/2000/svg"
 width="500.000000pt" height="281.000000pt" viewBox="0 0 500.000000 281.000000"
 preserveAspectRatio="xMidYMid meet">

<g transform="translate(0.000000,281.000000) scale(0.100000,-0.100000)"
fill="#000000" stroke="none">
<path d="M0 1405 l0 -1405 2500 0 2500 0 0 840 c0 793 -1 840 -17 840 -15 0
-16 -2 -3 -10 12 -8 10 -10 -8 -10 -13 0 -20 4 -17 10 4 7 -3 7 -20 0 -15 -6
-31 -8 -36 -4 -5 3 -9 0 -9 -5 0 -6 -6 -11 -12 -11 -24 1 56 60 89 66 l33 6 0
516 c-1 326 -4 511 -10 502 -5 -8 -10 -35 -10 -59 0 -69 -12 -41 -19 46 l-6
78 -174 3 c-125 2 -177 -1 -182 -9 -5 -9 -18 -9 -52 0 -55 13 -1357 15 -1357
2 0 -5 7 -11 15 -15 8 -3 15 -11 14 -18 0 -10 -2 -10 -6 0 -9 23 -35 14 -31
-12 1 -14 -6 -33 -17 -46 -19 -21 -19 -22 4 -40 19 -13 31 -16 55 -9 16 5 32
6 35 4 2 -3 0 -5 -5 -5 -5 0 -9 -11 -9 -25 0 -18 7 -28 23 -32 12 -3 22 -9 22
-14 0 -5 -7 -6 -15 -2 -9 3 -15 2 -14 -3 1 -5 1 -18 0 -28 -1 -20 -1 -20 -17
0 -8 10 -12 13 -8 5 3 -7 1 -16 -5 -20 -8 -5 -9 -15 -3 -31 6 -16 11 -20 16
-11 6 9 12 7 23 -8 8 -12 21 -21 28 -21 8 0 24 -18 35 -40 22 -44 24 -50 11
-50 -15 0 -61 52 -61 71 0 13 -7 17 -30 17 -16 -1 -36 5 -45 12 -12 10 -18 11
-28 1 -9 -10 -8 -11 4 -6 10 4 20 2 24 -4 3 -6 1 -11 -4 -11 -6 0 -11 -7 -11
-16 0 -11 6 -15 18 -12 24 7 50 -21 31 -33 -11 -6 -11 -9 1 -13 8 -2 30 -9 48
-15 18 -5 40 -8 50 -5 12 4 14 3 4 -3 -11 -8 -11 -15 -1 -39 7 -16 20 -37 28
-47 17 -21 16 -87 -2 -100 -7 -5 -2 -6 11 -2 16 5 22 2 22 -9 0 -12 -11 -16
-50 -16 -39 0 -50 -4 -50 -16 0 -11 7 -14 30 -10 17 2 30 0 30 -5 0 -5 11 -9
24 -9 22 0 24 -4 25 -66 1 -37 -4 -73 -10 -80 -8 -10 -8 -14 0 -14 6 0 11 -13
11 -30 0 -23 4 -30 20 -30 14 0 20 7 20 24 0 18 5 23 22 22 17 -1 24 -9 28
-31 4 -26 10 -30 40 -33 26 -2 31 0 20 7 -18 12 -6 25 23 26 12 0 21 6 20 13
-2 6 3 12 11 12 8 0 17 -6 19 -12 4 -10 6 -10 6 0 1 14 69 16 91 2 13 -9 13
-10 0 -10 -10 0 -11 -3 -4 -8 6 -4 16 -28 21 -53 l10 -46 -71 13 c-118 21
-145 23 -151 14 -3 -5 13 -13 37 -17 37 -6 40 -8 18 -13 -14 -4 -29 -2 -33 4
-6 8 -10 8 -13 0 -3 -6 -17 -9 -31 -6 -24 4 -25 3 -12 -10 8 -9 23 -15 35 -13
12 1 21 -4 21 -12 0 -7 -5 -13 -10 -13 -6 0 -8 -3 -4 -6 3 -3 12 -2 19 2 7 4
21 9 30 9 16 2 17 0 3 -15 -15 -16 -10 -18 72 -19 105 -2 141 -21 39 -21 -38
0 -65 -4 -61 -9 3 -5 -24 -13 -60 -16 -66 -7 -89 -20 -64 -36 11 -6 10 -9 -4
-15 -9 -3 -24 -1 -32 6 -8 7 -15 8 -15 3 0 -5 11 -16 25 -23 30 -16 33 -34 4
-27 -12 3 -31 2 -44 -3 -13 -5 -26 -6 -29 -3 -10 11 -55 12 -61 2 -3 -5 2 -6
11 -2 11 4 15 3 10 -5 -4 -7 6 -18 25 -27 17 -9 28 -19 25 -22 -8 -9 -86 18
-86 30 0 5 -11 6 -24 3 -21 -5 -24 -3 -21 15 3 12 1 18 -3 15 -4 -4 -8 -12 -8
-17 -1 -5 -2 -12 -3 -16 -2 -10 -61 164 -61 178 0 6 5 7 10 4 6 -3 10 -17 10
-30 0 -13 5 -27 10 -30 6 -4 7 -11 4 -17 -4 -6 -1 -9 6 -6 20 6 21 36 5 110
-8 37 -15 71 -15 75 0 4 23 6 51 4 38 -2 50 0 44 9 -4 6 -18 10 -31 7 -13 -2
-21 0 -18 4 3 5 -6 9 -20 9 -16 0 -26 6 -26 15 0 8 6 15 14 15 21 0 30 33 12
46 -9 6 -12 15 -8 20 4 4 -1 2 -10 -5 -13 -9 -18 -10 -18 -2 0 6 7 14 15 17
12 5 13 10 4 20 -6 7 -8 18 -5 23 4 5 -8 11 -26 13 -27 3 -33 8 -41 38 -12 48
-29 64 -62 56 -18 -5 -31 -18 -41 -44 -8 -20 -20 -48 -26 -62 l-12 -25 -7 35
c-6 28 -7 24 -4 -18 l3 -54 -54 4 c-40 2 -54 0 -54 -10 0 -10 13 -13 50 -10
30 2 49 -1 47 -7 -2 -6 -47 -10 -105 -10 -56 0 -102 -2 -103 -5 0 -3 -2 -15
-5 -28 -5 -28 21 -40 102 -43 75 -3 84 -6 84 -33 0 -11 9 -32 19 -45 15 -20
20 -22 38 -11 11 8 29 10 39 6 18 -7 18 -8 1 -18 -10 -5 -25 -7 -32 -4 -12 4
-13 -7 -9 -65 7 -92 1 -111 -34 -103 -15 4 -32 10 -37 15 -6 4 -16 4 -23 0
-18 -11 -62 -2 -62 13 -1 6 -9 1 -19 -11 -10 -12 -21 -19 -25 -16 -3 4 -6 -1
-6 -11 0 -9 4 -14 10 -11 5 3 7 0 4 -9 -3 -9 -12 -12 -22 -8 -14 5 -15 3 -5
-9 10 -13 10 -16 -2 -16 -8 0 -15 5 -15 11 -1 6 -7 -4 -15 -22 -8 -18 -19 -31
-25 -27 -5 3 -10 1 -10 -5 0 -6 -5 -8 -11 -4 -8 4 -9 -1 -5 -17 l6 -24 -11 23
c-7 12 -19 22 -28 21 -10 0 -12 -2 -3 -6 6 -2 12 -16 12 -29 0 -21 -2 -23 -14
-12 -10 9 -11 15 -2 20 10 7 1 12 -16 9 -16 -2 -7 18 10 23 10 4 19 12 19 19
1 6 6 46 12 87 23 152 24 213 7 287 -9 40 -16 91 -16 114 0 39 2 41 25 37 14
-3 25 -1 25 4 0 5 5 6 10 3 6 -3 10 -1 10 5 0 7 -8 9 -21 5 -15 -5 -19 -4 -15
4 4 6 3 11 -3 11 -5 0 -13 -5 -17 -11 -4 -8 -12 -2 -21 15 -8 14 -11 32 -7 38
4 6 3 8 -2 5 -15 -9 -85 27 -119 61 -66 65 -80 86 -80 125 -1 33 1 36 12 21 7
-10 13 -29 14 -43 0 -24 1 -24 9 -6 17 40 11 103 -12 129 -26 28 -45 32 -105
21 -39 -7 -44 -11 -53 -46 -7 -26 -7 -45 -1 -57 8 -14 10 -10 9 16 -2 49 11
57 72 42 63 -15 60 -32 -8 -44 -29 -5 -52 -13 -52 -17 0 -15 21 -21 34 -10 10
9 15 7 19 -9 4 -15 0 -20 -16 -20 -16 0 -18 -3 -9 -9 17 -10 22 -42 9 -58 -5
-7 -6 -13 -2 -13 5 0 1 -8 -9 -18 -9 -11 -23 -43 -31 -73 -8 -30 -24 -88 -35
-129 -11 -41 -25 -104 -30 -139 -5 -35 -21 -89 -37 -120 -15 -31 -28 -67 -28
-81 0 -14 -6 -25 -12 -26 -7 -1 -22 -2 -33 -3 -11 0 -19 -4 -19 -8 1 -5 1 -19
0 -33 -1 -20 -3 -22 -11 -10 -8 12 -12 13 -19 2 -6 -10 -10 -7 -13 12 -5 23
-3 26 16 21 16 -5 17 -4 7 3 -8 6 -30 8 -50 6 -20 -2 -30 -2 -24 2 10 4 10 9
-1 20 -17 17 -36 18 -36 3 0 -5 -5 -7 -10 -4 -6 4 -7 12 -4 18 5 8 3 8 -7 0
-7 -7 -21 -13 -31 -13 -9 0 -21 -7 -26 -16 -5 -9 -13 -15 -18 -15 -14 1 -78
-11 -88 -17 -21 -12 -106 2 -106 17 0 4 15 6 33 4 l32 -4 -27 16 c-16 9 -28
18 -28 21 0 3 5 2 12 -2 7 -4 8 -3 4 4 -5 9 -15 8 -37 -4 -34 -17 -54 -10 -26
11 15 11 16 13 2 19 -8 3 -15 0 -15 -6 0 -7 -7 -3 -16 8 -8 10 -13 13 -9 7 3
-7 1 -13 -4 -13 -6 0 -11 9 -11 19 0 11 -5 23 -10 26 -6 4 -8 10 -5 15 3 4 -5
11 -18 15 l-22 8 22 4 c19 4 21 8 13 23 -5 10 -7 26 -4 34 4 9 1 30 -7 47 -11
29 -10 33 11 49 19 14 22 23 17 54 -4 24 -2 36 6 36 12 1 66 7 125 15 23 3 32
0 32 -11 0 -8 7 -14 15 -14 12 0 15 9 12 36 -4 31 -2 35 15 31 14 -4 18 -2 14
10 -3 8 -7 29 -7 46 l-1 32 -7 -30 c-6 -27 -7 -28 -15 -10 -5 11 -8 32 -7 48
2 23 -1 27 -22 27 -14 0 -27 6 -30 14 -7 18 1 26 25 26 10 0 18 6 18 13 0 9 2
9 9 -1 7 -11 9 -11 13 0 7 18 -10 61 -21 53 -5 -3 -13 0 -17 6 -4 7 -3 9 4 5
6 -3 14 -1 17 5 5 7 15 2 28 -12 16 -17 21 -35 20 -68 0 -40 0 -42 7 -16 4 17
8 22 9 12 0 -10 5 -16 10 -12 5 3 8 -8 6 -24 -4 -28 -2 -29 20 -21 23 9 45 -3
32 -16 -3 -3 -1 -19 3 -35 5 -17 5 -29 -1 -29 -5 0 -9 4 -9 9 0 14 -32 23 -44
11 -6 -6 -6 -10 0 -10 5 0 10 -9 10 -20 0 -11 -4 -20 -8 -20 -4 0 -8 8 -8 17
0 11 -3 13 -9 8 -6 -6 -6 -25 -1 -45 4 -19 8 -28 9 -20 1 13 2 13 11 0 9 -13
12 -12 25 4 9 12 15 15 15 7 0 -9 10 -12 33 -8 24 3 37 -1 52 -17 17 -18 30
-21 85 -19 80 2 78 1 60 13 -8 5 -37 10 -63 10 -34 0 -49 4 -54 16 -3 9 -13
14 -24 11 -12 -3 -24 4 -34 19 -13 21 -14 24 -1 24 9 0 13 6 10 13 -7 19 22
42 32 26 4 -7 3 -9 -3 -6 -5 3 -10 0 -10 -8 0 -8 4 -15 9 -15 7 0 12 15 9 33
-1 7 15 11 32 8 5 -1 6 3 2 9 -3 6 -10 8 -15 5 -4 -3 -11 1 -13 7 -4 10 -6 10
-6 1 -1 -7 -9 -13 -18 -13 -12 0 -18 8 -18 23 0 17 5 23 16 20 18 -5 34 23 18
33 -14 8 9 34 30 34 9 1 1 7 -16 15 -18 8 -33 17 -33 21 0 4 3 5 6 1 3 -3 12
-1 19 6 9 9 10 17 1 32 -19 34 -58 67 -72 61 -8 -3 -14 -1 -14 4 0 6 5 10 10
10 6 0 10 6 10 14 0 8 -16 17 -37 21 -21 4 -44 12 -52 18 -12 9 -13 9 -7 0 4
-7 2 -13 -3 -13 -6 0 -11 6 -11 13 0 7 -7 4 -15 -7 -18 -24 -20 -77 -3 -74 6
2 14 -6 16 -16 3 -15 0 -17 -14 -12 -18 6 -18 5 -1 -8 12 -10 15 -16 7 -21 -6
-4 -20 1 -31 11 -11 10 -19 12 -19 6 0 -7 -12 -12 -26 -12 -22 0 -24 -3 -18
-22 4 -13 12 -26 18 -30 7 -5 6 -8 -4 -8 -12 0 -12 -2 -2 -9 19 -12 -76 -23
-127 -15 -38 6 -41 9 -41 38 0 26 -7 34 -37 49 -34 17 -35 17 -31 0 10 -33 10
-38 8 -58 -2 -15 -4 -12 -10 10 -6 22 -8 9 -9 -49 -1 -62 -4 -77 -15 -73 -7 3
-17 2 -22 -3 -10 -10 -47 17 -56 41 -5 13 -2 16 13 12 15 -4 19 0 19 24 0 42
-26 73 -61 73 -28 0 -29 2 -29 46 l0 45 86 -2 c107 -2 153 -15 165 -46 10 -26
29 -31 29 -8 0 8 7 15 15 15 8 0 15 -5 15 -10 0 -6 9 -20 19 -31 18 -19 19
-19 18 -2 -1 10 4 17 11 15 6 -1 11 4 10 10 -2 7 5 12 14 10 9 -1 22 7 28 18
6 11 15 18 21 15 5 -4 10 8 10 24 1 17 2 37 3 44 1 6 -2 17 -7 24 -5 7 -6 16
-3 22 4 5 -3 7 -16 3 -14 -3 -19 -1 -14 6 3 6 3 13 -2 16 -4 2 -9 -6 -10 -20
-1 -13 3 -24 8 -24 6 0 10 -5 10 -11 0 -5 -6 -7 -12 -3 -8 5 -8 2 1 -10 11
-13 11 -16 1 -14 -7 2 -15 -3 -18 -11 -3 -10 0 -11 9 -6 8 5 4 -2 -8 -16 -12
-13 -32 -35 -44 -49 l-21 -25 16 27 c21 35 21 36 -9 34 -14 0 -25 -7 -25 -14
0 -13 -24 -10 -92 14 -21 7 -80 14 -132 15 -97 2 -104 5 -76 44 4 6 6 18 5 27
-2 10 2 15 11 11 17 -6 81 15 91 29 4 8 0 9 -10 5 -10 -4 -24 -10 -32 -13 -11
-5 -15 1 -15 20 0 22 -4 26 -29 26 -22 0 -28 4 -26 18 2 9 4 41 4 69 l1 52 69
0 c39 -1 75 2 80 6 6 3 16 -5 22 -19 7 -14 16 -23 20 -20 5 3 9 -3 9 -13 0
-15 2 -16 10 -3 9 13 10 13 11 0 1 -8 0 -25 -1 -37 -1 -15 4 -23 14 -23 21 0
29 17 11 24 -9 3 -12 12 -8 21 5 14 8 12 22 -8 12 -18 21 -22 36 -16 11 4 16
8 10 8 -5 1 -3 6 5 11 11 7 11 10 2 10 -8 0 -10 5 -6 12 5 8 2 9 -9 5 -9 -3
-19 -1 -23 5 -4 7 -3 8 4 4 25 -15 10 3 -15 20 -27 17 -28 17 -13 -1 11 -13 3
-10 -27 8 -33 21 -55 27 -98 27 -35 0 -54 4 -50 10 4 6 -10 10 -34 10 -21 0
-41 5 -43 11 -2 6 -26 11 -56 11 -49 -1 -52 1 -52 24 0 23 3 24 62 24 34 0 59
3 56 6 -4 3 -31 5 -61 5 -49 0 -56 3 -60 22 -3 13 -5 7 -6 -15 0 -20 -7 -39
-13 -41 -9 -4 -9 -8 -3 -14 26 -21 12 -30 -47 -26 -41 3 -58 1 -53 -6 3 -6 1
-11 -4 -11 -6 0 -11 3 -12 8 0 4 -2 17 -3 30 -2 12 1 22 6 22 4 0 8 -5 8 -11
0 -5 5 -7 11 -4 6 5 4 12 -8 21 -10 7 -14 14 -10 14 4 0 3 9 -3 19 -7 14 -6
21 3 24 6 3 -75 6 -180 6 -177 1 -193 0 -193 -16 -1 -17 -1 -17 -14 0 -21 27
-42 20 -59 -20 -9 -21 -16 -31 -15 -23 0 8 0 26 -1 40 -1 19 -3 22 -10 11 -5
-8 -8 -39 -7 -68 2 -30 -1 -56 -6 -59 -4 -3 -8 28 -9 68 -1 52 -3 66 -9 48 -8
-24 -8 -24 -9 -2 -2 39 -19 24 -19 -18 -1 -54 -10 -80 -29 -80 -13 0 -15 9
-10 60 l7 60 -315 0 -315 0 0 -1405z m3438 1348 c-10 -12 -13 -12 -25 0 -8 7
-11 21 -7 31 6 16 8 16 25 0 15 -13 16 -20 7 -31z m-2650 -25 c-3 -61 -4 -63
-30 -64 -17 -1 -28 4 -28 12 0 8 10 14 21 14 19 0 21 4 16 35 -3 19 -2 35 4
35 5 0 9 7 9 15 0 8 3 15 6 15 3 0 4 -28 2 -62z m3117 43 c3 -5 1 -12 -5 -16
-5 -3 -10 1 -10 9 0 18 6 21 15 7z m-3025 -36 c0 -8 -4 -15 -10 -15 -5 0 -7 7
-4 15 4 8 8 15 10 15 2 0 4 -7 4 -15z m105 -5 c3 -5 -3 -10 -14 -10 -12 0 -21
5 -21 10 0 6 6 10 14 10 8 0 18 -4 21 -10z m2486 -23 c-10 -9 -11 -8 -5 6 3
10 9 15 12 12 3 -3 0 -11 -7 -18z m299 19 c0 -2 -7 -6 -15 -10 -8 -3 -15 -1
-15 4 0 6 7 10 15 10 8 0 15 -2 15 -4z m1152 -57 c-7 -10 -12 -25 -12 -32 0
-7 -9 -20 -19 -29 -18 -15 -19 -15 -25 13 -20 98 -20 95 -2 80 9 -7 16 -20 16
-27 0 -8 5 -14 11 -14 7 0 9 9 6 21 -3 12 0 27 6 34 18 20 35 -20 19 -46z
m-4011 -84 l-9 -40 3 50 c8 134 8 135 12 80 2 -27 0 -68 -6 -90z m259 125 c0
-5 -5 -10 -11 -10 -5 0 -7 5 -4 10 3 6 8 10 11 10 2 0 4 -4 4 -10z m3116 -8
c12 -7 11 -198 -1 -210 -11 -11 -23 13 -29 61 -5 33 -4 47 5 47 6 0 9 8 6 20
-3 11 -1 22 4 25 4 3 4 17 -1 31 -14 37 -10 43 16 26z m-2878 -9 c-16 -2 -40
-2 -55 0 -16 2 -3 4 27 4 30 0 43 -2 28 -4z m3251 -60 c1 -17 -5 -23 -20 -23
-20 0 -21 -4 -18 -87 l4 -86 -43 -15 c-23 -7 -50 -11 -60 -7 -12 5 -13 9 -4
12 15 6 17 129 2 138 -5 3 -10 30 -9 58 1 41 3 47 9 27 6 -19 8 -20 9 -6 1 13
6 17 22 13 13 -3 28 2 40 14 11 11 24 17 29 14 5 -3 12 0 16 7 9 14 21 -19 23
-59z m21 32 c0 -19 -2 -35 -4 -35 -2 0 -6 16 -8 35 -2 19 0 35 4 35 4 0 8 -16
8 -35z m-276 10 c3 -8 1 -15 -4 -15 -6 0 -10 7 -10 15 0 8 2 15 4 15 2 0 6 -7
10 -15z m-769 -5 c3 -5 1 -10 -4 -10 -6 0 -11 5 -11 10 0 6 2 10 4 10 3 0 8
-4 11 -10z m240 -10 c3 -5 1 -10 -4 -10 -6 0 -11 5 -11 10 0 6 2 10 4 10 3 0
8 -4 11 -10z m484 -66 c1 -25 -5 -46 -14 -54 -13 -11 -15 -5 -15 43 0 30 3 63
7 73 6 16 7 16 14 -2 4 -10 8 -38 8 -60z m-1019 56 c0 -5 -7 -7 -15 -4 -8 4
-15 8 -15 10 0 2 7 4 15 4 8 0 15 -4 15 -10z m-2510 -10 c0 -5 -4 -10 -10 -10
-5 0 -10 5 -10 10 0 6 5 10 10 10 6 0 10 -4 10 -10z m560 -10 c0 -5 -8 -10
-17 -10 -15 0 -16 2 -3 10 19 12 20 12 20 0z m2008 -13 c3 -15 0 -16 -22 -6
-32 15 -34 26 -3 24 12 -1 23 -9 25 -18z m442 13 c0 -5 7 -7 16 -3 14 5 16 1
12 -20 -6 -29 6 -37 16 -12 10 27 26 16 26 -19 0 -18 -9 -45 -20 -59 -11 -14
-20 -32 -20 -40 0 -18 -27 -30 -36 -16 -3 5 -2 18 2 27 4 9 6 25 5 35 -1 10 3
25 9 33 9 10 9 14 1 14 -6 0 -11 10 -11 23 0 13 -5 28 -12 35 -9 9 -9 12 0 12
7 0 12 -4 12 -10z m330 -27 l0 -38 -15 29 c-13 24 -13 31 -3 38 18 11 18 12
18 -29z m-2892 19 c12 10 14 10 8 1 -4 -7 -2 -13 3 -13 6 0 10 -11 9 -25 -2
-18 -7 -24 -18 -20 -12 5 -13 4 -2 -6 16 -17 15 -26 -3 -33 -10 -4 -19 2 -25
17 -5 12 -9 16 -9 10 -1 -7 -5 -13 -11 -13 -5 0 -7 14 -3 32 7 35 26 62 31 47
2 -6 11 -4 20 3z m3131 -79 c-1 -66 -2 -67 -9 -23 -7 41 -4 90 6 90 2 0 3 -30
3 -67z m-2981 31 c0 -17 -6 -24 -19 -24 -13 0 -16 5 -12 16 3 9 0 20 -7 24 -8
5 -3 8 13 8 19 0 25 -6 25 -24z m2355 20 c9 -9 -4 -35 -14 -28 -5 3 -9 12 -9
20 0 14 12 19 23 8z m-203 -25 c0 -6 -4 -7 -10 -4 -5 3 -10 11 -10 16 0 6 5 7
10 4 6 -3 10 -11 10 -16z m-145 -47 c-8 -9 -51 34 -47 46 2 8 12 3 28 -15 13
-15 21 -29 19 -31z m1202 36 c-3 -8 -6 -5 -6 6 -1 11 2 17 5 13 3 -3 4 -12 1
-19z m60 -10 c-3 -7 -5 -2 -5 12 0 14 2 19 5 13 2 -7 2 -19 0 -25z m196 -8 c5
-24 12 -30 32 -30 15 0 35 5 46 10 14 8 19 7 19 -3 0 -8 -23 -18 -61 -26 -60
-12 -87 -8 -60 8 10 6 12 19 7 46 -4 22 -4 35 2 31 5 -3 12 -19 15 -36z m-938
20 c3 -5 3 -10 -2 -10 -4 0 -7 -33 -6 -72 1 -40 -1 -64 -4 -53 -3 11 -9 24
-14 30 -9 9 -13 -33 -9 -107 1 -22 -3 -38 -9 -38 -6 0 -11 -8 -11 -17 0 -14
-2 -15 -9 -5 -4 7 -17 15 -27 16 -10 2 -18 9 -16 16 1 7 4 31 6 54 7 75 66
180 66 116 0 -11 4 -20 10 -20 6 0 6 9 0 26 -16 41 5 96 25 64z m-2985 -10 c0
-5 -4 -10 -10 -10 -5 0 -10 5 -10 10 0 6 5 10 10 10 6 0 10 -4 10 -10z m2410
-21 c0 -5 -4 -9 -10 -9 -5 0 -10 7 -10 16 0 8 5 12 10 9 6 -3 10 -10 10 -16z
m400 -19 c0 -4 -9 -6 -21 -3 -15 4 -17 8 -8 14 14 8 29 3 29 -11z m580 -80 c0
-38 -4 -50 -15 -50 -19 0 -20 52 -3 80 7 11 14 20 15 20 2 0 3 -22 3 -50z
m-910 30 c0 -5 -2 -10 -4 -10 -3 0 -8 5 -11 10 -3 6 -1 10 4 10 6 0 11 -4 11
-10z m12 -54 c4 3 8 2 6 -3 -1 -4 2 -32 6 -61 11 -72 -6 -89 -28 -30 -10 26
-28 50 -45 59 -23 13 -61 67 -61 86 0 3 25 -9 56 -26 31 -17 61 -28 66 -25z
m102 38 c3 -8 2 -12 -4 -9 -6 3 -10 10 -10 16 0 14 7 11 14 -7z m101 -4 c3 -5
1 -10 -4 -10 -6 0 -11 5 -11 10 0 6 2 10 4 10 3 0 8 -4 11 -10z m-2252 -7 c-7
-2 -19 -2 -25 0 -7 3 -2 5 12 5 14 0 19 -2 13 -5z m2356 -65 c1 -20 -3 -40 -9
-43 -6 -4 -10 17 -9 57 0 68 17 56 18 -14z m-1894 52 c3 -5 1 -10 -4 -10 -6 0
-11 5 -11 10 0 6 2 10 4 10 3 0 8 -4 11 -10z m2542 -22 c-3 -7 -5 -2 -5 12 0
14 2 19 5 13 2 -7 2 -19 0 -25z m-3007 -21 c0 -5 -4 -5 -10 -2 -5 3 -10 14
-10 23 0 15 2 15 10 2 5 -8 10 -19 10 -23z m2110 8 c0 -8 -2 -15 -4 -15 -2 0
-6 7 -10 15 -3 8 -1 15 4 15 6 0 10 -7 10 -15z m426 -63 c-11 -10 -13 3 -7 43
l6 40 3 -39 c2 -21 1 -41 -2 -44z m-256 58 c0 -5 -2 -10 -4 -10 -3 0 -8 5 -11
10 -3 6 -1 10 4 10 6 0 11 -4 11 -10z m-106 -15 c-4 -8 -8 -15 -10 -15 -2 0
-4 7 -4 15 0 8 4 15 10 15 5 0 7 -7 4 -15z m542 -13 c-17 -16 -18 -16 -5 5 7
12 15 20 18 17 3 -2 -3 -12 -13 -22z m508 -15 c4 -17 3 -26 -2 -23 -6 3 -23 2
-38 -3 -47 -15 -114 -22 -114 -12 0 5 25 12 55 16 30 3 55 11 55 16 0 5 7 9
16 9 12 0 15 6 11 21 -3 12 -2 18 2 13 5 -5 11 -22 15 -37z m-264 -24 c0 -7
-2 -13 -4 -13 -2 0 -11 -3 -20 -6 -9 -3 -16 -1 -16 5 0 6 7 11 15 11 8 0 15 5
15 10 0 6 -4 10 -10 10 -5 0 -10 8 -10 17 0 15 2 14 15 -3 8 -10 15 -25 15
-31z m-990 15 c24 -26 26 -51 4 -46 -17 3 -49 68 -34 68 5 0 18 -10 30 -22z
m50 -15 c0 -13 -3 -13 -15 -3 -8 7 -15 19 -15 27 0 13 3 13 15 3 8 -7 15 -19
15 -27z m772 12 c-4 -23 -23 -42 -47 -46 -22 -5 -28 -19 -15 -39 8 -12 11 -13
19 -1 5 8 11 9 15 3 4 -6 -2 -15 -11 -21 -11 -6 -13 -11 -5 -11 10 0 10 -3 0
-14 -10 -11 -15 -7 -25 23 -7 20 -13 51 -13 69 0 28 5 35 33 47 39 17 53 14
49 -10z m-415 -22 c-3 -10 -5 -4 -5 12 0 17 2 24 5 18 2 -7 2 -21 0 -30z m950
31 c-3 -3 -12 -4 -19 -1 -8 3 -5 6 6 6 11 1 17 -2 13 -5z m-2643 -66 c-3 -4
-13 -8 -24 -8 -13 0 -17 -5 -13 -20 3 -11 0 -20 -6 -20 -5 0 -8 -7 -4 -16 5
-14 3 -15 -14 -6 -11 6 -22 9 -24 7 -3 -2 -17 -6 -33 -9 -24 -4 -27 -2 -23 15
3 11 1 34 -5 50 -12 34 -1 53 22 39 8 -5 11 -12 7 -17 -5 -4 -13 -1 -18 7 -9
12 -9 11 -4 -5 4 -11 8 -26 8 -32 0 -7 11 -12 24 -11 25 3 31 13 11 21 -12 4
-2 10 40 23 8 2 16 13 19 25 5 19 7 19 24 -7 10 -15 16 -31 13 -36z m1530 47
c-25 -19 -34 -19 -34 0 0 10 10 15 27 15 26 0 26 -1 7 -15z m1073 9 c-3 -3
-12 -4 -19 -1 -8 3 -5 6 6 6 11 1 17 -2 13 -5z m-3317 -14 c0 -5 -2 -10 -4
-10 -3 0 -8 5 -11 10 -3 6 -1 10 4 10 6 0 11 -4 11 -10z m2197 -67 c-2 -16 -4
-3 -4 27 0 30 2 43 4 28 2 -16 2 -40 0 -55z m887 45 c-3 -4 -15 -8 -27 -8 -12
0 -28 -4 -35 -9 -11 -6 -10 -10 3 -15 24 -9 1 -36 -25 -29 -12 3 -20 0 -20 -7
0 -7 -6 -5 -16 5 -22 21 -12 42 31 62 19 9 35 20 35 24 0 4 13 2 29 -4 17 -6
28 -15 25 -19z m-544 -23 c0 -10 -10 -15 -27 -15 l-28 1 25 14 c31 18 30 18
30 0z m110 -16 c50 2 47 -5 -13 -34 -29 -14 -41 -25 -39 -37 2 -15 -5 -18 -43
-18 -25 0 -45 5 -45 10 0 6 5 10 10 10 6 0 10 9 10 19 0 10 7 21 15 25 8 3 15
13 15 21 0 13 5 15 23 9 12 -5 42 -7 67 -5z m-2600 -74 c-12 -15 -44 -9 -34 6
3 5 9 7 14 4 5 -3 11 -1 15 5 3 5 -3 10 -14 10 -26 0 -27 15 -3 29 14 8 19 5
25 -15 6 -16 5 -30 -3 -39z m2630 25 c-7 -5 -20 -6 -28 -3 -11 5 -9 9 9 19 26
13 43 -1 19 -16z m-3510 4 c0 -11 -6 -14 -22 -9 -19 5 -18 3 5 -10 28 -16 36
-35 15 -35 -7 -1 -2 -7 11 -14 20 -11 21 -14 7 -19 -10 -4 -15 -3 -12 2 3 5
-1 12 -10 15 -13 5 -14 9 -5 20 13 16 -4 26 -45 26 -13 0 -24 6 -24 13 0 21
11 27 47 27 23 0 33 -5 33 -16z m3184 -10 c14 -36 7 -44 -39 -44 -55 0 -62 23
-12 44 42 19 44 19 51 0z m166 6 c0 -5 -9 -10 -21 -10 -11 0 -17 5 -14 10 3 6
13 10 21 10 8 0 14 -4 14 -10z m-450 -25 c0 -8 -7 -15 -15 -15 -13 0 -14 3 -3
15 16 18 18 18 18 0z m716 -10 c-14 -11 -15 -14 -1 -25 12 -10 15 -10 15 1 0
8 6 5 15 -7 8 -10 15 -15 15 -10 0 6 7 1 16 -10 15 -19 15 -19 5 2 -8 17 -4
25 20 48 16 16 32 26 35 23 3 -3 -7 -28 -22 -56 -25 -49 -27 -51 -45 -35 -17
15 -19 14 -33 -17 l-15 -34 5 34 c4 26 -1 40 -17 57 -19 21 -20 24 -6 30 9 3
14 11 10 17 -4 6 -1 7 7 2 10 -6 10 -11 -4 -20z m-2358 -10 c-3 -3 -9 2 -12
12 -6 14 -5 15 5 6 7 -7 10 -15 7 -18z m2245 18 c-7 -2 -19 -2 -25 0 -7 3 -2
5 12 5 14 0 19 -2 13 -5z m-2418 -42 c1 -22 -3 -37 -7 -35 -14 9 -8 75 6 74 1
0 1 -18 1 -39z m2245 35 c0 -11 -19 -15 -25 -6 -3 5 1 10 9 10 9 0 16 -2 16
-4z m-3386 -33 c-13 -10 -20 -10 -23 -2 -4 14 19 30 33 22 5 -3 1 -12 -10 -20z
m3435 -45 c-2 -52 -2 -53 -8 -13 -4 22 -5 46 -3 53 8 25 12 11 11 -40z m-1902
-5 c-3 -10 -5 -4 -5 12 0 17 2 24 5 18 2 -7 2 -21 0 -30z m1771 15 c-8 -12
-21 -24 -29 -26 -8 -3 -3 7 10 22 30 32 39 34 19 4z m-628 -3 c0 -9 -9 -15
-25 -15 -24 0 -32 10 -18 23 12 13 43 7 43 -8z m787 -32 c-3 -10 -5 -2 -5 17
0 19 2 27 5 18 2 -10 2 -26 0 -35z m-3372 27 c3 -5 1 -10 -4 -10 -6 0 -11 5
-11 10 0 6 2 10 4 10 3 0 8 -4 11 -10z m3308 -21 c-4 -15 -8 -17 -14 -8 -8 14
-3 29 11 29 4 0 6 -9 3 -21z m-430 -29 c8 0 19 -12 26 -26 10 -23 9 -29 -7
-44 -16 -15 -21 -16 -37 -4 -23 17 -27 37 -19 84 6 32 7 33 15 13 5 -13 15
-23 22 -23z m667 16 c0 -24 -16 -43 -27 -32 -8 8 6 56 17 56 6 0 10 -11 10
-24z m-3520 -7 c0 -6 11 -25 25 -43 14 -18 25 -46 25 -62 l0 -29 -20 30 c-11
17 -18 36 -15 43 6 17 -30 15 -45 -3 -7 -9 -19 -14 -27 -11 -14 6 -73 -67 -73
-89 0 -7 -6 -18 -14 -24 -22 -18 6 79 33 117 46 66 111 107 111 71z m1908 -60
c-42 -77 -58 -86 -48 -27 10 62 26 96 47 100 35 8 35 -11 1 -73z m646 64 c-10
-7 -22 -13 -27 -13 -4 0 -5 -5 -1 -11 4 -7 1 -10 -7 -7 -8 3 -15 14 -17 26 -3
19 1 21 34 20 33 -1 35 -3 18 -15z m1076 9 c0 -5 -7 -17 -16 -28 -14 -17 -15
-17 -10 -1 3 10 6 23 6 28 0 5 5 9 10 9 6 0 10 -4 10 -8z m-2562 -27 c-3 -3
-9 2 -12 12 -6 14 -5 15 5 6 7 -7 10 -15 7 -18z m-531 -7 c-3 -8 -6 -5 -6 6
-1 11 2 17 5 13 3 -3 4 -12 1 -19z m1431 -39 c-1 -13 -11 -25 -20 -27 -22 -4
-24 21 -3 38 8 7 12 17 8 24 -4 8 -3 8 6 0 7 -7 11 -22 9 -35z m1049 19 c-3
-8 -6 -5 -6 6 -1 11 2 17 5 13 3 -3 4 -12 1 -19z m-17 -3 c0 -8 -7 -15 -15
-15 -9 0 -12 6 -9 15 4 8 10 15 15 15 5 0 9 -7 9 -15z m-2455 -14 c3 -5 1 -12
-4 -15 -5 -3 -11 1 -15 9 -6 16 9 21 19 6z m2568 -8 c-13 -2 -33 -2 -45 0 -13
2 -3 4 22 4 25 0 35 -2 23 -4z m-2360 -10 c-7 -2 -21 -2 -30 0 -10 3 -4 5 12
5 17 0 24 -2 18 -5z m-813 -12 c0 -6 -12 -23 -26 -38 -28 -30 -28 -29 10 35 9
14 16 16 16 3z m3417 -23 c-3 -8 -6 -5 -6 6 -1 11 2 17 5 13 3 -3 4 -12 1 -19z
m-3307 -61 c0 -5 -9 -11 -20 -14 -18 -5 -18 -7 -4 -29 9 -13 14 -29 11 -36 -2
-7 -11 3 -20 22 -12 29 -12 37 -2 44 11 8 10 18 -6 50 l-20 41 31 -35 c16 -19
30 -38 30 -43z m520 63 c-14 -4 -45 -8 -70 -8 -45 1 -45 1 -10 8 19 4 51 8 70
8 32 0 33 -1 10 -8z m1354 -1 c-3 -6 0 -15 7 -20 11 -7 10 -9 -3 -9 -11 0 -18
8 -18 20 0 11 5 20 11 20 5 0 7 -5 3 -11z m2009 4 c-7 -2 -19 -2 -25 0 -7 3
-2 5 12 5 14 0 19 -2 13 -5z m-3183 -13 c0 -5 -8 -6 -17 -3 -16 6 -16 5 -4
-10 12 -15 12 -17 -3 -11 -23 9 -20 34 4 34 11 0 20 -4 20 -10z m1802 -38 c-4
-11 -6 -11 -13 0 -5 7 -9 19 -9 26 0 10 3 10 14 0 7 -7 11 -19 8 -26z m-197
-14 c6 -5 0 -7 -15 -4 -14 2 -33 5 -42 5 -10 1 -18 5 -18 11 0 11 60 2 75 -12z
m50 2 c3 -6 -4 -10 -17 -10 -18 0 -20 2 -8 10 19 12 18 12 25 0z m-1638 -6
c-3 -3 -12 -4 -19 -1 -8 3 -5 6 6 6 11 1 17 -2 13 -5z m2681 0 c15 -4 22 -14
22 -30 0 -21 -5 -24 -37 -26 -37 -1 -37 -1 -5 -5 17 -2 32 -9 32 -14 0 -6 -8
-8 -17 -6 -10 3 -35 8 -55 12 -35 5 -38 8 -38 40 0 34 1 35 38 35 20 0 47 -3
60 -6z m-2558 -22 c0 -10 -6 -19 -14 -19 -11 0 -12 4 -3 19 7 10 13 18 14 18
2 0 3 -8 3 -18z m-390 -12 c0 -5 -8 -10 -17 -10 -15 0 -16 2 -3 10 19 12 20
12 20 0z m73 3 c-7 -2 -19 -2 -25 0 -7 3 -2 5 12 5 14 0 19 -2 13 -5z m154 -9
c-3 -3 -12 -4 -19 -1 -8 3 -5 6 6 6 11 1 17 -2 13 -5z m3240 -15 c-30 -8 -60
-2 -53 10 3 4 22 5 43 2 38 -4 38 -4 10 -12z m-3517 1 c-18 -12 -43 -13 -36
-2 2 4 15 8 28 9 18 2 19 0 8 -7z m-203 -6 c-3 -3 -12 -4 -19 -1 -8 3 -5 6 6
6 11 1 17 -2 13 -5z m2790 -20 c-3 -3 -12 -4 -19 -1 -8 3 -5 6 6 6 11 1 17 -2
13 -5z m-3075 -26 c-7 -7 -12 -8 -12 -2 0 14 12 26 19 19 2 -3 -1 -11 -7 -17z
m78 -45 c-1 -32 1 -80 4 -108 6 -49 6 -50 -9 -20 -8 17 -14 44 -15 61 0 16 -6
36 -12 44 -11 12 -10 12 5 0 17 -13 19 -12 17 10 -3 38 -1 70 6 70 3 0 5 -26
4 -57z m3040 43 c0 -9 -30 -14 -35 -6 -4 6 3 10 14 10 12 0 21 -2 21 -4z m335
-6 c27 -7 27 -8 5 -8 -14 0 -36 4 -50 8 -20 6 -21 8 -5 8 11 0 34 -4 50 -8z
m-2691 -24 c-4 -12 -7 -29 -6 -38 0 -10 -4 -18 -9 -18 -6 0 -8 4 -4 9 3 5 1
12 -5 16 -5 3 -10 11 -10 16 0 6 5 7 12 3 7 -4 8 -3 4 5 -6 9 -11 9 -22 0 -7
-6 -12 -15 -9 -19 3 -5 -4 -6 -15 -3 -11 3 -17 9 -14 14 3 5 -1 9 -10 9 -8 0
-17 -6 -20 -12 -5 -10 -7 -10 -12 0 -3 6 -17 12 -32 12 -46 0 -12 15 46 20
111 10 113 9 106 -14z m2496 9 c0 -8 -7 -15 -15 -15 -26 0 -18 20 13 29 1 1 2
-6 2 -14z m727 -8 c22 -1 26 -16 8 -29 -14 -10 -57 -10 -74 1 -22 14 -5 42 21
36 13 -3 33 -7 45 -8z m-3950 -53 c-3 -3 -12 -4 -19 -1 -8 3 -5 6 6 6 11 1 17
-2 13 -5z m-67 -7 c0 -2 -10 -12 -22 -23 l-23 -19 19 23 c18 21 26 27 26 19z
m720 -7 c0 -5 -2 -10 -4 -10 -3 0 -8 5 -11 10 -3 6 -1 10 4 10 6 0 11 -4 11
-10z m37 -16 c-3 -3 -12 -4 -19 -1 -8 3 -5 6 6 6 11 1 17 -2 13 -5z m378 -4
c-11 -5 -27 -9 -35 -9 -9 0 -8 4 5 9 11 5 27 9 35 9 9 0 8 -4 -5 -9z m2686 -7
c13 -16 12 -17 -3 -4 -17 13 -22 21 -14 21 2 0 10 -8 17 -17z m-1171 -53 c11
-22 20 -42 20 -45 0 -9 -34 -1 -42 10 -4 6 -8 1 -8 -10 -1 -18 -2 -18 -11 -3
-11 20 -1 100 12 92 5 -3 18 -23 29 -44z m225 -20 c-3 -5 -12 -10 -18 -10 -7
0 -6 4 3 10 19 12 23 12 15 0z m665 6 c0 -2 -9 -6 -20 -9 -11 -3 -20 -1 -20 4
0 5 9 9 20 9 11 0 20 -2 20 -4z m-29 -49 c-10 -9 -11 -8 -5 6 3 10 9 15 12 12
3 -3 0 -11 -7 -18z m-1733 -37 c1 -27 -5 -43 -16 -49 -9 -5 -13 -13 -9 -17 5
-5 11 -4 15 1 4 6 15 11 24 13 13 2 16 -2 11 -14 -5 -13 -3 -15 7 -9 9 5 11 4
6 -3 -4 -7 -18 -9 -32 -6 -15 4 -24 2 -24 -6 0 -7 6 -10 14 -7 8 3 22 0 31 -7
17 -12 17 -13 -1 -11 -49 5 -94 18 -94 27 0 6 7 8 15 4 8 -3 15 -1 15 4 0 6
-7 10 -16 10 -14 0 -14 3 -4 15 9 11 9 15 1 15 -6 0 -16 -10 -21 -22 -5 -13
-9 -16 -9 -8 0 8 8 26 19 40 11 14 20 31 20 38 0 7 10 17 23 22 12 5 23 9 23
9 1 1 2 -17 2 -39z m-120 5 c-3 -3 -9 2 -12 12 -6 14 -5 15 5 6 7 -7 10 -15 7
-18z m-645 -2 c4 -3 -2 -13 -14 -21 -24 -17 -37 -9 -19 13 14 16 23 19 33 8z
m1280 -22 c-3 -11 -11 -22 -18 -24 -10 -4 -10 0 -1 19 13 29 26 32 19 5z m907
-113 c64 -37 55 -51 -10 -18 -33 17 -60 32 -60 35 0 12 34 3 70 -17z m161 -93
c31 -13 32 -14 9 -14 -14 0 -34 6 -44 14 -25 19 -8 19 35 0z m-2727 -9 c-46
-32 -239 -136 -253 -136 -19 0 7 18 129 92 52 31 106 57 120 58 24 0 24 0 4
-14z m1310 -295 c19 -58 20 -75 6 -66 -6 4 -17 1 -25 -5 -13 -11 -15 -3 -15
54 0 36 4 66 9 66 5 0 16 -22 25 -49z"/>
<path d="M3410 2771 c0 -5 5 -13 10 -16 6 -3 10 -2 10 4 0 5 -4 13 -10 16 -5
3 -10 2 -10 -4z"/>
<path d="M1441 2794 c0 -11 3 -14 6 -6 3 7 2 16 -1 19 -3 4 -6 -2 -5 -13z"/>
<path d="M1775 2790 c2 -11 -3 -26 -11 -34 -8 -8 -14 -28 -14 -44 0 -27 2 -29
37 -27 22 1 39 7 41 16 3 8 8 16 13 19 10 7 15 77 6 86 -4 4 -7 -1 -7 -11 0
-17 -1 -17 -19 -1 -18 17 -19 17 -24 -1 -4 -16 -5 -16 -6 0 0 9 -5 17 -10 17
-6 0 -8 -9 -6 -20z"/>
<path d="M1883 2787 c-17 -17 -21 -31 -18 -61 4 -43 12 -56 24 -38 5 8 8 -3 9
-26 2 -39 1 -39 -32 -37 -27 3 -33 0 -32 -13 2 -13 12 -16 47 -13 24 1 45 4
46 5 7 7 23 115 23 157 0 44 -2 49 -22 48 -13 0 -33 -10 -45 -22z"/>
<path d="M2205 2675 c-4 -75 -5 -138 -2 -141 3 -3 8 39 11 93 4 54 8 117 10
141 2 23 0 42 -4 42 -4 0 -11 -61 -15 -135z"/>
<path d="M3030 2802 c0 -5 7 -9 15 -9 8 0 12 4 9 9 -3 4 -9 8 -15 8 -5 0 -9
-4 -9 -8z"/>
<path d="M641 2790 c-9 -42 -8 -91 1 -82 5 5 8 29 5 53 -2 24 -5 37 -6 29z"/>
<path d="M2098 2743 c7 -3 16 -2 19 1 4 3 -2 6 -13 5 -11 0 -14 -3 -6 -6z"/>
<path d="M2060 2720 c0 -5 5 -10 10 -10 6 0 10 5 10 10 0 6 -4 10 -10 10 -5 0
-10 -4 -10 -10z"/>
<path d="M2918 2703 c6 -2 18 -2 25 0 6 3 1 5 -13 5 -14 0 -19 -2 -12 -5z"/>
<path d="M2990 2693 c0 -8 12 -13 33 -13 22 0 28 3 18 9 -11 7 -10 10 5 13 10
3 2 5 -18 4 -24 0 -38 -5 -38 -13z"/>
<path d="M2060 2689 c0 -5 5 -7 10 -4 6 3 10 8 10 11 0 2 -4 4 -10 4 -5 0 -10
-5 -10 -11z"/>
<path d="M1563 2683 c15 -2 37 -2 50 0 12 2 0 4 -28 4 -27 0 -38 -2 -22 -4z"/>
<path d="M1640 2676 c0 -2 8 -10 18 -17 15 -13 16 -12 3 4 -13 16 -21 21 -21
13z"/>
<path d="M2898 2673 c7 -3 16 -2 19 1 4 3 -2 6 -13 5 -11 0 -14 -3 -6 -6z"/>
<path d="M1760 2630 c-11 -7 -11 -10 -2 -10 7 0 10 -4 7 -10 -3 -5 -2 -10 4
-10 5 0 9 9 8 20 -1 11 -1 20 -2 20 0 0 -7 -5 -15 -10z"/>
<path d="M1622 2575 c0 -16 2 -22 5 -12 2 9 2 23 0 30 -3 6 -5 -1 -5 -18z"/>
<path d="M2050 2589 c0 -5 5 -7 10 -4 6 3 10 8 10 11 0 2 -4 4 -10 4 -5 0 -10
-5 -10 -11z"/>
<path d="M2888 2593 c6 -2 18 -2 25 0 6 3 1 5 -13 5 -14 0 -19 -2 -12 -5z"/>
<path d="M1851 2569 c-30 -33 -26 -44 6 -15 15 14 24 28 21 31 -3 4 -15 -4
-27 -16z"/>
<path d="M2968 2573 c7 -3 16 -2 19 1 4 3 -2 6 -13 5 -11 0 -14 -3 -6 -6z"/>
<path d="M2053 2549 c-2 -23 3 -25 10 -4 4 8 3 16 -1 19 -4 3 -9 -4 -9 -15z"/>
<path d="M1758 2554 c-6 -5 -29 -11 -51 -13 -5 -1 -5 -6 -1 -13 5 -8 2 -9 -9
-5 -9 3 -27 2 -39 -4 -20 -8 -20 -9 6 -4 23 5 27 3 22 -10 -3 -9 -2 -13 4 -10
6 3 10 2 10 -3 0 -6 17 -8 40 -5 24 4 40 2 40 -5 0 -5 -9 -8 -21 -5 -17 5 -20
2 -17 -18 1 -13 9 -25 16 -25 6 -1 13 -2 15 -4 9 -7 36 -6 31 1 -3 5 -8 8 -12
6 -4 -2 -16 5 -26 16 -15 16 -16 19 -3 14 8 -3 21 1 27 8 7 8 16 13 20 10 5
-3 11 -1 15 5 4 6 -12 10 -43 10 -37 0 -51 4 -56 16 -4 9 -4 19 -1 22 3 3 5 0
5 -6 0 -7 15 -11 38 -10 l37 1 -33 4 c-31 4 -33 5 -15 18 10 8 15 15 12 15 -3
0 -8 -3 -11 -6z"/>
<path d="M1861 2546 c-9 -10 -8 -15 4 -20 10 -4 15 1 15 14 0 24 -4 25 -19 6z"/>
<path d="M2968 2543 c7 -3 16 -2 19 1 4 3 -2 6 -13 5 -11 0 -14 -3 -6 -6z"/>
<path d="M2895 2520 c-18 -8 -17 -9 8 -9 16 -1 26 3 22 9 -3 6 -7 10 -8 9 -1
0 -11 -4 -22 -9z"/>
<path d="M2968 2513 c7 -3 16 -2 19 1 4 3 -2 6 -13 5 -11 0 -14 -3 -6 -6z"/>
<path d="M3008 2513 c7 -3 16 -2 19 1 4 3 -2 6 -13 5 -11 0 -14 -3 -6 -6z"/>
<path d="M3206 2507 c3 -10 9 -15 12 -12 3 3 0 11 -7 18 -10 9 -11 8 -5 -6z"/>
<path d="M2893 2471 c10 -12 8 -14 -11 -9 -18 5 -25 1 -33 -18 -13 -35 -13
-34 26 -34 19 0 35 -4 35 -9 0 -6 -16 -7 -36 -4 -29 5 -36 3 -32 -8 3 -8 2
-24 -3 -36 -10 -27 10 -47 28 -28 10 10 9 14 -3 19 -9 3 -14 11 -12 18 3 8 23
11 56 9 47 -2 52 0 52 18 0 12 6 21 16 21 8 0 12 5 9 11 -4 6 -13 8 -21 5 -21
-8 -43 4 -37 20 3 8 0 14 -6 14 -6 0 -8 6 -5 13 3 8 -3 13 -15 13 -16 0 -18
-3 -8 -15z m54 -77 c-3 -3 -12 -4 -19 -1 -8 3 -5 6 6 6 11 1 17 -2 13 -5z"/>
<path d="M2960 2480 c0 -5 4 -10 9 -10 6 0 13 5 16 10 3 6 -1 10 -9 10 -9 0
-16 -4 -16 -10z"/>
<path d="M3005 2480 c4 -6 11 -8 16 -5 14 9 11 15 -7 15 -8 0 -12 -5 -9 -10z"/>
<path d="M1702 2450 c0 -14 2 -19 5 -12 2 6 2 18 0 25 -3 6 -5 1 -5 -13z"/>
<path d="M2960 2450 c0 -5 7 -10 16 -10 8 0 12 5 9 10 -3 6 -10 10 -16 10 -5
0 -9 -4 -9 -10z"/>
<path d="M3000 2450 c0 -5 7 -10 15 -10 8 0 15 5 15 10 0 6 -7 10 -15 10 -8 0
-15 -4 -15 -10z"/>
<path d="M3050 2450 c0 -5 5 -10 10 -10 6 0 10 5 10 10 0 6 -4 10 -10 10 -5 0
-10 -4 -10 -10z"/>
<path d="M1450 2426 c0 -2 7 -6 15 -10 8 -3 15 -1 15 4 0 6 -7 10 -15 10 -8 0
-15 -2 -15 -4z"/>
<path d="M1660 2426 c0 -2 7 -7 16 -10 8 -3 12 -2 9 4 -6 10 -25 14 -25 6z"/>
<path d="M3050 2420 c0 -5 5 -10 10 -10 6 0 10 5 10 10 0 6 -4 10 -10 10 -5 0
-10 -4 -10 -10z"/>
<path d="M1700 2410 c0 -6 7 -10 15 -10 8 0 15 2 15 4 0 2 -7 6 -15 10 -8 3
-15 1 -15 -4z"/>
<path d="M2813 2405 c0 -8 4 -12 9 -9 5 3 6 10 3 15 -9 13 -12 11 -12 -6z"/>
<path d="M3008 2413 c7 -3 16 -2 19 1 4 3 -2 6 -13 5 -11 0 -14 -3 -6 -6z"/>
<path d="M1744 2385 c2 -7 -3 -12 -12 -11 -9 0 -17 -7 -18 -17 -1 -11 0 -12 3
-3 3 11 10 13 29 6 21 -8 24 -7 22 14 -1 12 -8 23 -15 23 -8 0 -12 -6 -9 -12z"/>
<path d="M1783 2385 c-3 -9 -3 -19 1 -22 3 -4 6 2 6 13 0 16 2 17 10 4 8 -13
10 -12 10 3 0 21 -18 23 -27 2z"/>
<path d="M3008 2383 c7 -3 16 -2 19 1 4 3 -2 6 -13 5 -11 0 -14 -3 -6 -6z"/>
<path d="M1661 2364 c0 -11 3 -14 6 -6 3 7 2 16 -1 19 -3 4 -6 -2 -5 -13z"/>
<path d="M2953 2345 c-13 -14 -18 -67 -7 -77 9 -9 42 3 48 18 3 7 -1 20 -9 28
-18 18 -19 33 -2 39 8 4 7 6 -3 6 -8 0 -21 -6 -27 -14z"/>
<path d="M3008 2353 c7 -3 16 -2 19 1 4 3 -2 6 -13 5 -11 0 -14 -3 -6 -6z"/>
<path d="M3128 2353 c7 -3 16 -2 19 1 4 3 -2 6 -13 5 -11 0 -14 -3 -6 -6z"/>
<path d="M2487 2339 c7 -7 15 -10 18 -7 3 3 -2 9 -12 12 -14 6 -15 5 -6 -5z"/>
<path d="M3238 2315 c-5 -22 -2 -25 23 -23 23 2 29 7 29 25 0 34 -46 32 -52
-2z"/>
<path d="M3000 2312 c0 -5 7 -9 15 -9 8 0 15 4 15 9 0 4 -7 8 -15 8 -8 0 -15
-4 -15 -8z"/>
<path d="M3050 2310 c0 -5 5 -10 10 -10 6 0 10 5 10 10 0 6 -4 10 -10 10 -5 0
-10 -4 -10 -10z"/>
<path d="M1731 2284 c0 -11 3 -14 6 -6 3 7 2 16 -1 19 -3 4 -6 -2 -5 -13z"/>
<path d="M3000 2278 c0 -4 7 -8 15 -8 8 0 15 4 15 8 0 5 -7 9 -15 9 -8 0 -15
-4 -15 -9z"/>
<path d="M3059 2288 c-5 -17 -4 -50 3 -54 4 -3 8 9 8 25 0 17 -2 31 -5 31 -3
0 -5 -1 -6 -2z"/>
<path d="M3135 2270 c3 -5 8 -10 11 -10 2 0 4 5 4 10 0 6 -5 10 -11 10 -5 0
-7 -4 -4 -10z"/>
<path d="M3249 2278 c-9 -30 -5 -38 17 -38 17 0 24 6 24 20 0 13 -7 20 -20 20
-11 0 -20 -1 -21 -2z"/>
<path d="M2968 2243 c7 -3 16 -2 19 1 4 3 -2 6 -13 5 -11 0 -14 -3 -6 -6z"/>
<path d="M3000 2246 c0 -2 7 -6 15 -10 8 -3 15 -1 15 4 0 6 -7 10 -15 10 -8 0
-15 -2 -15 -4z"/>
<path d="M3130 2241 c0 -5 6 -11 13 -14 8 -3 14 1 14 9 0 8 -6 14 -14 14 -7 0
-13 -4 -13 -9z"/>
<path d="M2827 2213 c-10 -10 -8 -23 4 -23 5 0 7 5 3 12 -5 8 -2 9 10 5 10 -4
15 -3 11 3 -7 12 -19 13 -28 3z"/>
<path d="M3264 2201 c4 -5 0 -12 -6 -14 -7 -3 -3 -6 10 -6 13 -1 22 5 22 14 0
8 -7 15 -16 15 -8 0 -13 -4 -10 -9z"/>
<path d="M1845 2170 c-3 -5 -1 -10 4 -10 6 0 11 5 11 10 0 6 -2 10 -4 10 -3 0
-8 -4 -11 -10z"/>
<path d="M2760 2163 c0 -5 5 -15 10 -23 7 -12 9 -10 7 8 -1 19 -17 33 -17 15z"/>
<path d="M3220 2135 c0 -8 6 -15 14 -15 8 0 21 -3 30 -6 10 -4 16 -1 16 9 0 8
-10 17 -22 21 -34 9 -38 8 -38 -9z"/>
<path d="M2136 2066 c3 -9 13 -16 22 -16 8 0 13 1 11 3 -2 1 -12 9 -22 16 -15
12 -17 12 -11 -3z"/>
<path d="M2235 2066 c-18 -13 -17 -14 12 -13 24 1 29 5 21 14 -13 16 -10 16
-33 -1z"/>
<path d="M2797 2066 c-7 -18 22 -31 37 -16 7 7 5 10 -8 10 -9 0 -14 5 -11 10
3 6 2 10 -3 10 -6 0 -12 -6 -15 -14z"/>
<path d="M2110 2050 c0 -5 5 -10 11 -10 5 0 7 5 4 10 -3 6 -8 10 -11 10 -2 0
-4 -4 -4 -10z"/>
<path d="M1908 1988 c5 -36 16 -36 19 0 1 17 -3 29 -11 29 -8 0 -11 -10 -8
-29z"/>
<path d="M2330 1969 c0 -18 2 -19 15 -5 8 8 15 17 15 20 0 3 -7 6 -15 6 -9 0
-15 -9 -15 -21z"/>
<path d="M3306 1965 c-3 -8 -1 -15 4 -15 6 0 10 7 10 15 0 8 -2 15 -4 15 -2 0
-6 -7 -10 -15z"/>
<path d="M3375 1870 c-3 -6 1 -7 9 -4 18 7 21 14 7 14 -6 0 -13 -4 -16 -10z"/>
<path d="M3590 1872 c0 -12 19 -26 26 -19 2 2 -2 10 -11 17 -9 8 -15 8 -15 2z"/>
<path d="M3410 1806 c0 -2 16 -6 35 -8 19 -2 35 0 35 4 0 4 -16 8 -35 8 -19 0
-35 -2 -35 -4z"/>
<path d="M3585 1700 c27 -12 43 -12 25 0 -8 5 -22 9 -30 9 -10 0 -8 -3 5 -9z"/>
<path d="M3330 1589 c0 -5 5 -7 10 -4 6 3 10 8 10 11 0 2 -4 4 -10 4 -5 0 -10
-5 -10 -11z"/>
</g>
</svg>
