<?xml version="1.0" standalone="no"?>
<!DOCTYPE svg PUBLIC "-//W3C//DTD SVG 20010904//EN"
 "http://www.w3.org/TR/2001/REC-SVG-20010904/DTD/svg10.dtd">
<svg version="1.0" xmlns="http://www.w3.org/2000/svg"
 width="1250.000000pt" height="703.000000pt" viewBox="0 0 1250.000000 703.000000"
 preserveAspectRatio="xMidYMid meet">

<g transform="translate(0.000000,703.000000) scale(0.100000,-0.100000)"
fill="#000000" stroke="none">
<path d="M0 3515 l0 -3515 6250 0 6250 0 0 3515 0 3515 -2266 0 c-2126 0
-2266 -1 -2260 -17 6 -14 3 -14 -15 3 -15 13 -23 15 -26 7 -2 -7 -10 -11 -16
-9 -7 1 -9 1 -4 -1 14 -9 7 -23 -13 -23 -11 0 -20 5 -20 10 0 6 -9 10 -20 10
-11 0 -20 -4 -20 -10 0 -5 9 -10 20 -10 11 0 20 -4 20 -10 0 -5 8 -10 17 -10
9 0 14 -3 11 -6 -4 -3 -22 -1 -42 4 -31 9 -38 8 -46 -7 -5 -10 -6 -21 -3 -25
3 -3 2 -6 -3 -7 -31 -2 -67 -9 -71 -12 -10 -10 21 -45 36 -40 13 4 14 3 2 -5
-8 -6 -20 -8 -28 -5 -7 3 -13 -2 -13 -11 0 -9 -7 -16 -15 -16 -8 0 -15 7 -15
15 0 8 -4 15 -9 15 -17 0 -23 -20 -11 -35 6 -8 8 -19 4 -26 -5 -8 -9 -7 -16 5
-13 23 -49 20 -55 -4 -9 -32 -34 -25 -28 8 3 15 2 20 -2 12 -13 -30 -33 -43
-47 -31 -11 9 -15 7 -19 -9 -4 -16 -13 -20 -46 -20 -34 0 -41 -3 -41 -20 0
-27 -16 -25 -23 2 -6 21 -7 21 -26 4 -11 -10 -25 -15 -30 -11 -20 12 -36 -7
-17 -20 15 -12 15 -13 -1 -26 -9 -8 -14 -9 -10 -3 7 12 -69 51 -80 41 -3 -4 1
-7 10 -7 9 0 17 -4 17 -10 0 -5 -22 -8 -50 -7 -27 1 -45 4 -40 5 15 5 12 32
-3 32 -7 0 -23 -7 -36 -16 -21 -15 -23 -15 -37 5 -9 12 -20 19 -25 15 -6 -3
-13 3 -16 15 -3 12 -9 21 -14 21 -12 0 -11 -37 1 -45 12 -8 13 -35 1 -35 -5 0
-12 17 -16 37 l-7 37 -19 -24 c-19 -25 -19 -25 -35 -5 -8 11 -20 19 -25 17 -5
-1 -9 2 -9 8 0 5 -5 10 -12 10 -9 0 -9 -3 0 -12 15 -15 16 -38 2 -38 -5 0 -10
5 -10 11 0 6 -7 18 -16 26 -12 12 -18 13 -23 4 -4 -6 -15 -9 -24 -5 -9 3 -14
10 -11 15 3 5 -4 5 -18 0 -32 -12 -83 -2 -107 20 -16 15 -25 17 -40 9 -27 -14
-31 -13 -31 10 0 11 -4 20 -10 20 -5 0 -10 -5 -10 -11 0 -8 -15 -10 -44 -7
-24 3 -51 1 -60 -4 -10 -5 -30 -5 -53 1 -26 7 -41 7 -50 -1 -10 -8 -13 -7 -13
6 0 9 -4 16 -10 16 -5 0 -10 -4 -10 -8 0 -5 -27 -9 -60 -10 -46 -1 -60 2 -60
12 0 8 10 16 23 19 12 2 1 4 -25 3 -39 -1 -48 -4 -48 -18 0 -10 -6 -18 -14
-18 -8 0 -17 -6 -19 -12 -3 -7 -6 -8 -6 -2 -1 6 -23 9 -62 6 -45 -3 -60 -1
-55 7 7 11 -15 41 -30 41 -5 0 -3 -5 4 -12 18 -18 15 -28 -8 -28 -10 0 -24 8
-30 18 -9 13 -10 10 -5 -18 4 -27 3 -30 -4 -14 -11 26 -37 37 -59 25 -10 -6
-22 -3 -36 10 -26 24 -35 24 -29 -1 3 -11 1 -20 -5 -20 -11 0 -34 25 -28 31 7
6 -99 3 -109 -3 -14 -9 -42 13 -48 37 -4 18 -5 18 -6 -2 -1 -27 -28 -31 -46
-7 -10 15 -13 15 -28 0 -12 -13 -26 -15 -52 -10 -24 4 -35 3 -35 -6 0 -6 -11
-3 -26 9 -32 25 -54 27 -54 5 0 -13 -2 -13 -21 -1 -26 19 -62 11 -55 -12 4
-11 1 -10 -9 4 -14 17 -17 18 -25 5 -9 -13 -11 -13 -20 0 -9 13 -11 13 -20 0
-5 -8 -10 -10 -10 -4 0 6 -17 14 -37 17 -21 3 -46 8 -55 12 -14 6 -18 2 -18
-16 0 -26 -16 -15 -22 15 -1 11 -11 20 -20 22 -15 2 -16 -1 -8 -17 13 -23 3
-25 -22 -2 -17 15 -19 15 -40 -3 -21 -19 -21 -19 -16 1 4 18 1 20 -39 16 -36
-2 -43 0 -43 15 -1 18 -1 18 -14 2 -16 -22 -42 -23 -50 -3 -7 19 -112 21 -119
3 -4 -10 -8 -10 -15 1 -6 8 -19 12 -30 9 -15 -4 -19 -2 -15 9 5 12 -3 14 -38
13 -24 -1 -48 -1 -54 0 -5 1 -17 2 -26 1 -9 -1 -19 7 -22 19 -5 20 -41 28 -51
11 -3 -5 -15 -7 -26 -4 -19 5 -20 6 -3 19 15 11 -360 13 -2239 14 l-2258 0 0
-3515z m7848 3431 c-7 -8 -15 -12 -17 -11 -5 6 10 25 20 25 5 0 4 -6 -3 -14z
m-3178 -12 c0 -14 -3 -14 -15 -4 -8 7 -15 14 -15 16 0 2 7 4 15 4 8 0 15 -7
15 -16z m3122 -36 c-9 -9 -15 -9 -24 0 -9 9 -7 12 12 12 19 0 21 -3 12 -12z
m-2372 -38 c0 -5 -4 -10 -10 -10 -5 0 -10 5 -10 10 0 6 5 10 10 10 6 0 10 -4
10 -10z m1300 -60 c0 -5 -7 -10 -16 -10 -8 0 -12 5 -9 10 3 6 10 10 16 10 5 0
9 -4 9 -10z m190 -45 c0 -8 -4 -15 -10 -15 -5 0 -10 7 -10 15 0 8 5 15 10 15
6 0 10 -7 10 -15z m-2750 -943 c52 -163 131 -409 175 -545 l81 -248 -44 -57
c-165 -210 -311 -483 -391 -732 -29 -91 -56 -173 -60 -183 -6 -18 -51 114
-356 1058 -59 182 -153 472 -210 645 -56 173 -105 325 -109 338 l-7 22 413 0
413 0 95 -298z m5125 281 c-6 -16 -152 -463 -558 -1710 -66 -205 -124 -373
-128 -373 -3 0 -9 17 -13 39 -10 63 -81 268 -135 388 -73 164 -187 353 -300
498 l-47 60 47 145 c75 231 265 818 290 898 l23 72 414 0 c390 0 414 -1 407
-17z m-6474 -113 c9 -30 51 -161 94 -290 42 -129 119 -363 170 -520 291 -888
505 -1551 505 -1563 0 -4 -56 -7 -124 -7 -122 0 -125 1 -128 23 l-3 22 -272 3
-273 2 0 -55 0 -55 238 -2 237 -3 0 -70 0 -70 -237 -3 -238 -2 0 -58 0 -57 85
0 c60 0 85 4 85 12 0 9 7 10 26 3 14 -6 88 -10 165 -10 126 0 141 2 159 20 11
11 20 33 20 50 l0 30 169 0 169 0 11 -30 c10 -29 12 -30 74 -30 58 0 66 -3 81
-25 25 -38 109 -58 222 -53 52 2 99 9 105 15 17 17 -19 120 -45 127 -12 3 -71
6 -131 6 -119 0 -213 18 -255 49 -88 63 -104 197 -33 281 52 62 144 90 301 93
l101 2 21 95 c28 126 103 345 152 445 81 163 161 295 180 295 16 0 17 -3 8
-21 -15 -26 -5 -37 20 -21 24 15 33 15 24 1 -4 -8 3 -9 24 -4 l30 6 48 -145
c46 -142 48 -145 73 -140 14 3 36 7 49 10 12 2 22 10 22 17 0 14 35 47 50 47
6 0 10 4 10 9 0 16 109 52 164 54 28 1 57 8 64 15 7 6 21 12 30 12 20 0 93 50
87 60 -2 4 -26 10 -52 14 -87 12 -85 27 2 20 74 -6 79 -5 60 10 -20 15 -19 15
8 16 30 0 33 8 15 33 -11 14 -19 15 -48 7 -19 -5 -64 -11 -100 -11 -67 -1
-143 -15 -105 -19 11 -1 15 -4 8 -6 -6 -3 -33 2 -59 11 -30 10 -51 12 -57 6
-9 -9 -63 1 -76 15 -3 4 5 3 19 -1 l25 -8 -25 22 -25 21 29 -10 c30 -11 372
-13 362 -3 -10 10 -202 24 -326 24 -43 0 -58 2 -45 8 17 7 16 9 -13 13 -17 2
-32 1 -32 -4 0 -17 -17 -7 -28 17 -6 14 -17 25 -24 25 -7 0 -19 9 -25 19 -18
29 -73 53 -106 45 -20 -4 -27 -3 -23 5 11 17 88 13 116 -6 14 -9 39 -29 57
-46 27 -25 43 -31 110 -38 43 -4 128 -8 188 -9 61 0 139 -6 175 -14 40 -8 108
-12 180 -10 98 3 126 8 190 32 l75 29 33 89 c18 49 40 108 48 132 l16 42 205
0 206 0 -7 48 c-4 26 -8 59 -9 74 -1 14 -5 30 -9 34 -5 4 -8 37 -8 73 0 50 6
76 23 106 26 48 93 85 151 85 51 0 116 -32 144 -70 30 -40 46 -128 33 -176 -6
-21 -8 -41 -6 -45 3 -4 1 -18 -4 -31 -4 -12 -11 -40 -15 -60 l-7 -38 225 0
224 0 44 -132 45 -133 79 -3 c43 -2 106 -10 139 -19 33 -9 71 -16 85 -15 14 1
117 3 228 6 287 6 337 15 374 62 42 52 121 75 207 58 36 -7 41 -23 9 -25 -23
-2 -23 -2 -1 -6 26 -5 47 -28 39 -42 -4 -6 -13 -8 -21 -5 -8 4 -12 10 -9 15 3
5 -2 6 -10 3 -9 -3 -16 -1 -16 5 0 6 -7 11 -15 11 -8 0 -15 4 -15 8 0 4 -16 6
-35 4 -19 -2 -35 -8 -35 -13 0 -5 -7 -9 -15 -9 -8 0 -15 -6 -15 -13 0 -7 -23
-24 -51 -36 -28 -13 -47 -26 -41 -30 5 -3 8 -14 6 -23 -1 -13 5 -18 21 -18 13
0 29 8 34 18 9 15 10 15 11 1 0 -10 -16 -23 -42 -32 -65 -25 -142 -47 -146
-42 -3 2 -14 -2 -26 -10 -11 -8 -25 -15 -31 -15 -5 0 -3 5 5 10 11 7 4 9 -25
9 -22 -1 -60 2 -85 6 -33 5 -41 4 -30 -4 8 -6 26 -11 40 -12 15 -1 9 -4 -16
-8 -48 -8 -176 -2 -170 8 2 3 -35 5 -82 3 l-87 -2 34 19 34 18 -84 7 c-85 6
-158 11 -303 21 -44 2 -82 8 -85 13 -10 14 -90 2 -85 -13 3 -6 -10 -25 -28
-41 -19 -17 -42 -41 -51 -54 -19 -27 -24 -106 -6 -95 6 4 8 14 5 22 -3 8 -2
12 3 9 4 -3 18 6 31 21 22 25 24 26 119 19 53 -3 128 -6 166 -6 l71 0 36 -107
c180 -534 231 -674 247 -667 112 48 222 61 341 40 46 -8 85 -14 86 -13 1 1 36
110 77 242 181 573 180 570 213 573 16 1 39 8 51 14 18 9 20 15 12 29 -5 11
-6 19 -1 19 10 0 114 -173 162 -270 75 -149 141 -350 180 -541 l11 -57 242 -4
c188 -4 252 -9 287 -21 24 -9 45 -15 46 -14 1 1 25 76 54 167 28 91 87 273
130 405 43 132 185 566 315 965 130 399 242 728 248 732 7 4 191 8 410 8 346
0 397 -2 397 -15 0 -8 -61 -201 -136 -428 -306 -930 -368 -1119 -490 -1492
-70 -214 -128 -392 -130 -394 -3 -3 -10 3 -17 12 -10 15 -24 17 -100 11 l-87
-7 0 -223 0 -224 245 0 245 0 0 -80 0 -80 -242 -2 -242 -3 -7 -25 c-30 -102
-62 -200 -169 -530 -67 -206 -124 -378 -127 -382 -2 -4 -25 3 -51 15 -26 13
-60 23 -77 22 -16 -1 -34 0 -40 3 -5 3 -29 7 -54 8 -25 1 -47 7 -49 13 -2 6
-10 11 -18 11 -8 0 -14 4 -14 9 0 5 -11 9 -25 9 -20 0 -25 -6 -25 -24 0 -26
-27 -42 -85 -50 -16 -2 -57 -8 -90 -13 -99 -14 -178 -32 -207 -47 -33 -17 -58
-17 -80 0 -16 12 -4 52 152 522 94 280 170 514 170 520 0 6 -29 52 -65 102
l-65 91 -100 3 -100 3 0 -127 0 -127 -76 -3 -76 -3 -13 -35 c-8 -19 -73 -222
-145 -450 -73 -228 -133 -416 -134 -417 -2 -2 -26 3 -54 9 -50 12 -52 14 -53
48 l-2 35 -7 -35 c-7 -31 -8 -33 -15 -13 -4 12 -16 25 -26 28 -11 4 -17 11
-14 16 4 5 -20 9 -54 9 -35 0 -61 -4 -61 -10 0 -6 10 -8 23 -5 19 5 22 2 22
-24 1 -26 -3 -29 -40 -34 -22 -3 -41 -2 -43 3 -5 13 -57 -41 -54 -56 2 -8 -3
-14 -9 -14 -7 0 -10 -3 -7 -6 4 -3 19 3 35 13 22 14 25 14 16 2 -7 -9 -10 -19
-6 -23 4 -4 1 -4 -8 -1 -9 3 -25 -6 -42 -24 -25 -28 -25 -30 -7 -36 22 -7 27
-25 8 -26 -7 0 -4 -4 7 -9 18 -8 16 -9 -10 -11 -109 -9 -226 -10 -318 -3 l-78
6 21 -34 c11 -19 38 -77 61 -128 22 -52 53 -109 70 -127 35 -41 38 -63 7 -56
-19 4 -15 -2 17 -31 29 -26 35 -36 22 -36 -10 0 -28 12 -41 27 -21 24 -26 26
-40 14 -9 -8 -19 -11 -22 -8 -3 3 8 15 25 28 34 25 41 43 14 35 -10 -3 -23 -2
-29 2 -29 20 -171 288 -280 529 -12 28 -28 54 -34 58 -6 3 -8 11 -5 16 4 5 1
9 -5 9 -6 0 -19 19 -29 43 -10 23 -32 59 -49 80 -42 53 -62 113 -65 205 -1 30
-8 47 -19 53 -14 8 -18 6 -19 -8 0 -11 -3 -13 -6 -5 -2 6 -9 10 -14 7 -16 -10
-46 14 -51 40 -5 21 -3 23 10 13 13 -11 14 -9 7 12 -7 23 -7 24 10 10 17 -13
18 -13 10 0 -4 8 -14 22 -20 30 -7 8 -12 22 -13 30 0 19 -26 95 -62 180 -16
36 -24 66 -19 68 4 2 3 15 -3 28 -9 18 -9 27 -1 32 12 8 -13 82 -27 82 -4 0
-18 -29 -31 -65 l-23 -65 -100 0 -101 0 -79 211 c-68 180 -81 208 -89 188 -5
-13 -38 -105 -73 -203 -74 -204 -81 -219 -96 -210 -6 4 -8 3 -4 -4 7 -12 -49
-126 -72 -145 -13 -10 -14 -9 -7 3 12 19 35 142 29 152 -3 5 -12 8 -20 8 -11
0 -14 -15 -14 -62 0 -100 -18 -153 -132 -385 -59 -120 -98 -186 -105 -179 -2
2 7 22 22 44 15 22 27 47 29 55 1 8 8 22 15 31 9 10 9 16 3 16 -6 0 -29 -24
-51 -53 -46 -60 -101 -106 -101 -84 0 8 29 40 65 71 45 40 62 62 59 74 -4 13
-3 14 4 4 7 -10 13 -7 26 13 9 14 14 30 11 35 -3 6 1 7 9 4 9 -3 16 -1 16 4 0
6 15 43 34 84 22 47 31 77 25 84 -6 8 -2 13 12 17 16 4 20 10 14 24 -5 10 -9
28 -9 41 -1 12 -5 22 -9 22 -5 0 -6 4 -2 10 3 5 -3 18 -14 29 -11 11 -18 27
-15 34 2 7 -2 31 -11 53 -14 34 -14 37 0 20 8 -11 15 -24 15 -30 0 -5 7 -18
16 -28 14 -14 14 -20 4 -33 -8 -10 -9 -15 -1 -15 6 0 11 5 11 11 0 5 3 8 8 6
4 -3 8 9 8 26 1 18 -1 24 -3 14 -4 -14 -8 -16 -19 -6 -8 6 -14 19 -14 28 0 9
-11 33 -24 54 -14 23 -22 47 -18 60 5 19 2 18 -32 -8 -35 -27 -37 -30 -20 -42
10 -7 15 -15 13 -18 -10 -9 -58 46 -53 60 4 8 11 12 17 8 6 -3 7 -1 3 5 -7 12
10 16 44 13 12 -2 12 0 1 7 -9 7 -10 12 -2 16 6 4 11 12 11 19 0 6 -7 1 -16
-11 -8 -12 -24 -22 -35 -22 -11 0 -23 -10 -29 -24 -5 -13 -14 -27 -21 -32 -9
-5 -10 -2 -5 12 5 10 12 32 17 47 4 16 13 35 20 43 7 8 7 14 1 14 -14 0 -41
-72 -57 -150 -49 -237 -68 -330 -77 -365 -5 -22 -14 -69 -20 -105 -8 -46 -13
-59 -18 -45 -6 18 -9 16 -25 -15 -14 -26 -16 -48 -12 -97 4 -38 2 -63 -3 -63
-6 0 -10 -7 -10 -15 0 -8 -7 -15 -15 -15 -8 0 -15 7 -15 15 0 8 5 15 10 15 6
0 10 7 10 17 0 33 -38 -17 -46 -60 -4 -25 -17 -51 -31 -65 -17 -15 -27 -40
-33 -80 -6 -31 -21 -96 -34 -144 -13 -49 -20 -88 -14 -88 5 0 21 9 35 20 14
11 31 20 37 20 6 0 -1 -8 -16 -18 -14 -9 -40 -27 -57 -40 -27 -20 -30 -21 -25
-5 5 14 4 15 -4 3 -6 -8 -9 -17 -6 -21 2 -4 -4 -24 -13 -45 -9 -22 -17 -51
-18 -67 -2 -15 -9 -34 -16 -43 -11 -14 -10 -18 6 -30 10 -8 15 -17 12 -21 -4
-3 -13 2 -21 12 -15 20 -32 5 -22 -20 3 -9 -1 -15 -9 -15 -8 0 -15 -4 -15 -10
0 -5 7 -7 15 -4 10 4 15 0 15 -10 0 -12 -6 -15 -25 -10 -27 7 -32 -4 -12 -25
10 -11 9 -14 -1 -18 -10 -4 -10 -9 3 -24 16 -17 16 -18 -11 -16 -19 2 -30 9
-32 21 -3 11 0 16 7 12 7 -5 9 -1 5 8 -7 19 -24 21 -25 4 -2 -37 -27 -156 -34
-169 -4 -5 -2 -9 4 -9 5 0 11 6 14 13 3 9 7 9 19 -1 9 -7 23 -10 32 -6 13 5
16 0 16 -25 0 -37 -26 -43 -40 -8 -7 17 -9 18 -9 5 -1 -21 -27 -24 -34 -5 -4
9 -8 8 -16 -3 -10 -13 -11 -13 -12 0 -1 8 -1 18 0 23 2 11 -24 8 -37 -5 -12
-12 -13 -11 -16 15 -1 6 -10 11 -20 9 -19 -4 -19 -3 -1 25 10 15 25 37 35 48
10 11 29 43 43 71 29 59 56 94 74 94 7 0 17 9 23 21 11 20 11 20 -14 4 -14
-10 -26 -13 -26 -7 0 29 23 64 58 85 31 20 44 39 67 98 17 40 30 76 30 79 1 3
6 14 12 25 17 32 27 89 14 81 -6 -4 -9 -12 -6 -17 4 -5 -2 -9 -11 -9 -10 0
-14 3 -11 6 3 4 2 14 -3 23 -7 15 -4 17 21 13 21 -3 29 0 29 11 0 8 3 22 6 31
5 13 -3 16 -47 16 -30 0 -69 -4 -88 -10 -19 -5 -31 -6 -27 -3 7 7 -44 44 -54
38 -3 -2 -7 8 -8 23 -1 14 -7 31 -12 36 -6 6 -10 18 -10 28 0 12 -13 21 -42
28 -68 18 -112 32 -123 40 -5 4 -39 23 -75 43 -36 19 -94 51 -130 72 -36 21
-98 56 -137 77 -70 38 -73 41 -73 76 -1 20 -7 60 -14 87 -13 50 -13 50 -62 57
-27 3 -78 7 -114 7 l-66 1 -47 145 -48 144 -32 -7 c-18 -4 -104 -7 -192 -7
-130 0 -167 4 -199 18 -22 9 -41 16 -43 14 -2 -2 19 -73 47 -158 27 -85 50
-156 50 -160 0 -3 -125 -6 -277 -7 -161 -1 -279 -5 -281 -11 -2 -5 -11 -7 -21
-4 -10 3 -22 0 -25 -6 -4 -6 -3 -11 2 -11 6 0 13 -7 16 -16 4 -10 -3 -8 -22 8
-24 19 -26 24 -13 30 9 4 -11 6 -44 6 -33 0 -52 -2 -43 -5 12 -3 17 -13 16
-29 -3 -32 -10 -30 -26 6 -8 17 -18 27 -24 24 -6 -4 -5 -10 3 -15 12 -8 11
-11 -1 -19 -11 -7 -16 -5 -18 11 -3 16 -9 20 -26 17 -21 -4 -26 6 -77 159
l-53 163 -158 0 -158 0 2 338 3 337 43 0 c48 0 47 -1 28 57 -36 110 -450 1369
-574 1748 -76 234 -138 427 -136 430 1 3 186 5 410 5 l408 0 17 -55z m3824
-149 c294 -52 585 -158 853 -312 48 -27 98 -59 112 -70 l25 -21 -30 18 c-51
31 -86 46 -91 41 -3 -3 -15 3 -27 13 -12 11 -26 20 -32 20 -5 1 -20 11 -32 22
-13 12 -23 19 -23 15 0 -11 -94 33 -107 49 -7 9 -17 13 -24 8 -9 -5 -6 -10 10
-16 13 -5 19 -12 15 -19 -4 -7 -3 -9 4 -5 19 11 61 -15 57 -36 -2 -10 0 -16 4
-13 5 2 14 -2 21 -10 14 -17 30 -20 30 -5 0 6 -6 10 -14 10 -7 0 -19 6 -25 14
-9 11 -4 10 23 -2 19 -9 33 -19 30 -24 -3 -4 1 -8 8 -8 11 0 11 -2 0 -9 -10
-6 -5 -11 17 -21 17 -6 35 -18 41 -25 6 -7 -42 13 -106 45 -621 312 -1367 351
-2019 106 -38 -14 -62 -20 -52 -12 22 17 22 28 -3 43 -24 16 -57 3 -137 -54
-17 -13 -37 -23 -45 -24 -10 0 -10 -2 0 -6 19 -7 14 -23 -7 -23 -11 0 -23 -5
-26 -10 -4 -6 -18 -9 -33 -8 -33 2 -103 -23 -96 -34 3 -4 3 -8 0 -8 -3 0 -7 4
-11 9 -8 14 63 60 185 121 58 28 117 58 132 66 110 59 384 140 585 174 242 41
553 41 788 1z m-352 -138 c-7 -2 -21 -2 -30 0 -10 3 -4 5 12 5 17 0 24 -2 18
-5z m-62 -22 c-11 -7 -10 -10 5 -14 10 -2 0 -5 -23 -6 -40 -1 -52 7 -36 22 3
4 20 7 37 7 22 0 27 -3 17 -9z m-151 -11 c0 -12 -8 -12 -35 0 -18 8 -17 9 8 9
15 1 27 -3 27 -9z m73 3 c-7 -2 -19 -2 -25 0 -7 3 -2 5 12 5 14 0 19 -2 13 -5z
m262 -8 c-16 -8 -25 -14 -18 -15 40 -1 169 -23 176 -29 4 -4 -23 -3 -60 2 -38
5 -170 10 -295 11 -127 0 -215 4 -200 9 15 4 92 8 172 8 92 0 138 4 125 9 -14
6 -7 7 21 3 26 -3 44 -1 48 6 4 6 19 11 34 10 l27 -1 -30 -13z m-1185 -115
c-8 -5 -22 -9 -30 -9 -10 0 -8 3 5 9 27 12 43 12 25 0z m-70 -35 c0 -2 -22
-16 -50 -30 -27 -14 -50 -23 -50 -20 0 2 21 16 48 29 53 28 52 28 52 21z
m2395 -100 l30 -25 -37 21 c-21 11 -38 23 -38 25 0 10 17 2 45 -21z m110 5
c-3 -5 -1 -10 4 -10 6 0 11 -5 11 -11 0 -8 -5 -8 -15 1 -13 11 -12 30 1 30 3
0 2 -4 -1 -10z m-2595 -124 c0 -2 -8 -10 -17 -17 -16 -13 -17 -12 -4 4 13 16
21 21 21 13z m2720 -49 c9 -15 0 -11 -29 12 -22 18 -41 35 -41 37 0 11 58 -30
70 -49z m-3323 -434 c-9 -2 -15 -9 -12 -14 4 -5 -3 -9 -15 -9 -12 0 -18 4 -15
10 3 6 -1 7 -9 4 -9 -3 -16 -1 -16 5 0 6 17 11 43 10 23 -1 34 -3 24 -6z m113
-49 c0 -8 -4 -14 -10 -14 -6 0 -6 -9 0 -24 10 -28 5 -36 -24 -36 -12 0 -16 3
-10 8 6 4 11 22 12 39 0 18 4 37 7 43 8 13 25 3 25 -16z m3380 16 c0 -5 -5
-10 -11 -10 -5 0 -7 5 -4 10 3 6 8 10 11 10 2 0 4 -4 4 -10z m89 -10 c9 0 26
-7 37 -15 18 -15 17 -16 -16 -10 -55 10 -70 16 -70 27 0 5 7 7 16 4 9 -3 23
-6 33 -6z m-3628 -27 c-11 -5 -11 -7 0 -15 12 -8 12 -9 0 -6 -22 6 -25 28 -4
27 12 0 14 -2 4 -6z m3454 -13 c-3 -5 -12 -10 -18 -10 -7 0 -6 4 3 10 19 12
23 12 15 0z m-3238 -16 c-3 -3 -12 -4 -19 -1 -8 3 -5 6 6 6 11 1 17 -2 13 -5z
m53 -4 c0 -5 -7 -10 -15 -10 -8 0 -15 5 -15 10 0 6 7 10 15 10 8 0 15 -4 15
-10z m3275 -10 c3 -5 1 -10 -4 -10 -6 0 -11 5 -11 10 0 6 2 10 4 10 3 0 8 -4
11 -10z m62 4 c-3 -3 -12 -4 -19 -1 -8 3 -5 6 6 6 11 1 17 -2 13 -5z m50 0
c-3 -3 -12 -4 -19 -1 -8 3 -5 6 6 6 11 1 17 -2 13 -5z m-3352 -24 c-3 -5 -11
-10 -16 -10 -6 0 -7 5 -4 10 3 6 11 10 16 10 6 0 7 -4 4 -10z m-288 -6 c-3 -3
-12 -4 -19 -1 -8 3 -5 6 6 6 11 1 17 -2 13 -5z m50 0 c-3 -3 -12 -4 -19 -1 -8
3 -5 6 6 6 11 1 17 -2 13 -5z m66 -27 c4 -10 -3 -12 -27 -8 -30 4 -30 5 -6 12
14 4 26 7 26 8 1 1 4 -5 7 -12z m3447 3 c0 -5 -9 -10 -21 -10 -11 0 -17 5 -14
10 3 6 13 10 21 10 8 0 14 -4 14 -10z m-3375 -10 c-3 -5 -14 -10 -23 -10 -15
0 -15 2 -2 10 20 13 33 13 25 0z m512 -26 c-3 -3 -12 -4 -19 -1 -8 3 -5 6 6 6
11 1 17 -2 13 -5z m-120 -10 c-3 -3 -12 -4 -19 -1 -8 3 -5 6 6 6 11 1 17 -2
13 -5z m-3724 -800 c9 -3 47 -99 93 -230 42 -123 80 -222 83 -219 3 3 41 106
86 228 l80 222 80 0 80 0 84 -228 c56 -149 88 -222 93 -213 4 8 37 96 73 197
36 100 72 197 80 215 l13 32 86 0 c47 0 88 -3 90 -7 3 -4 -51 -155 -118 -337
l-124 -329 -99 -3 -100 -3 -79 210 c-43 116 -82 205 -85 198 -6 -10 -58 -149
-131 -349 l-20 -58 -97 0 -96 0 -29 78 c-16 42 -71 190 -122 328 -52 138 -94
256 -94 263 0 12 144 16 173 5z m9662 -17 c122 -35 188 -84 226 -170 19 -42
24 -69 24 -142 0 -78 -4 -97 -28 -147 -30 -62 -84 -116 -146 -148 -85 -43
-141 -50 -403 -50 l-248 0 0 333 c0 184 3 337 8 342 12 13 511 -2 567 -18z
m-5111 -581 c-3 -8 -13 -17 -22 -21 -13 -5 -13 -2 3 15 21 24 26 25 19 6z m5
-97 c-18 -11 -19 -8 -12 20 5 21 7 21 16 6 6 -12 5 -20 -4 -26z m-5 -144 c-45
-52 -72 -75 -43 -37 18 23 82 92 87 92 2 0 -18 -25 -44 -55z m-1330 -161 c3
-8 2 -12 -4 -9 -6 3 -10 10 -10 16 0 14 7 11 14 -7z m-1333 -21 c-8 -15 -10
-15 -11 -2 0 17 10 32 18 25 2 -3 -1 -13 -7 -23z m249 17 c13 -9 13 -10 0 -10
-8 0 -22 5 -30 10 -13 9 -13 10 0 10 8 0 22 -5 30 -10z m260 0 c0 -5 -2 -10
-4 -10 -3 0 -8 5 -11 10 -3 6 -1 10 4 10 6 0 11 -4 11 -10z m797 -37 c-3 -10
-5 -2 -5 17 0 19 2 27 5 18 2 -10 2 -26 0 -35z m1213 13 c-8 -22 -5 -27 25
-45 19 -11 37 -31 41 -45 5 -22 -3 -35 -49 -82 -47 -46 -54 -50 -41 -24 9 17
29 40 44 52 39 29 29 51 -21 46 -27 -2 -39 0 -39 9 0 7 -7 13 -15 13 -27 0
-16 34 22 67 21 18 39 32 40 33 1 0 -2 -11 -7 -24z m-2402 -6 c-7 -10 -14 -18
-15 -16 -6 6 9 36 18 36 5 0 4 -9 -3 -20z m132 -16 c0 -8 -4 -14 -9 -14 -6 0
-9 9 -8 19 1 22 17 18 17 -5z m65 17 c3 -5 1 -12 -4 -15 -5 -3 -11 1 -15 9 -6
16 9 21 19 6z m-385 -21 c0 -5 -2 -10 -4 -10 -3 0 -8 5 -11 10 -3 6 -1 10 4
10 6 0 11 -4 11 -10z m287 -5 c0 -8 -4 -12 -9 -9 -4 3 -8 9 -8 15 0 5 4 9 8 9
5 0 9 -7 9 -15z m-215 -57 c-6 -6 -7 0 -4 19 5 21 7 23 10 9 2 -10 0 -22 -6
-28z m2477 -65 c17 -13 4 -17 -22 -7 -10 3 -13 13 -9 27 4 15 7 17 10 7 3 -8
12 -20 21 -27z m-41 -21 c6 -18 -15 -14 -22 4 -4 10 -1 14 6 12 6 -2 14 -10
16 -16z m47 -142 c-16 -16 -31 -28 -33 -25 -7 7 39 55 52 55 5 0 -3 -13 -19
-30z m-5 -127 c-11 -17 -11 -17 -6 0 3 10 6 24 7 30 0 9 2 9 5 0 3 -7 0 -20
-6 -30z m-1073 5 c-3 -8 -6 -5 -6 6 -1 11 2 17 5 13 3 -3 4 -12 1 -19z m137 6
c5 -14 4 -15 -9 -4 -17 14 -19 20 -6 20 5 0 12 -7 15 -16z m134 -19 c-3 -3 -9
2 -12 12 -6 14 -5 15 5 6 7 -7 10 -15 7 -18z m23 2 c-10 -9 -11 -8 -5 6 3 10
9 15 12 12 3 -3 0 -11 -7 -18z m105 3 c0 -12 -4 -16 -9 -11 -5 5 -6 14 -3 20
10 15 12 14 12 -9z m34 0 c0 -5 -2 -10 -4 -10 -3 0 -8 5 -11 10 -3 6 -1 10 4
10 6 0 11 -4 11 -10z m135 -40 c-7 -11 -45 9 -45 23 0 4 5 5 10 2 6 -3 10 -1
10 5 0 7 7 5 16 -4 8 -9 13 -20 9 -26z m-404 -7 c13 -16 12 -17 -3 -4 -17 13
-22 21 -14 21 2 0 10 -8 17 -17z m869 -48 c-12 -25 -26 -45 -31 -45 -5 0 0 14
11 32 10 17 17 35 14 40 -3 4 0 8 5 8 6 0 10 3 10 8 -3 16 3 26 8 14 2 -6 -5
-32 -17 -57z m2203 35 c3 -11 1 -20 -4 -20 -5 0 -9 9 -9 20 0 11 2 20 4 20 2
0 6 -9 9 -20z m53 -5 c-8 -8 -18 -15 -22 -15 -3 0 -1 7 6 15 7 8 17 15 22 15
5 0 3 -7 -6 -15z m-3071 -32 c4 -15 2 -23 -5 -23 -6 0 -8 5 -5 10 3 6 2 10 -4
10 -5 0 -9 9 -8 20 1 23 12 15 22 -17z m45 27 c0 -5 -2 -10 -4 -10 -3 0 -8 5
-11 10 -3 6 -1 10 4 10 6 0 11 -4 11 -10z m213 -11 c4 -16 3 -18 -9 -8 -7 6
-11 15 -8 20 8 13 11 11 17 -12z m47 17 c0 -3 -4 -8 -10 -11 -5 -3 -10 -1 -10
4 0 6 5 11 10 11 6 0 10 -2 10 -4z m-180 -31 c7 -9 8 -15 2 -15 -5 0 -12 7
-16 15 -3 8 -4 15 -2 15 2 0 9 -7 16 -15z m-170 -5 c0 -5 -2 -10 -4 -10 -3 0
-8 5 -11 10 -3 6 -1 10 4 10 6 0 11 -4 11 -10z m221 -37 l24 -26 -27 19 c-15
10 -28 22 -28 27 0 12 5 8 31 -20z m310 9 c-7 -2 -18 1 -23 6 -8 8 -4 9 13 5
13 -4 18 -8 10 -11z m2394 8 c-3 -5 -12 -10 -18 -10 -7 0 -6 4 3 10 19 12 23
12 15 0z m-2898 -42 c-3 -8 -6 -5 -6 6 -1 11 2 17 5 13 3 -3 4 -12 1 -19z
m763 12 c-8 -5 -19 -10 -25 -10 -5 0 -3 5 5 10 8 5 20 10 25 10 6 0 3 -5 -5
-10z m-1875 -28 c-3 -3 -11 0 -18 7 -9 10 -8 11 6 5 10 -3 15 -9 12 -12z
m1635 3 c11 -13 10 -14 -4 -9 -9 3 -16 10 -16 15 0 13 6 11 20 -6z m-2035 -5
c3 -5 1 -10 -4 -10 -6 0 -11 5 -11 10 0 6 2 10 4 10 3 0 8 -4 11 -10z m592 -6
c-3 -3 -12 -4 -19 -1 -8 3 -5 6 6 6 11 1 17 -2 13 -5z m4133 -14 c0 -5 -5 -10
-11 -10 -5 0 -7 5 -4 10 3 6 8 10 11 10 2 0 4 -4 4 -10z m-180 -50 c0 -5 -2
-10 -4 -10 -2 0 -12 -3 -22 -7 -16 -6 -17 -5 -4 10 17 19 30 22 30 7z m-91
-16 c10 -9 -35 -3 -49 6 -11 8 -7 9 15 4 17 -4 32 -8 34 -10z m-416 -24 c8 0
8 -3 0 -11 -13 -13 -43 -5 -43 12 0 6 7 8 16 5 9 -3 21 -6 27 -6z m332 -70 c3
-5 -1 -10 -9 -10 -9 0 -16 5 -16 10 0 6 4 10 9 10 6 0 13 -4 16 -10z m30 0 c3
-5 1 -10 -4 -10 -6 0 -11 5 -11 10 0 6 2 10 4 10 3 0 8 -4 11 -10z m-167 -37
c-16 -2 -40 -2 -55 0 -16 2 -3 4 27 4 30 0 43 -2 28 -4z m-2827 -60 c13 -16
12 -17 -3 -4 -17 13 -22 21 -14 21 2 0 10 -8 17 -17z m197 -162 c39 -29 72
-55 72 -57 0 -14 -119 76 -183 138 -40 39 -42 42 -8 12 25 -22 79 -64 119 -93z
m-18 51 c0 -7 -56 36 -75 59 -11 12 1 5 28 -16 26 -22 47 -41 47 -43z m2827
-20 c-9 -10 -51 -42 -94 -70 -81 -55 -73 -47 37 37 72 54 81 60 57 33z m-2677
-87 c0 -8 -66 35 -100 65 -22 19 -11 14 33 -16 37 -25 67 -47 67 -49z m2352 3
c3 -7 20 -13 39 -15 74 -6 74 -6 71 -54 -6 -71 -21 -82 -22 -16 0 39 -4 56
-11 52 -7 -5 -8 -28 -4 -66 4 -33 3 -59 -2 -59 -5 0 -10 12 -10 28 0 15 -5 45
-11 67 -9 35 -10 31 -5 -29 4 -49 3 -67 -5 -62 -6 3 -11 14 -11 24 0 36 -14
101 -21 97 -4 -3 -6 -23 -4 -45 2 -22 -1 -40 -6 -40 -6 0 -10 20 -10 44 0 25
-4 47 -8 50 -8 5 -16 -63 -15 -126 0 -40 -25 -35 -32 5 -4 21 -1 48 8 70 9 19
13 38 10 40 -3 3 -2 15 2 26 7 23 41 29 47 9z m-2352 -45 c0 -7 -39 17 -46 28
-3 6 5 3 20 -6 14 -10 26 -19 26 -22z m212 13 c-2 -11 0 -22 5 -25 5 -3 6 -17
2 -31 -7 -25 -7 -25 -8 4 -1 19 -5 27 -14 23 -8 -3 -14 1 -14 9 0 7 4 11 9 8
4 -3 8 0 8 5 0 6 -4 11 -10 11 -5 0 -10 5 -10 11 0 6 8 9 18 7 10 -2 16 -11
14 -22z m2350 -28 c-6 -7 -25 -22 -44 -32 -39 -23 -32 -13 14 20 38 26 45 29
30 12z m-202 -111 c0 -18 -2 -19 -10 -7 -13 20 -13 43 0 35 6 -3 10 -16 10
-28z m50 -1 c0 -3 -4 -8 -10 -11 -5 -3 -10 -1 -10 4 0 6 5 11 10 11 6 0 10 -2
10 -4z m-175 -76 c-3 -5 -12 -10 -18 -10 -7 0 -6 4 3 10 19 12 23 12 15 0z
m-45 -20 c-8 -5 -19 -10 -25 -10 -5 0 -3 5 5 10 8 5 20 10 25 10 6 0 3 -5 -5
-10z m-50 -20 c-8 -5 -19 -10 -25 -10 -5 0 -3 5 5 10 8 5 20 10 25 10 6 0 3
-5 -5 -10z m-50 -20 c-8 -5 -19 -10 -25 -10 -5 0 -3 5 5 10 8 5 20 10 25 10 6
0 3 -5 -5 -10z m-293 -86 c-3 -3 -12 -4 -19 -1 -8 3 -5 6 6 6 11 1 17 -2 13
-5z m-3111 -50 c-17 -8 -22 -7 -28 8 -4 11 -13 15 -23 12 -8 -3 -15 -1 -15 6
0 6 5 8 10 5 6 -3 10 -2 10 3 0 5 15 2 33 -7 31 -15 32 -17 13 -27z m3001 30
c-3 -3 -12 -4 -19 -1 -8 3 -5 6 6 6 11 1 17 -2 13 -5z m-289 -31 c-16 -2 -40
-2 -55 0 -16 2 -3 4 27 4 30 0 43 -2 28 -4z"/>
<path d="M6180 5180 c-19 -3 -44 -10 -54 -16 -18 -11 -18 -13 -4 -27 12 -12
18 -13 28 -4 9 8 11 8 7 1 -4 -7 0 -17 8 -24 12 -10 18 -10 30 0 9 7 15 8 15
2 0 -12 -56 -33 -64 -25 -17 17 -3 -14 16 -36 13 -14 16 -20 8 -13 -8 6 -18
12 -23 12 -4 0 -5 -6 0 -12 4 -7 8 -19 9 -26 3 -18 14 -29 14 -13 0 6 12 16
27 22 19 7 23 13 15 18 -10 6 -9 14 2 37 8 16 17 45 21 65 8 42 -1 48 -55 39z"/>
<path d="M6265 5180 c-4 -6 -4 -22 -1 -36 5 -17 13 -24 32 -24 13 0 27 7 30
15 4 8 10 12 15 9 19 -11 30 8 12 21 -27 19 -80 28 -88 15z"/>
<path d="M6290 5094 c0 -5 7 -19 15 -30 8 -10 15 -14 15 -8 0 5 -7 19 -15 30
-8 10 -15 14 -15 8z"/>
<path d="M6330 5080 c0 -5 5 -10 10 -10 6 0 10 5 10 10 0 6 -4 10 -10 10 -5 0
-10 -4 -10 -10z"/>
<path d="M6122 5020 c0 -19 2 -27 5 -17 2 9 2 25 0 35 -3 9 -5 1 -5 -18z"/>
<path d="M6366 5042 c-3 -5 -1 -22 4 -38 8 -29 8 -29 9 9 1 36 -3 45 -13 29z"/>
<path d="M6236 5027 c6 -16 -12 -33 -40 -38 -10 -2 -23 -14 -27 -27 -5 -14 -5
-21 1 -17 5 3 13 -3 19 -12 8 -14 9 -11 5 15 -5 26 -4 31 9 27 8 -4 13 -14 10
-24 -3 -11 2 -21 11 -24 9 -4 16 -14 16 -22 0 -22 -37 -10 -70 23 -20 20 -26
21 -28 8 -2 -8 3 -28 12 -43 15 -28 40 -78 59 -120 6 -13 15 -23 20 -23 22 0
96 104 83 117 -3 3 1 12 9 20 8 8 15 22 15 30 0 13 -5 12 -25 -7 -21 -20 -27
-21 -42 -9 -11 9 -14 10 -9 2 4 -7 2 -13 -3 -13 -17 0 -13 19 9 37 24 21 26
33 3 33 -15 0 -14 2 3 15 19 14 19 14 -1 16 -11 1 -24 1 -29 0 -10 -2 12 29
29 41 6 4 -2 8 -17 8 -19 0 -26 -4 -22 -13z"/>
<path d="M6307 5024 c23 -17 30 -17 30 -1 0 6 -11 13 -24 13 -22 2 -23 1 -6
-12z"/>
<path d="M6306 4977 c3 -10 9 -15 12 -12 3 3 0 11 -7 18 -10 9 -11 8 -5 -6z"/>
<path d="M6055 4834 c-46 -27 -31 -33 18 -7 18 9 35 16 40 15 4 -1 7 3 7 8 0
15 -21 10 -65 -16z"/>
<path d="M6360 4810 c20 -13 33 -13 25 0 -3 6 -14 10 -23 10 -15 0 -15 -2 -2
-10z"/>
<path d="M6160 4803 c0 -19 11 -43 21 -43 13 0 11 14 -6 36 -8 10 -15 14 -15
7z"/>
<path d="M6301 4791 c-12 -21 -6 -27 16 -13 7 5 9 13 4 21 -7 11 -11 9 -20 -8z"/>
<path d="M6694 4726 c-19 -15 -19 -15 1 -14 11 0 36 -2 56 -6 23 -5 39 -4 43
3 5 7 -4 11 -24 11 -18 0 -29 4 -25 10 9 15 -29 12 -51 -4z"/>
<path d="M6628 4723 c6 -2 18 -2 25 0 6 3 1 5 -13 5 -14 0 -19 -2 -12 -5z"/>
<path d="M5721 4711 c-62 -6 -64 -7 -47 -23 10 -10 34 -19 54 -19 30 -2 32 -3
10 -6 -16 -2 -28 -9 -28 -15 0 -6 -9 -8 -20 -5 -11 3 -23 1 -26 -4 -3 -5 0 -9
5 -9 6 0 11 -5 11 -11 0 -7 -17 -10 -45 -7 -25 2 -45 0 -45 -4 0 -5 -5 -8 -11
-8 -20 0 -3 24 22 31 22 7 23 7 2 8 -21 1 -53 -22 -53 -39 0 -4 23 -11 50 -15
29 -4 47 -11 44 -17 -4 -6 28 -7 92 -3 94 7 101 6 128 -16 27 -21 66 -33 66
-20 0 3 -12 30 -27 59 -17 32 -34 52 -45 52 -9 0 -20 5 -23 10 -4 7 3 9 22 5
25 -5 24 -4 -7 11 -19 9 -30 18 -23 21 20 7 3 33 -21 31 -11 -1 -50 -4 -85 -7z"/>
<path d="M5910 4700 c25 -4 86 -10 135 -13 l90 -6 -90 14 c-49 7 -110 13 -135
13 l-45 -1 45 -7z"/>
<path d="M6808 4693 c7 -3 16 -2 19 1 4 3 -2 6 -13 5 -11 0 -14 -3 -6 -6z"/>
<path d="M6888 4693 c7 -3 16 -2 19 1 4 3 -2 6 -13 5 -11 0 -14 -3 -6 -6z"/>
<path d="M5225 4650 c-3 -5 -1 -10 4 -10 6 0 11 5 11 10 0 6 -2 10 -4 10 -3 0
-8 -4 -11 -10z"/>
<path d="M7748 4653 c6 -2 18 -2 25 0 6 3 1 5 -13 5 -14 0 -19 -2 -12 -5z"/>
<path d="M5948 4633 c12 -2 30 -2 40 0 9 3 -1 5 -23 4 -22 0 -30 -2 -17 -4z"/>
<path d="M6350 4590 c-8 -5 -10 -10 -5 -10 6 0 17 5 25 10 8 5 11 10 5 10 -5
0 -17 -5 -25 -10z"/>
<path d="M6473 4419 c-14 -14 -84 -29 -141 -31 -23 0 -45 -5 -48 -9 -9 -15
-22 -10 -27 9 -4 13 -5 11 -6 -5 -1 -28 -11 -29 -39 -2 -12 11 -27 17 -32 14
-6 -4 -44 1 -86 11 -74 16 -77 16 -102 -3 -33 -25 -40 -60 -15 -78 10 -8 15
-15 11 -15 -4 0 0 -9 9 -19 9 -11 21 -18 27 -15 6 3 3 -1 -6 -9 -16 -13 -15
-16 11 -41 33 -32 46 -66 26 -66 -15 0 -55 51 -55 69 0 6 -9 11 -20 11 -16 0
-20 -7 -20 -34 0 -19 5 -38 10 -41 6 -3 17 -21 26 -38 l15 -32 -22 25 c-19 21
-21 22 -16 5 3 -11 9 -39 12 -62 4 -24 10 -45 14 -47 4 -3 6 -25 5 -50 -3 -48
13 -73 23 -37 3 12 9 21 14 21 12 0 11 -17 -1 -25 -5 -3 -10 -12 -10 -18 1 -7
10 -1 20 12 11 13 20 19 20 14 0 -4 18 -16 40 -25 30 -14 49 -16 84 -9 26 5
49 4 54 -1 5 -5 39 -6 75 -2 64 6 84 18 52 30 -8 4 -15 11 -15 16 0 15 -48 58
-64 58 -23 0 -29 33 -10 47 24 17 28 17 85 -9 44 -20 50 -27 56 -60 6 -43 19
-47 57 -17 17 13 26 30 26 48 0 15 4 31 9 36 11 12 30 110 36 190 3 33 12 79
21 103 l16 43 -28 24 c-31 26 -72 33 -91 14z m-198 -93 c0 -11 -8 -20 -17 -22
-18 -2 -32 21 -22 37 10 17 39 5 39 -15z m-33 -43 c12 -11 21 -12 37 -4 27 15
105 -14 81 -29 -22 -14 -88 -12 -93 3 -2 6 -7 -11 -11 -40 -4 -29 -5 -57 -2
-62 4 -6 4 -21 0 -35 -5 -22 -8 -23 -30 -11 -16 8 -37 10 -59 5 -28 -6 -35 -4
-46 16 -15 29 2 55 32 47 15 -4 22 0 26 16 4 16 13 21 39 21 24 0 34 5 34 15
0 11 -12 15 -44 15 -25 0 -48 -4 -51 -10 -3 -5 -15 -10 -26 -10 -11 0 -22 -7
-25 -15 -8 -21 -15 -19 -52 11 -38 31 -41 45 -9 37 42 -10 82 -2 107 21 40 38
56 39 92 9z m284 -38 c-9 -9 -14 -20 -11 -24 2 -4 -9 -20 -24 -35 -16 -15 -31
-24 -34 -19 -6 10 73 107 80 99 3 -3 -2 -12 -11 -21z m-85 -15 c5 0 9 -5 9
-11 0 -5 -4 -8 -9 -5 -5 4 -11 0 -13 -6 -3 -8 -10 -4 -17 11 -12 21 -11 23 4
18 9 -4 21 -7 26 -7z m-416 -75 c24 -43 12 -59 -12 -16 -10 17 -22 31 -26 31
-5 0 -5 5 -2 10 11 17 21 11 40 -25z m331 10 c42 -25 64 -51 64 -75 0 -13 -66
-5 -85 9 -19 15 -46 21 -39 10 4 -7 1 -10 -7 -7 -15 5 -24 50 -15 74 8 21 34
17 82 -11z m154 -11 c-18 -21 -24 -10 -8 15 7 12 14 17 16 11 2 -6 -2 -17 -8
-26z m-266 -110 c10 -27 7 -94 -5 -94 -6 0 -9 9 -6 19 3 14 -2 21 -19 25 -13
4 -24 13 -24 21 0 21 -13 19 -28 -5 -7 -11 -17 -20 -22 -20 -17 0 18 58 37 63
37 10 61 6 67 -9z m-214 -14 c0 -5 -7 -10 -16 -10 -8 0 -12 5 -9 10 3 6 10 10
16 10 5 0 9 -4 9 -10z"/>
<path d="M4653 4296 c2 -6 11 -12 20 -14 11 -2 15 1 12 11 -7 16 -37 19 -32 3z"/>
<path d="M4670 4253 c0 -10 49 -167 116 -375 l26 -78 196 1 c113 1 182 5 162
9 -19 4 -30 8 -25 9 19 4 -30 20 -63 20 -18 1 -35 7 -38 15 -3 8 -23 17 -45
21 -21 4 -40 11 -40 16 -3 20 -5 25 -23 52 l-19 28 -14 -32 -13 -32 -20 23
c-11 13 -20 31 -20 42 0 10 -13 32 -30 50 -23 23 -30 40 -30 69 0 38 -13 52
-23 27 -3 -8 -6 -6 -6 5 -1 9 -8 17 -16 17 -8 0 -15 5 -15 11 0 5 -3 8 -8 5
-4 -2 -6 13 -4 35 3 31 0 40 -14 46 -11 3 -22 11 -26 17 -5 8 -8 7 -8 -1z
m438 -440 c-10 -2 -28 -2 -40 0 -13 2 -5 4 17 4 22 1 32 -1 23 -4z"/>
<path d="M6249 3864 c-11 -13 -2 -44 13 -44 6 0 7 8 3 18 -5 14 -4 15 6 5 7
-7 25 -13 40 -13 22 0 26 4 22 19 -6 22 -68 34 -84 15z"/>
<path d="M6450 3851 c5 -11 15 -23 21 -27 6 -3 3 5 -6 20 -20 30 -30 35 -15 7z"/>
<path d="M6085 3840 c-3 -5 -1 -10 4 -10 6 0 11 5 11 10 0 6 -2 10 -4 10 -3 0
-8 -4 -11 -10z"/>
<path d="M6168 3843 c6 -2 18 -2 25 0 6 3 1 5 -13 5 -14 0 -19 -2 -12 -5z"/>
<path d="M6005 3800 c-14 -15 -21 -17 -32 -8 -21 17 -53 -24 -69 -90 -17 -73
-18 -90 -3 -75 20 20 35 -8 34 -63 -2 -48 40 -214 54 -214 6 0 29 60 114 300
28 80 56 148 61 152 7 5 6 8 -2 8 -8 0 -16 -9 -19 -20 -3 -11 -10 -20 -15 -20
-6 0 -8 8 -6 18 4 15 1 18 -18 14 -13 -2 -32 2 -41 9 -12 10 -14 10 -9 2 4 -8
2 -13 -4 -13 -6 0 -8 -5 -4 -12 6 -10 5 -10 -8 -1 -8 7 -19 9 -23 5 -5 -4 -5
-1 -1 6 4 7 12 9 18 6 7 -4 8 -2 4 4 -9 16 -10 15 -31 -8z m41 -62 c3 -4 -1
-5 -10 -4 -8 1 -18 5 -22 8 -3 4 1 5 10 4 8 -1 18 -5 22 -8z m-46 -198 c0 -5
-5 -10 -11 -10 -5 0 -7 5 -4 10 3 6 8 10 11 10 2 0 4 -4 4 -10z m-36 -28 c2
-4 1 -14 -3 -21 -6 -9 -10 -7 -14 8 -5 20 7 29 17 13z"/>
<path d="M6248 3803 c6 -2 18 -2 25 0 6 3 1 5 -13 5 -14 0 -19 -2 -12 -5z"/>
<path d="M6480 3788 c0 -20 6 -27 22 -30 12 -2 23 -10 25 -18 3 -11 2 -11 -4
-3 -5 7 -18 11 -30 11 -18 -2 -19 -6 -12 -32 12 -40 11 -55 -1 -36 -5 8 -10
25 -10 36 0 12 -6 27 -14 33 -12 10 -13 8 -9 -8 5 -19 -4 -26 -29 -22 -5 0 -8
-8 -8 -20 0 -11 -5 -17 -10 -14 -6 4 -10 12 -9 18 4 33 -2 49 -16 43 -9 -3
-15 0 -15 9 0 8 -4 15 -10 15 -18 0 -11 -28 43 -173 39 -102 62 -151 85 -174
18 -17 34 -28 36 -25 2 4 24 71 50 149 l47 142 -21 41 c-17 32 -24 39 -34 30
-11 -8 -15 -5 -20 16 -5 19 -11 24 -23 20 -9 -4 -20 -1 -25 6 -5 9 -8 4 -8
-14z"/>
<path d="M9020 3746 c0 -2 8 -10 18 -17 15 -13 16 -12 3 4 -13 16 -21 21 -21
13z"/>
<path d="M9235 3694 c-16 -14 -30 -31 -31 -37 0 -7 -2 -22 -2 -34 -2 -21 -7
-23 -62 -23 l-60 0 0 -34 c0 -72 -43 -134 -115 -166 l-40 -18 50 0 c28 1 92 1
142 0 l93 -2 6 -40 c4 -24 12 -40 20 -40 8 0 14 -7 14 -16 0 -13 7 -15 31 -10
17 3 56 6 85 6 l54 0 0 213 0 213 -52 0 c-29 0 -64 3 -78 7 -19 5 -33 0 -55
-19z"/>
<path d="M3895 3669 c-64 -15 -92 -62 -61 -104 12 -17 31 -21 123 -25 l109 -5
1 73 1 72 -67 -1 c-36 -1 -84 -5 -106 -10z"/>
<path d="M7428 3656 c-49 -13 -98 -41 -98 -55 0 -14 112 -335 121 -344 11 -14
81 -11 89 4 8 12 121 354 124 374 2 13 -80 33 -139 34 -27 0 -71 -6 -97 -13z"/>
<path d="M8470 3588 l0 -58 198 0 c143 0 203 3 214 13 27 20 30 52 9 78 -19
24 -21 24 -220 25 l-201 0 0 -58z"/>
<path d="M4870 3628 c0 -7 14 -53 30 -103 l29 -90 1 103 0 102 -30 0 c-17 0
-30 -5 -30 -12z"/>
<path d="M5101 3483 l1 -158 45 130 c24 72 48 142 53 158 l9 27 -55 0 -54 0 1
-157z"/>
<path d="M6470 3390 c6 -19 10 -36 10 -37 0 -2 5 -3 10 -3 16 0 11 23 -10 50
l-20 25 10 -35z"/>
<path d="M6680 3340 c0 -27 31 -142 37 -137 4 5 -25 149 -32 156 -3 2 -5 -6
-5 -19z"/>
<path d="M9410 3108 c0 -5 26 -7 58 -7 61 1 55 6 -15 11 -24 2 -43 0 -43 -4z"/>
<path d="M5928 3003 c6 -2 9 -10 6 -15 -4 -7 -2 -8 5 -4 13 9 5 26 -12 25 -9
0 -8 -2 1 -6z"/>
<path d="M6910 2612 c0 -5 7 -15 15 -22 8 -7 15 -8 15 -2 0 5 -7 15 -15 22 -8
7 -15 8 -15 2z"/>
<path d="M7066 2300 c23 -83 244 -485 244 -444 0 5 -13 31 -30 57 -16 26 -30
49 -30 51 0 2 -19 36 -42 77 -22 41 -66 121 -95 179 -30 58 -51 94 -47 80z"/>
<path d="M7702 2290 c0 -14 2 -19 5 -12 2 6 2 18 0 25 -3 6 -5 1 -5 -13z"/>
<path d="M7760 2279 c0 -5 -4 -7 -10 -4 -5 3 -10 2 -10 -3 0 -19 26 -20 27 -1
1 10 0 19 -3 19 -2 0 -4 -5 -4 -11z"/>
<path d="M5225 1840 c-10 -11 -13 -20 -7 -20 6 0 16 9 22 20 6 11 9 20 7 20
-2 0 -12 -9 -22 -20z"/>
<path d="M7310 1826 c0 -11 30 -66 36 -66 2 0 -3 15 -12 33 -19 36 -24 44 -24
33z"/>
<path d="M7216 5603 c-4 -9 -1 -20 6 -25 22 -13 29 -9 19 11 -6 10 -7 21 -4
25 3 3 2 6 -4 6 -6 0 -14 -8 -17 -17z"/>
<path d="M10540 3466 l0 -186 148 0 c107 0 163 4 202 16 162 48 186 242 40
324 -42 24 -55 25 -217 28 l-173 4 0 -186z"/>
<path d="M7838 7023 c6 -2 18 -2 25 0 6 3 1 5 -13 5 -14 0 -19 -2 -12 -5z"/>
<path d="M5060 6960 c0 -5 5 -10 10 -10 6 0 10 5 10 10 0 6 -4 10 -10 10 -5 0
-10 -4 -10 -10z"/>
<path d="M5120 6955 c0 -8 7 -15 16 -15 14 0 14 3 4 15 -7 8 -14 15 -16 15 -2
0 -4 -7 -4 -15z"/>
<path d="M5170 6930 c0 -5 5 -10 10 -10 6 0 10 5 10 10 0 6 -4 10 -10 10 -5 0
-10 -4 -10 -10z"/>
<path d="M5281 6904 c0 -11 3 -14 6 -6 3 7 2 16 -1 19 -3 4 -6 -2 -5 -13z"/>
<path d="M5310 6905 c0 -8 5 -15 10 -15 6 0 10 7 10 15 0 8 -4 15 -10 15 -5 0
-10 -7 -10 -15z"/>
<path d="M5351 6904 c0 -11 3 -14 6 -6 3 7 2 16 -1 19 -3 4 -6 -2 -5 -13z"/>
<path d="M6190 6860 c0 -5 5 -10 10 -10 6 0 10 5 10 10 0 6 -4 10 -10 10 -5 0
-10 -4 -10 -10z"/>
<path d="M6500 6859 c0 -5 5 -7 10 -4 6 3 10 8 10 11 0 2 -4 4 -10 4 -5 0 -10
-5 -10 -11z"/>
<path d="M7570 6859 c0 -5 5 -7 10 -4 6 3 10 8 10 11 0 2 -4 4 -10 4 -5 0 -10
-5 -10 -11z"/>
<path d="M7550 6831 c0 -12 5 -21 10 -21 6 0 10 6 10 14 0 8 -4 18 -10 21 -5
3 -10 -3 -10 -14z"/>
<path d="M6801 6804 c0 -11 3 -14 6 -6 3 7 2 16 -1 19 -3 4 -6 -2 -5 -13z"/>
</g>
</svg>
