<?xml version="1.0" standalone="no"?>
<!DOCTYPE svg PUBLIC "-//W3C//DTD SVG 20010904//EN"
 "http://www.w3.org/TR/2001/REC-SVG-20010904/DTD/svg10.dtd">
<svg version="1.0" xmlns="http://www.w3.org/2000/svg"
 width="1200.000000pt" height="654.000000pt" viewBox="0 0 1200.000000 654.000000"
 preserveAspectRatio="xMidYMid meet">

<g transform="translate(0.000000,654.000000) scale(0.100000,-0.100000)"
fill="#000000" stroke="none">
<path d="M0 5945 c0 -362 4 -595 9 -595 5 0 20 -4 33 -9 13 -5 26 -8 29 -7 3
0 22 -11 42 -26 19 -16 40 -28 45 -28 15 0 23 -43 9 -52 -9 -6 -9 -10 2 -17 7
-5 10 -14 7 -20 -4 -6 -2 -11 5 -11 6 0 9 -8 6 -20 -3 -10 0 -21 6 -23 6 -2 8
-11 4 -21 -5 -12 -14 -17 -28 -13 -15 4 -18 2 -10 -7 16 -19 2 -80 -14 -66 -9
7 -20 4 -39 -11 -15 -12 -41 -23 -58 -25 -16 -2 -34 -6 -39 -9 -13 -8 -12
-225 1 -225 6 0 10 6 10 13 0 6 12 13 28 13 26 2 26 1 5 -9 -13 -5 -23 -16
-23 -24 0 -7 -7 -13 -15 -13 -8 0 -15 -7 -15 -15 0 -13 4 -13 22 -3 13 7 28
19 34 27 7 9 16 11 25 5 27 -17 40 -13 35 9 -4 14 0 11 10 -8 11 -23 14 -24
10 -7 -2 12 -1 22 4 22 4 0 11 11 14 25 4 15 13 25 24 25 16 -1 16 -1 -1 -11
-21 -12 -22 -29 -2 -29 9 0 12 -6 9 -15 -4 -8 -2 -15 4 -15 5 0 13 11 16 25 9
34 24 32 19 -2 l-3 -28 11 25 c10 21 13 22 16 7 3 -10 10 -16 16 -14 7 3 11
11 9 18 -2 9 4 7 17 -5 12 -11 21 -17 22 -15 0 2 2 14 3 26 3 30 16 42 17 17
0 -12 6 -6 14 16 l13 35 1 -36 c1 -19 5 -39 10 -45 5 -5 18 -25 29 -45 11 -20
26 -46 33 -57 11 -17 10 -30 -4 -76 -10 -31 -22 -56 -28 -56 -5 0 -8 -3 -8 -7
3 -19 -2 -34 -9 -29 -5 3 -17 -14 -26 -37 -22 -50 -82 -107 -113 -107 -12 0
-25 -5 -28 -11 -4 -6 -13 -8 -20 -5 -7 2 -18 -1 -25 -7 -10 -9 -12 -8 -7 5 4
12 2 15 -9 11 -7 -3 -14 -9 -14 -15 0 -5 -4 -7 -9 -4 -11 7 -94 -84 -116 -126
-21 -44 -23 -508 -1 -508 8 0 17 -7 20 -16 3 -8 10 -13 15 -9 23 13 18 -14 -6
-35 -20 -18 -27 -19 -34 -9 -5 8 -9 -592 -9 -1361 0 -756 4 -1370 8 -1365 13
18 51 35 77 35 24 0 24 0 19 -77 -3 -43 -6 -89 -7 -103 -1 -14 -6 -28 -11 -32
-7 -4 -6 -15 2 -30 17 -32 19 -91 4 -96 -17 -5 -15 -22 3 -22 21 0 19 -18 -3
-23 -16 -4 -16 -5 1 -6 13 -1 17 -10 17 -36 0 -19 1 -37 2 -40 9 -29 14 -105
7 -122 -5 -13 -5 -23 0 -23 12 0 21 -39 10 -45 -5 -4 -9 -16 -9 -28 0 -19 -5
-70 -9 -89 0 -3 -21 -16 -46 -28 -25 -12 -45 -26 -45 -31 0 -13 11 -11 30 6 9
8 25 12 38 8 22 -5 31 -23 12 -23 -5 0 -10 -5 -10 -11 0 -6 9 -8 20 -4 15 5
20 2 20 -14 0 -22 19 -40 21 -19 1 7 4 0 8 -17 l6 -30 1889 0 1888 0 23 91
c13 49 34 119 48 155 14 35 35 93 48 128 13 35 25 58 27 51 3 -7 -1 -66 -8
-130 -8 -74 -10 -139 -4 -176 8 -59 10 -73 13 -106 1 -15 11 -18 55 -18 49 0
54 2 64 28 23 60 34 172 18 184 -6 4 -6 24 1 52 6 26 6 46 1 46 -9 0 -8 20 13
217 9 86 9 116 0 126 -9 11 -8 17 4 27 13 11 13 15 3 21 -11 7 -11 9 0 9 9 0
11 7 7 20 -13 40 155 246 232 286 21 10 41 23 44 27 12 16 245 87 286 87 37 0
45 -4 53 -24 10 -28 186 -118 310 -160 83 -27 246 -59 300 -58 19 1 29 -1 22
-4 -25 -11 -12 -26 18 -21 16 4 32 2 35 -2 5 -9 -16 -21 -49 -28 -11 -2 -24
-7 -30 -12 -6 -5 -41 -14 -78 -21 -39 -8 -64 -18 -61 -23 3 -6 1 -7 -6 -3 -6
4 -18 0 -27 -8 -14 -14 -12 -15 18 -11 27 4 25 2 -12 -11 -28 -9 -90 -16 -165
-18 -109 -2 -120 -4 -124 -22 -2 -10 -7 -21 -12 -25 -5 -3 -23 -32 -40 -65
-17 -32 -29 -49 -26 -36 3 12 1 20 -4 16 -5 -3 -9 -13 -9 -23 0 -10 -7 -24
-16 -32 -8 -7 -30 -44 -48 -82 -20 -40 -36 -64 -39 -56 -3 8 -5 -21 -5 -64 1
-54 -3 -81 -12 -87 -7 -4 -10 -12 -6 -18 3 -6 3 -13 -2 -16 -5 -3 -7 -20 -5
-38 2 -25 1 -28 -5 -14 -7 17 -11 12 -20 -24 -9 -36 -8 -47 3 -60 8 -9 18 -31
21 -48 l6 -32 172 0 172 0 14 142 c7 79 14 161 16 183 3 55 3 55 13 55 17 0
33 -69 26 -111 -4 -22 -3 -45 3 -52 5 -7 12 -32 15 -57 5 -44 4 -44 -8 -15
-12 28 -13 25 -9 -35 2 -36 5 -75 6 -88 l3 -22 194 2 194 3 12 40 c20 64 57
141 62 128 4 -10 -14 -94 -33 -155 -5 -17 10 -18 225 -18 l230 0 5 33 c32 209
-5 663 -70 859 -14 43 -47 111 -73 150 -26 40 -69 114 -95 163 -26 50 -59 101
-72 116 -41 43 -21 67 29 34 12 -8 54 -21 92 -30 171 -37 198 -48 224 -88 18
-28 33 -38 60 -43 50 -8 91 -22 68 -23 -11 -1 -15 -6 -11 -12 5 -8 -6 -10 -35
-7 -60 5 -45 -13 28 -32 71 -20 183 -101 213 -154 8 -15 1 -12 -28 10 -34 25
-70 46 -109 62 -5 2 4 -7 20 -22 17 -14 35 -25 40 -26 6 0 11 -10 11 -23 1
-18 -4 -22 -30 -22 -25 0 -32 -5 -34 -23 -2 -12 1 -22 6 -22 6 0 17 -3 26 -6
11 -4 19 2 26 20 7 19 17 26 36 26 21 0 24 -3 15 -14 -8 -10 -8 -16 2 -24 18
-15 37 3 37 34 0 13 4 25 8 28 21 13 1 -61 -36 -136 -23 -46 -42 -94 -42 -108
0 -26 74 -108 92 -102 5 1 14 -2 21 -8 7 -6 25 -21 42 -35 16 -13 27 -27 24
-30 -3 -3 -18 6 -33 20 -15 14 -32 23 -37 20 -5 -4 -9 1 -9 10 0 9 -4 13 -10
10 -11 -7 -120 52 -192 102 -32 24 -48 30 -51 21 -3 -8 -6 -6 -6 5 -1 18 -46
91 -91 147 -16 20 -20 22 -20 8 0 -10 5 -18 11 -18 5 0 7 -4 4 -10 -3 -5 -2
-10 2 -10 11 0 48 -62 45 -74 -2 -5 4 -17 13 -26 9 -10 17 -25 19 -33 1 -8 7
-21 13 -28 14 -18 31 -74 37 -124 3 -22 10 -60 15 -85 6 -25 13 -94 16 -155 3
-60 8 -132 10 -160 2 -27 4 -76 5 -107 l0 -58 1284 0 1285 0 39 55 40 55 4
-42 c3 -24 1 -49 -5 -55 -7 -10 302 -13 1502 -13 l1511 0 0 1700 0 1699 -21
12 c-16 8 -18 13 -9 19 21 13 5 36 -54 75 -55 36 -75 56 -36 35 44 -24 16 1
-40 35 -69 42 -86 42 -65 3 7 -16 11 -28 8 -28 -3 0 0 -8 9 -17 36 -44 44
-103 13 -103 -15 0 -45 43 -45 65 0 8 -4 15 -9 15 -8 0 -24 36 -23 51 1 3 -10
18 -23 35 l-23 29 9 -45 c11 -51 17 -75 19 -75 1 0 8 -27 16 -60 8 -33 19 -78
24 -100 6 -22 12 -49 14 -61 1 -11 6 -26 10 -33 4 -6 2 -18 -4 -26 -6 -8 -9
-19 -5 -25 3 -5 -1 -10 -9 -10 -9 0 -16 4 -16 8 0 5 -11 22 -25 38 -21 24 -27
26 -35 14 -5 -8 -6 -18 -3 -22 2 -5 -1 -16 -8 -24 -7 -8 -14 -25 -15 -37 -1
-12 -5 -35 -9 -52 -9 -39 -8 -147 0 -210 4 -27 9 -59 10 -70 2 -11 8 -72 15
-135 6 -63 15 -149 19 -190 5 -41 8 -114 7 -163 0 -48 2 -87 7 -87 4 0 7 6 8
13 0 6 4 3 9 -8 12 -27 12 -155 1 -155 -6 0 -9 28 -8 62 2 49 -1 63 -13 66
-13 2 -15 -11 -14 -82 1 -67 -1 -83 -11 -79 -16 6 -25 44 -21 93 2 25 -3 39
-16 48 -10 7 -18 19 -18 26 0 7 -7 21 -15 32 -13 17 -14 15 -8 -30 5 -37 3
-47 -6 -42 -9 6 -12 -26 -11 -136 1 -173 -8 -251 -31 -256 -11 -2 -19 6 -23
22 -4 15 -11 26 -17 26 -7 0 -6 -6 2 -17 13 -15 12 -16 -9 -11 -14 4 -22 2
-21 -5 3 -19 -23 -107 -31 -107 -4 0 -1 23 6 52 8 29 14 60 14 70 0 10 3 18 8
18 8 0 7 47 -3 132 -6 47 -4 66 14 108 13 30 19 59 15 74 -3 13 0 34 6 46 6
12 12 51 12 88 0 36 6 75 13 87 7 11 16 44 20 73 4 29 13 59 20 66 8 8 11 16
8 20 -4 3 -1 6 6 6 8 0 10 7 6 19 -3 11 -2 22 3 25 14 8 -2 92 -21 111 -10 9
-18 34 -18 58 -3 87 -16 147 -30 147 -5 0 -9 5 -9 10 0 6 6 9 13 8 7 -2 12 9
13 27 1 17 5 38 9 47 3 9 2 25 -4 35 -9 16 -10 14 -11 -11 0 -16 -3 -27 -6
-24 -3 3 -6 45 -6 92 0 47 -4 86 -9 86 -5 0 -8 26 -6 58 3 39 -2 69 -13 97
-10 22 -20 49 -22 60 -2 11 -11 21 -19 23 -22 4 -30 -33 -19 -83 12 -51 12
-55 0 -55 -5 0 -10 12 -10 28 -1 22 -2 24 -10 11 -15 -26 -20 -99 -6 -99 7 0
8 -3 0 -8 -6 -4 -9 -41 -9 -89 2 -59 -2 -86 -11 -94 -8 -6 -12 -15 -9 -19 2
-4 -4 -15 -15 -25 -11 -10 -20 -28 -20 -41 0 -12 -3 -24 -7 -26 -17 -7 -103
-198 -109 -241 -5 -34 -11 -47 -23 -47 -9 0 -29 -13 -44 -30 -16 -16 -32 -30
-35 -30 -4 0 -18 -16 -31 -35 -26 -39 -40 -41 -19 -3 7 12 15 25 18 28 12 11
30 63 30 85 0 13 5 27 10 30 6 4 10 12 9 18 -1 7 0 19 4 27 3 8 10 44 15 80 5
36 13 73 17 83 4 10 3 17 -4 17 -6 0 -16 -20 -22 -45 -6 -25 -15 -47 -19 -50
-10 -6 -3 161 10 230 6 33 15 85 19 115 5 30 9 48 10 39 2 -25 45 -17 49 9 2
12 8 19 14 16 6 -4 8 1 4 12 -3 11 -2 43 3 72 4 29 5 54 2 57 -4 2 -4 32 -1
67 4 41 3 66 -4 70 -6 4 -7 8 -2 8 5 0 1 9 -8 19 -10 11 -16 23 -13 28 2 4 1
17 -3 28 -5 13 -2 26 7 37 11 13 16 54 19 172 3 92 1 156 -4 156 -21 0 -52
-90 -54 -154 -1 -49 -22 -61 -24 -15 -2 44 -4 50 -14 44 -6 -3 -10 1 -10 9 0
9 4 16 9 16 9 0 22 186 25 352 2 110 -6 114 -42 21 -61 -156 -146 -283 -239
-354 -17 -13 -39 -36 -47 -51 -23 -37 -75 -67 -107 -61 -15 3 -43 18 -62 34
-30 25 -37 37 -43 85 -8 65 4 79 74 90 23 3 42 10 42 15 0 5 5 9 11 9 15 0 39
26 32 34 -4 4 15 28 41 55 l47 48 -71 27 c-39 14 -76 26 -81 26 -5 0 -26 7
-46 15 -29 12 -33 18 -23 29 6 8 20 16 31 18 11 2 19 7 19 12 -1 5 6 13 15 18
12 7 15 19 11 51 -3 23 -8 66 -11 96 -2 30 -6 55 -8 57 -2 2 -14 -6 -26 -17
-17 -16 -26 -18 -34 -10 -8 8 -16 6 -29 -6 -17 -15 -18 -15 -18 1 0 9 7 19 15
22 9 4 13 13 10 23 -7 23 22 81 41 81 8 0 14 -7 14 -15 0 -8 6 -15 14 -15 10
0 12 9 5 43 -4 23 -8 71 -9 106 0 61 -2 66 -44 110 -23 26 -48 45 -55 43 -17
-6 -43 19 -37 34 3 7 1 16 -5 19 -5 4 -6 12 -2 18 18 29 -2 186 -24 194 -12 5
-12 7 -1 14 9 6 7 9 -9 9 -38 0 -35 19 4 23 l38 4 -42 1 c-23 1 -44 6 -47 10
-2 4 11 6 30 4 21 -3 34 0 34 7 0 6 -5 11 -11 11 -6 0 -1 13 10 29 13 18 36
33 66 41 41 11 55 10 128 -9 45 -12 93 -23 107 -25 51 -8 85 -28 134 -80 56
-59 80 -123 90 -243 7 -73 13 -70 -125 -76 -64 -3 -93 -9 -112 -23 -40 -29
-32 -45 23 -46 17 -1 30 -5 30 -10 0 -4 -4 -8 -9 -8 -5 0 -16 -16 -25 -35 -9
-19 -21 -35 -26 -35 -16 0 -11 -30 5 -36 8 -4 15 -17 15 -30 0 -19 8 -25 43
-35 50 -15 63 -24 80 -56 6 -14 25 -32 42 -41 16 -10 34 -21 40 -27 49 -45 60
-123 24 -169 -31 -39 -61 -34 -89 17 -31 57 -50 77 -72 77 -25 0 -23 -19 12
-85 35 -67 38 -105 10 -130 -12 -10 -18 -25 -16 -32 3 -7 -8 -41 -25 -77 -35
-74 -45 -126 -31 -151 8 -15 12 -9 26 33 17 51 70 132 123 189 16 17 51 64 78
104 l50 74 0 90 c-1 50 -4 107 -8 129 l-7 38 26 -17 c14 -9 27 -15 29 -13 4 3
8 198 5 208 -1 3 -4 28 -7 55 -3 29 -11 53 -19 58 -8 5 -12 12 -9 18 6 8 -17
69 -109 289 -21 52 -46 94 -63 107 -15 13 -23 23 -16 23 20 0 -25 73 -60 98
-17 12 -26 22 -18 22 10 0 11 3 2 13 -6 8 -8 17 -5 20 4 3 -15 19 -41 34 -26
15 -52 33 -59 39 -6 5 -20 13 -30 17 -10 4 -16 10 -13 13 5 5 67 -9 104 -23
11 -4 14 -2 9 5 -4 7 -27 17 -52 23 -25 6 -43 14 -40 16 2 2 22 -1 44 -7 51
-13 202 -132 202 -159 0 -6 4 -11 9 -11 5 0 16 -15 24 -32 21 -44 97 -125 97
-103 0 10 5 13 12 9 7 -4 8 -3 4 5 -4 6 -12 8 -18 5 -6 -4 -8 1 -4 13 4 12 -1
30 -12 44 -9 13 -24 38 -32 54 -8 17 -19 37 -26 45 -6 8 -14 23 -17 33 -7 17
-6 17 24 0 16 -10 32 -28 35 -40 4 -13 12 -23 19 -23 7 0 15 -6 18 -12 2 -7 8
-10 12 -6 4 4 -5 24 -21 43 -16 20 -40 50 -52 68 -13 18 -28 31 -34 29 -5 -1
-7 2 -3 7 10 17 -210 160 -247 161 -9 0 -21 7 -25 15 -7 12 -34 16 -130 18
-67 1 -116 6 -109 10 10 8 3 7 -64 -9 -14 -3 0 9 30 26 53 31 58 32 130 25 41
-4 83 -7 92 -7 9 0 19 -6 22 -14 4 -9 21 -14 51 -14 48 0 92 -17 115 -45 11
-13 11 -18 2 -24 -9 -5 -4 -11 13 -19 14 -7 30 -12 36 -12 11 0 72 -41 77 -51
2 -4 17 -22 35 -41 48 -50 131 -148 141 -167 5 -9 12 -18 15 -21 3 -3 17 -25
30 -50 13 -25 30 -52 38 -61 8 -9 14 -27 15 -40 0 -13 2 -37 5 -53 4 -22 7
-25 15 -15 7 10 8 8 3 -8 -4 -15 2 -35 19 -60 16 -23 23 -45 20 -59 -3 -12 6
-50 20 -86 14 -36 26 -69 26 -75 0 -5 6 -23 14 -39 8 -16 17 -46 20 -66 3 -21
11 -59 17 -85 12 -49 17 -76 18 -103 1 -12 3 -12 9 -2 5 7 8 -7 7 -33 -2 -48
11 -124 37 -210 9 -27 21 -72 27 -100 7 -27 18 -62 26 -78 8 -16 9 -25 3 -21
-7 5 -9 2 -6 -7 6 -17 22 -68 43 -138 28 -94 56 -161 65 -156 4 3 11 33 15 67
4 35 20 156 36 270 16 114 42 316 59 450 17 133 37 270 45 303 35 144 64 273
70 312 4 24 11 45 16 49 5 3 9 26 9 52 0 38 6 55 30 82 l29 35 1 558 0 557
-4211 0 -4211 0 59 -39 c109 -73 145 -131 189 -297 13 -50 13 -76 3 -169 -6
-60 -14 -117 -19 -125 -4 -8 -6 -78 -6 -155 2 -119 5 -148 24 -193 15 -35 22
-74 22 -115 0 -39 6 -70 15 -84 13 -19 13 -22 0 -27 -8 -3 -15 -1 -15 4 0 6
-6 10 -12 11 -7 0 -35 29 -63 65 -27 35 -54 64 -60 64 -6 0 -26 -11 -44 -25
-19 -13 -53 -27 -76 -30 -64 -10 -67 -13 -55 -76 7 -34 8 -113 4 -211 -7 -172
-5 -168 -76 -168 -31 0 -47 -20 -74 -90 -9 -25 -21 -49 -25 -54 -9 -10 -112
92 -116 115 -1 9 11 37 27 62 25 39 27 47 14 58 -20 16 -10 23 14 10 21 -11
54 8 97 55 48 54 100 164 77 164 -8 0 -76 -74 -92 -100 -4 -6 -17 -12 -30 -13
-13 -1 -25 -9 -28 -19 -3 -14 -7 -16 -18 -7 -10 8 -18 8 -26 1 -7 -6 -25 -10
-40 -9 -23 2 -28 7 -28 30 0 23 -29 67 -45 67 -11 0 -4 -29 9 -43 13 -13 11
-67 -3 -67 -18 1 -29 19 -30 55 -1 22 -2 54 -3 70 -1 33 21 99 30 91 3 -3 11
3 19 13 14 21 9 47 -12 55 -12 4 -12 11 0 47 19 54 20 50 -15 89 -17 19 -33
50 -36 72 -4 21 -13 43 -20 49 -25 21 -18 183 12 275 26 79 33 129 20 141 -9
10 -33 -26 -52 -77 -9 -25 -29 -80 -46 -124 -18 -48 -27 -88 -24 -102 4 -13 4
-24 1 -24 -18 0 -85 74 -213 236 -34 43 -35 61 -9 150 32 112 108 243 188 326
l66 68 -1528 0 -1529 0 0 -595z m675 515 c3 -6 -4 -10 -17 -10 -18 0 -20 2 -8
10 19 12 18 12 25 0z m9675 1 c0 -5 -7 -14 -15 -21 -12 -10 -15 -10 -15 2 0 8
3 18 7 21 9 10 23 9 23 -2z m-9570 -37 c0 -6 -13 -14 -30 -17 -23 -5 -30 -12
-30 -29 0 -16 -3 -19 -11 -11 -7 7 -24 9 -39 6 -22 -4 -28 -1 -33 19 -13 47
-11 48 68 46 51 -1 75 -5 75 -14z m9599 -15 c3 -11 1 -12 -11 -2 -8 7 -19 9
-23 5 -5 -4 -5 -1 -1 6 9 16 28 11 35 -9z m-1159 5 c0 -3 -9 -18 -20 -34 -11
-15 -17 -30 -13 -34 3 -3 0 -14 -8 -23 -41 -52 -52 -102 -21 -104 16 -1 16 -2
0 -6 -22 -6 -23 -22 -2 -30 27 -10 37 -53 18 -75 -10 -10 -18 -28 -20 -41 -1
-12 -3 -23 -4 -24 -2 -3 -6 -16 -9 -30 0 -3 -15 10 -32 30 -17 21 -38 37 -45
37 -18 0 -18 34 1 73 8 18 23 58 34 89 28 81 121 214 121 172z m-8943 -30 c-3
-3 -12 -4 -19 -1 -8 3 -5 6 6 6 11 1 17 -2 13 -5z m350 -9 c0 -8 -6 -15 -13
-15 -8 0 -11 6 -8 15 4 8 9 15 13 15 4 0 8 -7 8 -15z m138 5 c-3 -5 -10 -10
-16 -10 -5 0 -9 5 -9 10 0 6 7 10 16 10 8 0 12 -4 9 -10z m9635 -21 c0 -14
-16 -11 -29 5 -10 12 -8 13 8 9 12 -3 21 -9 21 -14z m-10113 5 c-3 -3 -12 -4
-19 -1 -8 3 -5 6 6 6 11 1 17 -2 13 -5z m10117 -49 c-4 -8 -8 -15 -10 -15 -2
0 -4 7 -4 15 0 8 4 15 10 15 5 0 7 -7 4 -15z m66 -75 c0 -11 -3 -20 -6 -20
-13 0 -33 35 -34 58 l0 22 20 -20 c11 -11 20 -29 20 -40z m-8727 25 c14 -6 8
-15 -34 -53 -60 -54 -158 -173 -214 -260 -22 -34 -46 -62 -53 -62 -8 0 -31 18
-53 41 -34 35 -39 47 -39 86 0 39 -2 44 -15 33 -12 -10 -15 -7 -20 13 -6 24
-29 37 -67 37 -10 0 -17 -6 -15 -12 2 -13 -30 -19 -48 -9 -18 10 -37 10 -61 1
-14 -6 -26 -6 -29 1 -9 14 -27 -1 -21 -17 4 -9 -2 -14 -16 -14 -12 0 -18 3
-15 7 4 3 0 17 -8 30 -9 13 -12 24 -8 24 5 1 15 2 23 3 9 0 15 10 14 24 -1 32
16 27 23 -8 7 -39 19 -38 27 1 l6 32 20 -23 c16 -19 22 -21 35 -10 12 10 15 9
16 -6 0 -15 2 -16 7 -4 8 17 44 23 52 9 3 -5 25 -11 48 -14 32 -4 40 -2 36 9
-6 15 22 30 38 20 5 -4 31 14 56 38 66 63 77 70 130 85 46 12 149 11 185 -2z
m7437 -14 c0 -6 -4 -13 -10 -16 -5 -3 -10 1 -10 9 0 9 5 16 10 16 6 0 10 -4
10 -9z m-8660 -61 c0 -5 -2 -10 -4 -10 -3 0 -8 5 -11 10 -3 6 -1 10 4 10 6 0
11 -4 11 -10z m-19 -60 c6 0 7 10 3 23 -10 33 9 11 23 -26 9 -27 12 -28 12 -9
1 26 20 30 22 5 1 -15 2 -15 6 -2 5 19 63 24 63 6 0 -8 3 -7 9 2 5 8 16 11 29
7 11 -4 23 -2 26 3 7 11 85 9 104 -3 7 -4 12 -2 12 3 0 6 -7 11 -16 11 -8 0
-13 4 -9 10 9 14 32 1 38 -21 6 -22 27 -26 27 -4 0 8 5 15 11 15 6 0 9 -3 7
-7 -24 -51 -34 -63 -49 -68 -11 -4 -26 -13 -35 -22 -11 -12 -18 -13 -27 -4 -8
8 -8 11 1 11 7 0 12 7 12 15 0 17 -11 19 -25 6 -13 -11 -71 -22 -79 -14 -3 4
1 15 11 25 9 10 11 18 5 18 -15 0 -31 -31 -29 -55 2 -17 -5 -20 -45 -21 -27
-1 -48 3 -48 7 0 5 -9 9 -21 9 -15 0 -19 -5 -17 -22 2 -15 -3 -24 -14 -26 -13
-2 -16 1 -12 12 3 9 1 16 -5 16 -6 0 -11 -4 -11 -10 0 -5 -5 -10 -11 -10 -5 0
-8 4 -5 9 3 5 -1 12 -10 15 -27 11 -40 6 -21 -8 16 -12 16 -14 1 -20 -25 -10
-34 -7 -34 10 0 11 -6 14 -20 9 -22 -7 -26 5 -8 23 9 9 9 12 0 12 -7 0 -12 -5
-12 -11 0 -6 -6 -9 -12 -6 -7 2 -12 10 -10 16 1 6 -7 11 -18 11 -11 0 -20 5
-20 10 0 15 -36 12 -49 -4 -6 -7 -9 -20 -5 -29 3 -8 0 -18 -7 -23 -9 -5 -10
-2 -6 9 3 9 2 19 -4 23 -6 3 -1 13 11 24 11 9 20 22 20 29 0 6 7 11 15 11 13
0 14 4 5 20 -9 16 -8 20 5 20 8 0 14 -5 13 -12 -2 -6 6 -14 17 -16 17 -4 18
-2 6 12 -10 12 -10 16 -2 16 16 0 41 -25 42 -42 0 -9 2 -9 6 2 9 22 35 39 59
40 24 0 49 -24 40 -39 -4 -5 -2 -12 4 -16 6 -4 11 9 11 32 1 23 3 29 6 16 2
-13 9 -23 14 -23z m6572 26 c9 -7 17 -21 17 -30 0 -9 8 -19 18 -22 9 -3 25
-10 34 -15 27 -14 61 -11 55 5 -4 10 0 12 15 9 23 -7 33 -29 42 -100 8 -60 5
-62 -66 -70 -28 -3 -75 -16 -104 -30 -44 -20 -53 -29 -57 -56 -4 -17 -9 -46
-12 -63 -6 -26 -2 -35 21 -53 23 -18 35 -21 69 -15 78 13 81 16 46 51 -18 19
-29 38 -25 46 3 8 0 18 -5 22 -21 13 0 25 44 25 26 0 45 5 48 13 2 6 8 8 13 4
4 -4 1 -20 -8 -35 -20 -36 -30 -116 -16 -130 13 -13 14 -243 1 -286 -12 -40
-33 -46 -33 -9 0 15 -8 40 -18 54 -22 34 -86 89 -103 90 -10 0 -11 2 -1 6 16
6 15 25 -3 60 -58 113 -81 192 -66 222 10 18 7 25 -22 53 -30 29 -133 92 -140
85 -1 -1 -10 5 -19 13 -14 14 -13 16 18 27 23 8 44 9 66 2 18 -5 50 -9 70 -9
27 0 38 -4 38 -15 0 -8 9 -15 20 -15 11 0 20 2 20 4 0 2 3 11 6 20 4 11 1 16
-10 16 -19 0 -20 4 -4 33 14 26 17 66 6 73 -4 3 -8 12 -8 20 0 18 29 18 53 0z
m3357 -37 c0 -43 -6 -47 -36 -23 -13 11 -15 17 -6 20 6 3 12 14 12 23 0 10 3
21 6 24 14 13 24 -6 24 -44z m-9448 23 c-7 -2 -12 -10 -12 -18 0 -9 -4 -12
-10 -9 -6 4 -5 13 2 25 7 10 17 16 22 13 6 -4 5 -8 -2 -11z m48 8 c0 -5 -4
-10 -10 -10 -5 0 -10 5 -10 10 0 6 5 10 10 10 6 0 10 -4 10 -10z m-100 -30 c0
-5 -7 -10 -15 -10 -8 0 -15 5 -15 10 0 6 7 10 15 10 8 0 15 -4 15 -10z m7243
-60 c-4 -4 -17 -4 -28 1 -18 9 -18 9 3 5 19 -4 22 0 24 32 l1 37 4 -34 c3 -18
1 -37 -4 -41z m-7163 29 c0 -35 -15 -31 -22 6 -4 17 -1 25 8 25 9 0 14 -11 14
-31z m-110 1 c0 -5 -4 -12 -10 -15 -5 -3 -10 -4 -10 -1 0 2 -3 12 -6 20 -5 12
-2 15 10 10 9 -3 16 -10 16 -14z m-670 0 c0 -5 -2 -10 -4 -10 -3 0 -8 5 -11
10 -3 6 -1 10 4 10 6 0 11 -4 11 -10z m700 0 c0 -5 -2 -10 -4 -10 -3 0 -8 5
-11 10 -3 6 -1 10 4 10 6 0 11 -4 11 -10z m34 -6 c3 -8 2 -12 -4 -9 -6 3 -10
10 -10 16 0 14 7 11 14 -7z m299 -21 c-7 -3 -13 -12 -13 -21 0 -13 -2 -14 -12
-3 -10 11 -10 14 0 18 6 3 12 12 12 21 0 13 2 14 13 3 10 -11 10 -14 0 -18z
m-963 -18 c0 -15 -6 -25 -14 -25 -8 0 -13 10 -13 25 0 15 5 25 13 25 8 0 14
-10 14 -25z m570 21 c0 -11 -19 -15 -25 -6 -3 5 1 10 9 10 9 0 16 -2 16 -4z
m428 -21 c-3 -3 -9 2 -12 12 -6 14 -5 15 5 6 7 -7 10 -15 7 -18z m-598 -10 c0
-8 -4 -15 -10 -15 -5 0 -10 7 -10 15 0 8 5 15 10 15 6 0 10 -7 10 -15z m225 5
c-3 -5 -11 -10 -16 -10 -6 0 -7 5 -4 10 3 6 11 10 16 10 6 0 7 -4 4 -10z m121
-17 c-7 -7 -26 7 -26 19 0 6 6 6 15 -2 9 -7 13 -15 11 -17z m164 19 c0 -5 -13
-7 -30 -4 -16 2 -30 6 -30 8 0 2 14 4 30 4 17 0 30 -4 30 -8z m9231 -3 c11 -5
17 -14 13 -20 -3 -5 0 -17 7 -25 10 -12 9 -13 -6 -8 -13 5 -16 4 -11 -4 4 -7
2 -12 -4 -12 -11 0 -30 41 -30 66 0 17 5 17 31 3z m-9566 -9 c-3 -5 -11 -10
-16 -10 -6 0 -7 5 -4 10 3 6 11 10 16 10 6 0 7 -4 4 -10z m-248 -16 c-3 -3
-12 -4 -19 -1 -8 3 -5 6 6 6 11 1 17 -2 13 -5z m8453 -14 c0 -5 -4 -10 -10
-10 -5 0 -10 5 -10 10 0 6 5 10 10 10 6 0 10 -4 10 -10z m-3175 -36 c9 -15 12
-23 6 -20 -11 7 -35 46 -28 46 3 0 12 -12 22 -26z m2260 16 c3 -6 -1 -7 -9 -4
-18 7 -21 14 -7 14 6 0 13 -4 16 -10z m2245 6 c0 -11 -19 -15 -25 -6 -3 5 1
10 9 10 9 0 16 -2 16 -4z m200 -22 c0 -9 -5 -14 -12 -12 -18 6 -21 28 -4 28 9
0 16 -7 16 -16z m-4751 -73 c33 -41 74 -126 107 -219 16 -46 16 -54 4 -62 -21
-13 -33 -12 -24 2 5 8 -3 9 -32 4 -21 -4 -48 -9 -59 -11 -11 -2 -42 -9 -70
-14 -100 -22 -109 -22 -133 -3 -18 14 -23 28 -22 57 1 68 5 90 18 103 6 7 12
24 12 38 0 13 5 24 10 24 6 0 10 7 10 15 0 8 6 15 13 15 8 0 9 2 1 8 -6 4 -14
16 -18 27 -8 27 44 61 62 43 9 -9 12 -8 12 4 0 19 36 28 62 16 9 -4 30 -25 47
-47z m2319 4 c7 -25 17 -45 22 -45 6 0 15 -12 20 -26 9 -23 15 -26 40 -21 29
6 93 -14 105 -33 9 -15 35 -12 35 4 0 7 -10 17 -22 21 -13 5 -32 11 -43 15
-15 5 -9 8 23 11 35 4 42 2 42 -13 0 -26 21 -33 36 -13 11 14 16 16 28 6 8 -7
12 -19 9 -27 -4 -10 0 -12 11 -8 19 7 20 16 4 33 -11 11 -7 13 19 8 20 -4 34
-2 37 6 5 9 7 9 12 0 7 -15 84 -18 84 -3 0 6 -8 10 -17 11 -14 0 -15 2 -3 6 8
3 18 10 21 16 4 5 12 1 18 -11 9 -17 6 -24 -20 -46 -17 -14 -34 -26 -38 -26
-4 0 -8 -16 -9 -36 -2 -47 -8 -53 -23 -20 -7 14 -17 26 -22 26 -5 0 -4 -7 3
-16 11 -13 10 -16 -8 -21 -12 -3 -22 -9 -22 -14 0 -5 -8 -9 -18 -9 -25 0 -31
-7 -25 -31 4 -13 11 -18 22 -14 11 3 27 -5 41 -20 19 -21 21 -25 7 -25 -9 0
-17 5 -17 11 0 7 -10 9 -25 7 -13 -3 -26 0 -29 6 -2 6 -5 -1 -5 -16 -1 -21 3
-26 15 -21 14 5 14 3 2 -16 -10 -17 -14 -18 -16 -6 -2 8 -8 15 -13 15 -16 0
-22 -29 -9 -45 9 -10 9 -15 1 -15 -6 0 -11 4 -11 9 0 5 -9 11 -20 14 -11 3
-20 1 -20 -4 0 -5 -14 -9 -30 -9 -20 0 -30 -5 -28 -12 2 -7 0 -14 -5 -15 -4
-2 -7 0 -6 4 0 4 -8 10 -18 14 -17 6 -17 7 2 14 43 14 67 26 64 29 -2 2 -37 2
-76 -1 -53 -4 -73 -10 -73 -19 0 -8 3 -13 8 -13 20 3 24 -2 8 -14 -21 -16 -12
-47 15 -47 10 0 19 -4 19 -10 0 -5 -9 -10 -20 -10 -20 0 -28 -24 -11 -34 5 -3
7 -15 4 -27 -4 -12 0 -25 8 -30 10 -6 8 -9 -10 -9 -16 0 -21 -4 -18 -15 4 -8
2 -17 -4 -21 -6 -3 -7 -19 -4 -35 4 -16 3 -29 -2 -29 -5 0 -9 -17 -10 -37 0
-21 -3 -56 -6 -78 -9 -59 -11 -231 -3 -244 4 -6 2 -11 -4 -11 -11 0 -4 -47 11
-65 4 -6 4 -17 -1 -25 -5 -8 -7 -24 -3 -35 6 -19 7 -32 11 -92 1 -13 9 -23 17
-23 8 0 12 -6 10 -12 -5 -13 37 -38 62 -38 7 0 13 -7 13 -15 0 -8 -5 -15 -10
-15 -6 0 -3 -11 7 -24 20 -27 37 -24 28 5 -5 14 -2 19 11 19 24 0 64 39 64 62
0 10 4 18 10 18 5 0 7 -7 4 -15 -3 -8 1 -29 10 -46 9 -18 16 -33 16 -34 0 -2
-16 -10 -35 -19 -21 -10 -32 -22 -29 -30 3 -7 -12 -31 -33 -53 -45 -47 -83
-141 -83 -204 0 -25 -6 -51 -12 -58 -10 -11 -10 -14 0 -18 16 -6 15 -23 -2
-23 -19 0 -25 -34 -32 -195 -3 -77 -10 -171 -15 -210 -4 -38 -13 -126 -20
-195 -11 -126 -17 -151 -36 -157 -12 -4 -11 14 9 202 16 163 17 360 1 376 -7
7 -13 21 -13 31 0 10 -7 30 -16 43 -9 14 -14 31 -11 39 3 7 1 18 -5 24 -6 6
-11 39 -11 74 0 35 -5 66 -11 70 -8 5 -7 8 2 8 6 0 12 6 12 14 0 8 -6 17 -12
19 -10 4 -10 8 1 15 7 5 11 14 7 20 -3 6 -3 13 2 16 4 2 7 32 7 65 0 34 3 61
7 61 16 0 7 20 -9 21 -16 1 -15 2 1 6 15 4 16 7 5 15 -8 5 -10 11 -4 14 14 6
10 91 -5 109 -7 9 -8 15 -2 15 14 0 22 53 10 68 -7 8 -7 12 1 12 14 0 14 37 0
46 -7 4 -10 37 -9 88 2 44 2 83 0 86 -6 15 -5 62 2 66 5 3 4 13 -2 23 -5 10
-7 21 -3 24 8 9 14 357 6 371 -8 12 -4 356 4 369 2 4 6 45 8 90 4 96 2 88 18
81 7 -2 18 -25 25 -49z m752 45 c0 -5 -4 -10 -10 -10 -5 0 -10 5 -10 10 0 6 5
10 10 10 6 0 10 -4 10 -10z m1558 -32 c13 -32 11 -33 -28 -13 -28 15 -42 45
-20 45 6 0 10 -7 10 -15 0 -8 5 -15 11 -15 7 0 9 9 6 21 -7 27 5 13 21 -23z
m-8074 11 c22 35 156 -37 156 -83 0 -3 -9 -6 -19 -6 -11 0 -47 -7 -80 -16 -79
-20 -98 -14 -106 35 -5 30 -2 44 11 60 12 13 20 17 25 10 5 -8 8 -8 13 0z
m8024 -48 c2 -12 -2 -21 -10 -21 -22 0 -33 14 -35 43 -1 27 0 27 21 14 11 -8
22 -24 24 -36z m-4455 7 c10 -7 19 -23 21 -35 3 -11 12 -36 21 -53 9 -18 21
-60 26 -94 21 -133 27 -160 28 -141 4 51 35 -60 33 -120 -1 -82 -15 -248 -22
-275 -6 -24 -7 3 -3 85 6 144 6 129 3 135 -1 3 -4 16 -6 30 -2 14 -8 54 -15
90 -6 36 -12 74 -13 85 -1 11 -8 31 -14 45 -15 33 -92 220 -99 243 -6 20 15
23 40 5z m2903 -3 c-3 -8 -1 -15 4 -15 6 0 10 6 10 13 0 8 3 8 9 -2 7 -10 4
-19 -7 -28 -15 -11 -14 -12 8 -13 14 0 20 -4 15 -8 -19 -13 -45 -61 -45 -81 0
-11 9 -25 19 -31 13 -6 17 -17 14 -29 -5 -18 -1 -19 29 -14 27 4 37 1 42 -12
9 -24 2 -29 -16 -11 -11 10 -18 12 -26 4 -15 -15 -41 -3 -52 24 -7 18 -9 19
-9 6 -2 -37 -21 -16 -21 22 0 23 -5 40 -11 40 -8 0 -10 -17 -7 -49 5 -50 5
-50 -23 -48 -16 1 -29 5 -29 10 0 12 -20 8 -36 -7 -16 -17 -19 -46 -4 -46 6 0
10 9 10 20 0 11 5 20 10 20 6 0 10 -9 10 -20 0 -11 -4 -20 -10 -20 -5 0 -10
-9 -10 -20 0 -11 -9 -25 -20 -32 -25 -16 -26 -45 -2 -51 9 -2 2 -4 -16 -4 -19
0 -28 3 -21 8 10 6 9 13 -3 31 -18 28 -13 48 13 48 40 0 17 15 -27 17 -41 2
-44 0 -39 -17 4 -14 2 -20 -9 -20 -10 0 -16 9 -16 25 0 19 -5 25 -22 25 -21 0
-21 1 -6 17 12 12 21 13 30 6 7 -6 33 -13 58 -17 31 -4 39 -3 25 3 -14 7 -15
10 -5 10 14 1 50 34 50 46 0 3 -7 5 -15 5 -8 0 -15 -7 -15 -15 0 -9 -9 -15
-21 -15 -20 0 -20 1 5 21 25 20 28 20 67 5 21 -9 42 -16 44 -16 12 0 3 73 -11
87 -14 14 -16 14 -21 -6 -3 -13 -12 -21 -21 -19 -24 5 -26 29 -3 35 12 3 21 9
21 14 0 13 -34 11 -48 -3 -15 -15 -17 5 -2 32 7 13 7 21 0 25 -5 3 -10 15 -10
27 0 17 2 18 15 8 12 -10 19 -10 27 -2 7 7 17 12 22 12 6 0 5 -5 -2 -12 -20
-20 -15 -40 8 -33 15 5 23 0 32 -19 9 -22 28 -36 28 -22 0 2 3 11 6 20 4 10 1
16 -8 16 -16 0 -41 44 -31 54 12 12 23 6 23 -12 0 -9 10 -23 21 -31 20 -12 21
-11 16 9 -6 21 0 50 10 50 3 0 3 -7 -1 -15z m119 -34 c0 -40 -29 -66 -45 -41
-5 8 -10 29 -10 46 0 27 3 31 28 30 24 -1 27 -5 27 -35z m31 2 c-10 -10 -19 5
-10 18 6 11 8 11 12 0 2 -7 1 -15 -2 -18z m1464 2 c0 -8 0 -18 1 -22 0 -4 -5
-9 -12 -12 -7 -2 -10 2 -6 11 3 9 0 21 -6 27 -8 8 -7 11 6 11 9 0 17 -7 17
-15z m-1950 -5 c0 -5 -5 -10 -11 -10 -5 0 -7 5 -4 10 3 6 8 10 11 10 2 0 4 -4
4 -10z m35 0 c3 -5 -1 -10 -9 -10 -9 0 -16 5 -16 10 0 6 4 10 9 10 6 0 13 -4
16 -10z m135 -33 l0 -21 -21 21 c-12 11 -18 26 -14 32 10 17 35 -6 35 -32z
m1684 27 c9 -24 7 -28 -9 -14 -17 14 -20 30 -6 30 5 0 12 -7 15 -16z m-9877
-10 c-3 -3 -12 -4 -19 -1 -8 3 -5 6 6 6 11 1 17 -2 13 -5z m8513 -4 c0 -5 -2
-10 -4 -10 -3 0 -8 5 -11 10 -3 6 -1 10 4 10 6 0 11 -4 11 -10z m-8594 -27
c-1 -14 6 -18 29 -16 22 2 26 0 15 -7 -11 -7 -6 -10 19 -10 33 0 34 1 15 15
-18 14 -18 14 9 15 20 0 27 -5 27 -19 0 -11 -6 -22 -12 -24 -8 -3 -4 -6 7 -8
11 -1 5 -4 -15 -8 -20 -4 -34 -12 -32 -19 1 -8 -11 -12 -34 -12 -31 0 -35 -3
-32 -22 2 -15 -3 -24 -14 -26 -13 -2 -18 3 -18 17 0 12 5 21 10 21 6 0 10 5
10 10 0 6 -7 10 -15 10 -21 0 -19 20 3 21 15 0 14 2 -3 10 -15 7 -9 8 19 3 36
-5 39 -4 26 11 -10 11 -23 15 -42 11 -15 -3 -28 -1 -28 4 0 6 7 10 15 10 8 0
15 7 15 15 0 8 6 15 14 15 8 0 13 -8 12 -17z m101 11 c-3 -3 -12 -4 -19 -1 -8
3 -5 6 6 6 11 1 17 -2 13 -5z m133 -9 c0 -9 9 -15 22 -15 16 0 19 -3 11 -11
-16 -16 -53 -1 -53 22 0 10 5 19 10 19 6 0 10 -7 10 -15z m9810 5 c12 -8 11
-10 -7 -10 -13 0 -23 5 -23 10 0 13 11 13 30 0z m-9859 -32 c8 -16 20 -19 57
-17 47 3 58 -10 30 -36 -8 -7 -9 -5 -5 8 4 11 1 17 -8 17 -8 0 -15 -9 -15 -20
0 -11 -4 -20 -10 -20 -5 0 -10 9 -10 20 0 11 -4 20 -10 20 -5 0 -10 -10 -10
-23 0 -12 -9 -28 -20 -35 -17 -10 -27 -9 -61 6 -25 12 -37 22 -30 26 6 4 16 4
22 1 6 -4 16 1 24 11 11 15 16 16 26 7 10 -10 9 -14 -4 -19 -21 -8 -22 -24 -3
-24 19 0 29 30 15 46 -7 8 -20 12 -30 9 -15 -5 -19 -1 -19 18 0 13 3 26 6 29
10 11 45 -4 55 -24z m4546 16 c-3 -3 -12 -4 -19 -1 -8 3 -5 6 6 6 11 1 17 -2
13 -5z m3763 -19 c0 -8 -6 -15 -12 -15 -10 0 -9 -3 1 -9 9 -6 10 -10 2 -16
-14 -8 -41 12 -41 30 0 13 15 23 38 24 6 1 12 -6 12 -14z m1533 8 c-7 -2 -19
-2 -25 0 -7 3 -2 5 12 5 14 0 19 -2 13 -5z m-5349 -14 c-4 -8 1 -9 17 -3 35
11 61 10 66 -2 4 -12 -72 -18 -89 -8 -8 5 -2 24 8 24 3 0 2 -5 -2 -11z m3578
-6 c10 -9 18 -21 18 -27 0 -6 -5 -5 -12 2 -19 19 -45 14 -62 -10 -14 -20 -16
-20 -16 -4 0 15 35 55 49 56 3 0 13 -7 23 -17z m-7862 -28 c0 -8 -4 -15 -10
-15 -5 0 -10 7 -10 15 0 8 5 15 10 15 6 0 10 -7 10 -15z m8140 -16 c0 -12 -7
-19 -18 -19 -26 0 -33 10 -21 31 12 22 39 14 39 -12z m-8210 11 c0 -5 -4 -10
-10 -10 -5 0 -10 5 -10 10 0 6 5 10 10 10 6 0 10 -4 10 -10z m100 0 c0 -5 -5
-10 -11 -10 -5 0 -7 5 -4 10 3 6 8 10 11 10 2 0 4 -4 4 -10z m5470 0 c0 -5 -4
-10 -10 -10 -5 0 -10 -4 -10 -10 0 -5 10 -10 23 -10 14 0 26 -9 33 -25 11 -22
9 -24 -15 -28 -24 -4 -25 -5 -5 -11 17 -6 21 -15 19 -39 -1 -18 -5 -40 -9 -49
-12 -26 -29 -22 -20 4 6 20 5 21 -10 9 -14 -12 -16 -11 -16 3 0 9 -4 16 -10
16 -14 0 -28 62 -19 85 4 11 10 32 13 48 6 25 36 40 36 17z m4116 -55 c-15
-14 -37 -46 -48 -73 -12 -26 -23 -41 -26 -34 -2 7 0 20 4 30 4 9 8 19 9 22 5
20 48 76 62 81 29 10 28 1 -1 -26z m-9912 19 c28 -11 17 -20 -19 -16 -19 2
-32 8 -29 13 6 10 26 12 48 3z m293 -16 c-3 -8 -6 -5 -6 6 -1 11 2 17 5 13 3
-3 4 -12 1 -19z m7818 2 c3 -5 1 -10 -4 -10 -6 0 -11 5 -11 10 0 6 2 10 4 10
3 0 8 -4 11 -10z m-8168 -16 c14 -13 14 -17 2 -25 -22 -14 -26 -11 -26 16 0
29 3 31 24 9z m183 6 c13 -8 13 -10 -2 -10 -9 0 -20 5 -23 10 -8 13 5 13 25 0z
m7897 -5 c9 -24 -1 -27 -20 -5 -14 17 -15 20 -2 20 9 0 18 -7 22 -15z m-8017
-11 c0 -2 -9 -4 -21 -4 -11 0 -18 4 -14 10 5 8 35 3 35 -6z m7962 4 c-9 -9
-15 -9 -24 0 -9 9 -7 12 12 12 19 0 21 -3 12 -12z m2423 2 c3 -6 -1 -7 -9 -4
-18 7 -21 14 -7 14 6 0 13 -4 16 -10z m-2268 -6 c-3 -3 -12 -4 -19 -1 -8 3 -5
6 6 6 11 1 17 -2 13 -5z m295 -46 c-13 -13 -26 8 -17 30 6 16 7 16 17 -1 7
-13 7 -22 0 -29z m-8525 26 c-3 -3 -12 -4 -19 -1 -8 3 -5 6 6 6 11 1 17 -2 13
-5z m8620 -21 c7 -19 -14 -66 -27 -58 -5 3 -7 0 -4 -8 3 -8 1 -18 -5 -22 -6
-3 -11 1 -11 10 0 10 -7 15 -17 13 -12 -2 -19 4 -21 20 -2 12 1 22 7 22 6 0
11 -5 11 -11 0 -6 7 -3 16 6 9 9 13 19 9 23 -4 4 -10 1 -12 -6 -6 -15 -23 -6
-23 12 0 18 70 18 77 -1z m-197 -13 c26 -14 30 -19 15 -20 -11 0 -32 7 -47 14
-19 10 -28 11 -28 4 0 -6 -3 -9 -6 -5 -9 8 5 27 19 27 7 -1 28 -9 47 -20z
m-2109 -2 c1 -13 -2 -42 -4 -44 -1 -1 -13 -5 -27 -9 -23 -7 -23 -7 -7 9 19 19
23 31 7 21 -5 -3 -10 1 -10 10 0 9 5 13 10 10 6 -3 10 -1 10 4 0 15 20 14 21
-1z m-791 -8 c-12 -8 -11 -10 8 -10 19 0 22 -5 22 -39 0 -22 -7 -48 -17 -60
-16 -18 -25 -20 -75 -14 -32 3 -55 10 -52 14 3 5 -1 9 -8 9 -9 0 -9 3 2 10 12
8 10 10 -10 11 -14 1 -34 1 -45 0 -13 -2 -6 5 17 18 21 12 51 21 67 21 20 0
36 8 48 25 10 13 27 24 38 25 17 0 17 -2 5 -10z m250 -9 c18 -35 15 -220 -5
-276 -18 -52 -58 -118 -67 -110 -9 10 14 138 28 152 18 18 18 72 0 92 -17 20
-30 111 -16 111 6 0 16 11 22 25 13 30 24 32 38 6z m2747 3 c-3 -3 -12 -4 -19
-1 -8 3 -5 6 6 6 11 1 17 -2 13 -5z m-415 -16 c-9 -9 -15 -9 -24 0 -9 9 -7 12
12 12 19 0 21 -3 12 -12z m278 2 c0 -5 -4 -10 -10 -10 -5 0 -10 5 -10 10 0 6
5 10 10 10 6 0 10 -4 10 -10z m88 -9 c10 -6 6 -10 -15 -14 -33 -6 -44 0 -23
13 18 12 22 12 38 1z m-393 -21 c3 -5 1 -10 -4 -10 -6 0 -11 5 -11 10 0 6 2
10 4 10 3 0 8 -4 11 -10z m55 0 c0 -5 -5 -10 -11 -10 -5 0 -7 5 -4 10 3 6 8
10 11 10 2 0 4 -4 4 -10z m-2519 -133 c7 -46 8 -104 4 -145 l-8 -67 -17 56
c-9 31 -25 70 -36 87 -16 28 -17 36 -5 74 7 24 18 62 24 86 11 42 12 42 19 15
4 -15 13 -63 19 -106z m2769 123 c0 -5 -4 -10 -10 -10 -5 0 -10 5 -10 10 0 6
5 10 10 10 6 0 10 -4 10 -10z m-3162 -15 c17 -13 30 -14 57 -6 41 11 54 -1 20
-19 -13 -7 -38 -32 -55 -57 -29 -40 -31 -46 -17 -61 8 -9 22 -33 31 -52 9 -20
28 -41 44 -47 15 -6 40 -20 56 -30 21 -13 30 -15 33 -5 3 6 9 10 13 7 11 -7
32 30 23 39 -3 3 -1 6 6 6 7 0 9 5 6 10 -3 6 -2 10 3 10 6 0 13 7 16 16 4 11
1 14 -12 9 -16 -4 -19 0 -17 32 1 32 4 38 25 39 20 2 29 -6 43 -35 9 -21 17
-47 17 -58 0 -11 12 -38 27 -59 42 -60 37 -126 -17 -240 -23 -49 -50 -107 -60
-129 -9 -22 -32 -59 -51 -82 -19 -23 -49 -67 -67 -97 -31 -52 -52 -70 -52 -46
0 6 -7 10 -16 10 -10 0 -13 6 -9 19 3 12 0 21 -10 25 -8 3 -15 13 -15 21 0 9
4 13 10 10 5 -3 20 3 32 15 12 11 29 20 38 19 20 -3 50 11 50 22 0 10 -90 54
-133 64 -17 5 -26 13 -23 20 5 15 -14 85 -24 85 -3 0 -7 15 -8 33 -2 45 -21
190 -34 269 -11 67 -6 157 11 200 5 13 12 31 15 41 7 21 15 21 44 2z m3322
-20 c0 -5 -5 -3 -10 5 -5 8 -10 20 -10 25 0 6 5 3 10 -5 5 -8 10 -19 10 -25z
m23 2 c-3 -5 -9 -3 -14 4 -4 7 -5 17 -2 22 3 5 9 3 14 -4 4 -7 5 -17 2 -22z
m-613 -2 c0 -8 -4 -15 -9 -15 -13 0 -22 16 -14 24 11 11 23 6 23 -9z m520 5
c0 -5 -2 -10 -4 -10 -3 0 -8 5 -11 10 -3 6 -1 10 4 10 6 0 11 -4 11 -10z
m2100 0 c8 -5 12 -11 9 -14 -3 -3 -14 1 -25 9 -21 16 -8 20 16 5z m-2730 -10
c0 -5 -9 -10 -20 -10 -11 0 -20 5 -20 10 0 6 9 10 20 10 11 0 20 -4 20 -10z
m207 -22 c-3 -8 -6 -5 -6 6 -1 11 2 17 5 13 3 -3 4 -12 1 -19z m163 12 c0 -5
-4 -10 -10 -10 -5 0 -10 5 -10 10 0 6 5 10 10 10 6 0 10 -4 10 -10z m-322 -18
c2 -7 -2 -10 -12 -6 -9 3 -16 11 -16 16 0 13 23 5 28 -10z m442 8 c13 -9 13
-10 0 -10 -8 0 -22 5 -30 10 -13 9 -13 10 0 10 8 0 22 -5 30 -10z m-380 -4 c0
-9 -30 -14 -35 -6 -4 6 3 10 14 10 12 0 21 -2 21 -4z m628 -91 c-3 -3 -14 -7
-26 -10 -15 -2 -21 3 -24 20 -3 14 0 26 8 29 8 3 14 18 15 33 0 23 3 19 16
-20 9 -26 14 -50 11 -52z m9 63 c-3 -7 -5 -2 -5 12 0 14 2 19 5 13 2 -7 2 -19
0 -25z m-3087 -1 c0 -9 -10 -12 -30 -9 -44 6 -47 22 -6 22 23 0 36 -5 36 -13z
m3040 3 c0 -5 -10 -10 -22 -10 -19 0 -20 2 -8 10 19 13 30 13 30 0z m651 -23
c12 -22 12 -22 -10 -3 -11 11 -21 23 -21 28 0 14 19 -1 31 -25z m-1301 13 c0
-5 -12 -10 -27 -9 l-28 1 25 8 c14 4 26 8 28 9 1 1 2 -3 2 -9z m1275 -20 c3
-5 1 -10 -4 -10 -6 0 -11 5 -11 10 0 6 2 10 4 10 3 0 8 -4 11 -10z m-9085 -20
c16 0 30 4 32 9 2 4 11 0 21 -9 16 -16 16 -19 2 -33 -8 -9 -15 -22 -15 -30 0
-27 -54 -137 -67 -137 -7 0 -13 -4 -13 -8 0 -5 -13 -28 -29 -53 -16 -24 -33
-56 -36 -71 -12 -46 -105 -55 -105 -11 0 7 -6 13 -12 13 -9 0 -14 20 -16 58
-2 48 1 64 20 87 12 16 21 39 20 52 -3 16 4 26 22 34 14 7 28 20 32 31 3 10
10 16 15 13 5 -4 9 -1 9 5 0 6 4 9 10 5 5 -3 17 2 27 12 10 10 26 17 37 15 14
-3 17 1 12 20 -3 12 -3 17 0 11 3 -7 18 -13 34 -13z m7770 10 c0 -5 -5 -10
-11 -10 -5 0 -7 5 -4 10 3 6 8 10 11 10 2 0 4 -4 4 -10z m46 -28 c-4 -3 -11 0
-16 8 -15 24 -11 33 6 15 9 -9 13 -19 10 -23z m39 28 c-3 -5 -10 -10 -16 -10
-5 0 -9 5 -9 10 0 6 7 10 16 10 8 0 12 -4 9 -10z m-3518 -42 c-3 -8 -6 -5 -6
6 -1 11 2 17 5 13 3 -3 4 -12 1 -19z m-1946 -78 c21 -85 22 -100 11 -100 -4 0
-9 12 -10 27 -1 14 -13 46 -27 71 -29 52 -33 85 -8 80 11 -2 22 -26 34 -78z
m5504 70 c14 -7 8 -8 -20 -3 -22 3 -42 7 -44 9 -9 8 45 2 64 -6z m1697 -15
c-17 -14 -35 -25 -41 -25 -6 0 -11 -4 -11 -10 0 -5 -6 -10 -13 -10 -8 0 -20
-12 -27 -27 -11 -23 -14 -25 -17 -10 -3 9 -6 17 -9 17 -10 0 -84 -84 -84 -96
0 -8 -4 -14 -9 -14 -17 0 -83 -149 -77 -174 3 -14 2 -34 -2 -45 -7 -19 -9 -20
-27 -7 -17 13 -18 18 -7 35 6 12 12 28 12 36 0 8 11 38 25 67 14 28 25 57 25
64 0 7 11 21 25 32 14 11 25 30 25 42 0 11 4 19 9 15 6 -3 20 8 33 25 12 17
41 40 63 51 22 11 56 29 75 39 49 28 67 25 32 -5z m-1786 -10 c4 -14 4 -29 0
-32 -3 -4 -6 3 -6 15 0 11 -8 26 -17 31 -17 10 -17 10 -1 11 11 0 20 -10 24
-25z m-3251 -1 c14 -9 25 -23 25 -30 0 -8 3 -14 8 -14 4 0 8 -15 9 -34 1 -19
9 -48 17 -65 15 -29 15 -32 -4 -51 -15 -15 -20 -17 -20 -5 0 8 -4 15 -9 15
-14 0 -46 61 -59 112 -15 59 -15 71 0 62 8 -5 9 -2 5 9 -8 21 -3 21 28 1z
m167 -9 c14 -19 8 -26 -12 -15 -11 6 -20 15 -20 20 0 12 22 9 32 -5z m3138 -4
c0 -19 -17 -38 -25 -29 -7 7 7 48 16 48 5 0 9 -9 9 -19z m-1413 -14 c0 -7 -10
-14 -21 -14 -21 -2 -21 -2 -2 13 24 17 23 17 23 1z m1543 3 c-19 -13 -30 -13
-30 0 0 6 10 10 23 10 18 0 19 -2 7 -10z m-6099 -72 c46 -48 50 -62 54 -166 2
-53 6 -109 10 -123 8 -33 -28 -78 -91 -115 -60 -35 -94 -28 -94 21 0 18 5 37
10 40 6 3 10 12 10 19 0 7 16 30 35 51 47 49 65 86 72 144 5 40 1 56 -21 93
-42 71 -34 89 15 36z m4665 11 c9 -16 34 -10 34 8 0 11 3 14 10 7 11 -11 -33
-140 -57 -166 -25 -28 -46 -23 -39 7 4 16 1 34 -9 48 -16 22 -12 80 7 103 9
13 45 8 54 -7z m1354 11 c0 -5 -2 -10 -4 -10 -3 0 -8 5 -11 10 -3 6 -1 10 4
10 6 0 11 -4 11 -10z m1984 -40 c9 0 13 -7 11 -20 -2 -11 1 -22 6 -26 5 -3 7
-14 4 -25 -5 -15 -1 -19 22 -20 17 -1 21 -3 10 -6 -9 -2 -15 -9 -12 -14 4 -5
-5 -13 -18 -18 -18 -7 -24 -17 -24 -37 0 -15 -9 -34 -19 -42 -13 -10 -15 -16
-6 -19 6 -3 12 -11 12 -19 0 -8 -6 -14 -12 -14 -9 0 -8 -4 2 -10 12 -8 11 -10
-7 -10 -13 0 -22 -6 -20 -12 1 -7 -8 -14 -21 -16 -12 -2 -20 -7 -17 -11 2 -5
-23 -23 -58 -42 -56 -29 -110 -69 -95 -69 3 0 2 -16 -2 -35 -4 -19 -4 -38 1
-41 9 -5 8 -32 -3 -49 -3 -6 -6 -27 -5 -49 1 -28 6 -40 22 -46 25 -11 75 -54
75 -67 0 -5 6 -15 13 -21 13 -14 18 -62 5 -62 -4 0 -14 -13 -20 -30 -13 -29
-14 -30 -42 -15 -15 8 -36 15 -45 16 -12 0 -12 2 4 9 l20 9 -20 1 c-11 2 -24
2 -28 1 -4 -1 -10 6 -14 16 -4 9 -24 34 -45 56 -26 27 -37 46 -33 58 3 9 1 20
-5 24 -5 3 -10 19 -10 36 0 16 -3 28 -7 28 -20 -3 -26 2 -13 11 10 6 11 10 3
10 -8 0 -13 13 -13 29 0 29 26 102 40 111 4 3 15 23 26 45 10 22 26 51 36 65
10 14 24 59 33 100 8 41 21 88 27 105 16 38 60 85 82 85 9 0 16 7 16 15 0 9
11 21 25 27 14 6 25 15 25 19 0 4 18 -1 40 -12 21 -10 46 -19 54 -19z m-7697
-2 c46 -49 56 -73 42 -100 -12 -24 -28 -38 -42 -38 -4 0 -3 9 3 20 12 23 -5
72 -39 108 -20 20 -21 42 -2 42 4 0 21 -15 38 -32z m6778 21 c11 -17 -1 -21
-15 -4 -8 9 -8 15 -2 15 6 0 14 -5 17 -11z m-7005 -15 c0 -8 -4 -12 -10 -9 -5
3 -10 10 -10 16 0 5 5 9 10 9 6 0 10 -7 10 -16z m2439 -51 c0 -33 -1 -35 -9
-15 -8 20 -4 52 6 52 2 0 4 -17 3 -37z m4848 -5 c-3 -8 -6 -5 -6 6 -1 11 2 17
5 13 3 -3 4 -12 1 -19z m-4227 -49 c6 -22 8 -49 5 -60 -7 -21 -45 -47 -45 -29
0 5 6 10 14 10 18 0 11 67 -9 89 -10 10 -11 17 -2 26 17 18 25 10 37 -36z
m-2393 -50 c6 -44 -9 -53 -28 -17 -7 13 -18 29 -26 36 -14 14 -18 54 -6 66 13
13 55 -46 60 -85z m826 22 c-2 -6 1 -11 7 -11 14 0 42 -104 38 -147 -4 -50
-30 -56 -48 -11 -7 18 -22 53 -33 77 -30 69 -31 90 -5 101 27 10 44 7 41 -9z
m2032 -103 c-20 -107 -29 -124 -100 -193 -29 -27 -58 -67 -65 -87 -8 -21 -18
-38 -23 -38 -5 0 -7 -7 -4 -15 4 -8 1 -17 -4 -21 -6 -3 -20 -27 -30 -52 -11
-26 -28 -54 -37 -63 -30 -28 -72 -52 -72 -41 0 6 3 12 8 14 10 4 51 68 102
158 24 41 58 96 77 121 33 47 153 290 153 311 0 6 3 9 6 6 3 -3 -2 -48 -11
-100z m-527 45 c-9 -2 -19 -12 -21 -21 -3 -12 -5 -10 -6 6 -1 17 4 22 22 21
15 -1 17 -3 5 -6z m-2968 -13 c0 -5 -4 -10 -9 -10 -6 0 -13 5 -16 10 -3 6 1
10 9 10 9 0 16 -4 16 -10z m1040 -40 c0 -5 -4 -10 -10 -10 -5 0 -10 5 -10 10
0 6 5 10 10 10 6 0 10 -4 10 -10z m106 -32 c4 -4 -13 -31 -37 -60 -25 -29 -52
-64 -61 -78 -8 -14 -26 -36 -38 -50 l-22 -25 3 35 c3 32 41 100 61 108 4 2 8
12 8 23 0 32 20 54 50 54 16 0 32 -3 36 -7z m1935 -49 c-9 -23 -10 -22 -10 11
-1 23 2 31 9 24 7 -7 7 -19 1 -35z m-5271 -29 c0 -5 -2 -10 -4 -10 -3 0 -8 5
-11 10 -3 6 -1 10 4 10 6 0 11 -4 11 -10z m6786 -15 c18 -13 17 -14 -17 -15
-21 0 -42 7 -49 15 -11 13 -8 15 17 15 16 0 38 -7 49 -15z m-6806 -16 c0 -5
-4 -9 -10 -9 -5 0 -10 7 -10 16 0 8 5 12 10 9 6 -3 10 -10 10 -16z m9451 -22
c-8 -8 -11 -7 -11 4 0 20 13 34 18 19 3 -7 -1 -17 -7 -23z m1299 -34 c-1 -26
-19 -35 -61 -28 -58 10 -69 18 -39 26 35 10 100 11 100 2z m-5950 -123 c-12
-75 -10 -148 6 -267 4 -30 10 -40 20 -36 8 3 14 -1 14 -9 0 -8 13 -27 30 -43
30 -28 100 -138 100 -156 0 -5 4 -9 9 -9 10 0 27 -39 23 -53 -1 -5 2 -6 7 -3
5 3 14 -8 21 -24 7 -16 18 -35 26 -41 8 -6 14 -18 14 -27 0 -9 9 -25 19 -36
30 -33 83 -145 75 -158 -4 -7 -4 -10 1 -6 4 4 15 -3 25 -14 17 -22 17 -22 39
27 12 26 47 77 79 113 31 35 75 85 96 111 22 25 36 37 32 27 -6 -18 -15 -55
-51 -213 l-17 -71 -56 -25 c-32 -13 -65 -27 -74 -30 -11 -4 -15 -13 -11 -27 8
-31 20 -33 52 -9 16 12 35 19 43 16 9 -4 8 -6 -4 -6 -9 -1 -20 -11 -23 -22 -5
-14 -10 -18 -14 -10 -6 9 -11 8 -20 -3 -9 -11 -10 -20 -1 -36 17 -33 5 -35
-15 -3 -10 15 -49 60 -88 100 -38 39 -69 75 -70 80 -1 4 -6 7 -10 5 -4 -1 -18
7 -30 19 -12 12 -32 28 -44 36 -13 8 -20 20 -16 27 3 6 3 8 -2 4 -4 -4 -29 8
-55 27 -27 20 -70 44 -97 56 -26 11 -67 30 -91 41 -46 23 -46 27 -15 96 9 18
13 35 10 38 -12 12 -121 7 -305 -14 -194 -22 -292 -27 -292 -16 0 4 30 40 68
81 37 41 78 89 92 106 41 50 219 220 325 309 54 46 115 97 134 115 21 18 40
28 45 23 5 -5 3 -43 -4 -90z m4660 0 c-25 -60 -30 -67 -25 -35 8 49 49 146 52
125 2 -8 -11 -49 -27 -90z m-2436 61 c19 -21 45 -85 46 -113 0 -26 -24 -22
-59 8 -26 21 -31 33 -31 68 0 60 13 71 44 37z m-1268 -75 c-13 -104 -25 -157
-41 -172 -15 -15 -16 -14 -11 7 13 60 15 118 8 164 -4 28 -6 58 -4 67 3 16 5
17 29 1 23 -16 25 -21 19 -67z m3277 77 c3 -5 8 -42 11 -83 8 -89 44 -209 57
-189 5 8 9 22 9 32 0 10 4 16 9 13 5 -4 11 0 14 6 3 9 11 6 26 -9 l22 -23 -23
3 c-21 2 -23 -2 -23 -40 0 -24 -3 -43 -8 -43 -4 0 -7 -6 -6 -12 3 -29 -4 -41
-10 -18 -7 23 -11 25 -58 22 -45 -3 -51 -1 -49 15 2 10 -1 24 -7 31 -5 6 -6
12 -2 12 4 0 3 6 -3 13 -7 8 -10 49 -9 103 4 114 30 201 50 167z m-793 -27 c0
-8 5 -16 11 -18 7 -2 -7 -10 -30 -18 -51 -16 -63 -7 -30 25 27 27 49 32 49 11z
m-2275 -166 c62 -60 116 -150 269 -441 67 -129 74 -145 56 -134 -6 4 -23 9
-38 11 -15 3 -52 11 -82 19 -70 18 -359 72 -426 79 l-51 6 5 -52 c4 -52 3 -53
-39 -85 -23 -18 -44 -31 -46 -29 -5 4 55 259 68 293 7 16 15 37 20 48 18 42
32 81 35 95 4 21 24 89 39 130 7 19 16 62 19 95 12 101 11 100 64 60 26 -20
74 -62 107 -95z m-557 100 c-7 -10 -14 -17 -17 -15 -4 4 18 35 25 35 2 0 -1
-9 -8 -20z m2609 -5 c-15 -16 -28 -10 -21 10 3 7 12 11 19 8 11 -4 12 -8 2
-18z m-7428 -27 c12 -15 11 -18 -3 -18 -10 0 -16 8 -16 22 0 12 1 19 3 17 1
-2 9 -12 16 -21z m4787 -23 c-3 -8 -9 -15 -14 -15 -13 0 -11 34 2 42 13 9 20
-7 12 -27z m2671 19 c-3 -3 -12 -4 -19 -1 -8 3 -5 6 6 6 11 1 17 -2 13 -5z
m-4744 -29 c8 -19 -13 -31 -23 -14 -9 14 -4 29 10 29 4 0 10 -7 13 -15z m5894
-137 c-3 -7 -5 -2 -5 12 0 14 2 19 5 13 2 -7 2 -19 0 -25z m530 -28 c0 -20 -3
-26 -9 -18 -10 17 -10 48 0 48 5 0 9 -14 9 -30z m-782 -4 l30 -14 -26 -10
c-35 -14 -125 -19 -121 -7 2 6 10 9 18 7 8 -2 14 2 14 8 0 5 7 10 16 10 8 0
12 5 9 10 -9 14 24 12 60 -4z m291 2 c5 -7 11 -35 16 -63 4 -27 10 -60 14 -72
8 -28 -17 -40 -51 -25 -22 10 -24 16 -20 65 7 94 21 127 41 95z m1089 -16 c-3
-3 -11 0 -18 7 -9 10 -8 11 6 5 10 -3 15 -9 12 -12z m-24 -8 c11 -14 10 -15
-11 -12 -13 1 -25 9 -28 16 -5 17 23 15 39 -4z m-4624 -26 c-3 -8 -6 -5 -6 6
-1 11 2 17 5 13 3 -3 4 -12 1 -19z m-18 -60 c-7 -13 -14 -29 -15 -36 -1 -7 -7
-34 -13 -60 -6 -26 -18 -92 -27 -148 -15 -102 -33 -167 -50 -184 -15 -15 -144
-61 -144 -51 0 6 4 20 9 34 5 13 12 40 15 59 7 45 35 130 47 143 5 5 9 17 9
28 0 24 57 138 86 172 13 15 28 24 33 21 6 -4 13 5 17 19 3 13 10 23 14 20 4
-3 11 3 15 13 5 11 9 13 12 5 2 -7 -1 -22 -8 -35z m4135 -23 c21 -20 23 -25
10 -25 -16 0 -43 26 -44 43 0 11 5 9 34 -18z m52 -85 c0 -14 3 -31 7 -37 4 -6
0 -24 -9 -39 -15 -29 -15 -29 -13 -4 2 42 -1 60 -10 60 -5 0 -7 -10 -4 -22 4
-18 3 -20 -6 -8 -5 8 -8 25 -4 37 3 14 1 23 -7 23 -6 0 -8 5 -5 11 4 5 17 9
28 7 16 -2 22 -10 23 -28z m-5931 -21 c-14 -18 -41 -63 -60 -101 -19 -38 -41
-76 -50 -84 -24 -25 -23 -141 2 -161 10 -8 12 -19 8 -34 -5 -14 -4 -19 4 -15
6 4 11 0 11 -8 0 -17 41 -200 94 -419 19 -75 31 -139 27 -141 -10 -6 -97 141
-116 194 -31 93 -60 122 -51 53 17 -127 26 -163 49 -202 26 -45 24 -73 -7 -93
-8 -5 -7 -11 2 -20 17 -17 15 -28 -5 -21 -19 8 -73 63 -73 75 0 5 -7 8 -15 8
-8 0 -15 -2 -15 -5 0 -13 49 -132 91 -222 40 -86 66 -163 54 -163 -1 0 -22 30
-46 68 -24 37 -51 75 -60 84 -10 10 -22 26 -28 35 -5 10 -13 15 -16 11 -7 -7
-6 -12 48 -180 29 -92 32 -108 18 -109 -9 -1 -5 -4 9 -8 14 -4 25 -11 25 -16
-4 -74 -20 -167 -31 -176 -8 -6 -11 -15 -8 -20 3 -5 1 -9 -5 -9 -5 0 -8 -11
-5 -25 2 -14 0 -25 -6 -25 -6 0 -9 3 -6 8 2 4 -12 8 -32 8 -21 1 -77 14 -127
29 -157 47 -208 62 -302 91 -51 15 -93 31 -93 35 0 4 15 51 34 106 19 54 48
148 66 210 17 61 53 175 80 253 28 78 50 154 50 169 0 33 164 518 207 612 23
50 41 74 74 97 24 16 53 40 64 52 15 18 143 87 163 90 2 0 -8 -14 -23 -31z
m-525 -34 c11 -20 11 -28 1 -38 -10 -9 -16 -7 -31 13 -11 14 -20 31 -20 38 0
22 36 13 50 -13z m3308 -18 c93 -48 157 -114 147 -151 -5 -17 -4 -18 4 -6 6 8
11 12 11 8 0 -3 3 -14 7 -24 5 -13 3 -15 -8 -9 -9 6 -9 2 3 -11 9 -10 19 -41
23 -69 11 -73 12 -76 28 -120 20 -53 41 -145 34 -152 -3 -3 -9 11 -12 31 -4
20 -11 33 -16 30 -5 -3 -9 3 -9 14 0 10 -3 22 -7 26 -5 4 -8 11 -9 14 0 4 -3
14 -6 22 -15 39 -17 50 -6 50 7 0 6 5 -2 15 -7 8 -20 14 -28 13 -10 -2 -18 5
-20 17 -2 11 -11 26 -20 34 -16 13 -16 13 1 8 9 -4 17 -2 17 3 0 14 -39 52
-48 46 -11 -6 -54 -95 -57 -115 -6 -54 -19 -101 -27 -101 -6 0 -7 7 -4 16 3 9
9 33 12 55 8 46 -10 54 -29 12 -11 -27 -12 -25 -15 30 -2 42 2 66 13 84 9 14
14 27 11 30 -3 3 2 12 12 20 16 14 16 14 0 9 -10 -3 -25 -9 -33 -12 -8 -3 -15
-1 -15 5 0 6 9 11 21 11 17 0 20 5 17 33 -2 26 -7 32 -26 31 -15 -1 -21 3 -18
11 2 7 -4 21 -15 31 -12 11 -17 24 -13 37 4 13 2 17 -5 13 -6 -4 -11 -2 -11 3
0 6 6 11 13 12 10 0 10 2 0 6 -14 5 -18 33 -5 33 4 0 44 -19 90 -43z m-6223
-184 c-4 -32 -3 -34 4 -13 l9 25 3 -25 c4 -40 -1 -64 -15 -78 -11 -11 -13 -1
-15 57 -1 42 2 71 8 71 5 0 8 -17 6 -37z m8166 6 c-5 -13 -10 -19 -10 -12 -1
15 10 45 15 40 3 -2 0 -15 -5 -28z m-6624 -20 c-3 -11 -1 -16 5 -13 17 11 5
-70 -14 -90 -10 -11 -18 -26 -18 -34 0 -8 -6 -12 -14 -9 -10 4 -13 1 -9 -9 3
-7 10 -14 17 -14 6 0 4 -5 -4 -10 -8 -5 -19 -10 -25 -10 -5 0 -3 5 5 10 20 13
-1 13 -35 0 -14 -5 -24 -14 -20 -19 6 -10 -24 -30 -54 -36 -11 -2 -17 4 -18
17 -2 20 -1 20 13 2 10 -14 13 -15 8 -3 -3 9 3 24 13 34 17 18 17 18 -10 13
-15 -3 -27 -1 -27 3 0 5 5 9 11 9 5 0 8 4 5 9 -4 5 -3 11 1 13 5 1 17 20 28
42 22 42 121 130 137 120 5 -3 8 -15 5 -25z m-1332 -46 c-9 -13 -13 -32 -10
-43 7 -21 -14 -38 -25 -20 -5 8 -9 5 -13 -10 -4 -16 -11 -21 -22 -16 -11 4
-14 2 -9 -6 5 -8 1 -9 -12 -4 -10 4 -15 4 -11 0 4 -4 -23 -27 -60 -50 l-68
-43 -11 47 c-15 67 -6 82 62 108 32 12 62 20 65 18 4 -2 12 3 19 11 11 14 40
21 40 11 0 -3 -9 -20 -21 -40 -19 -32 -19 -34 -2 -32 10 2 18 9 18 17 0 22 18
39 27 25 5 -7 8 -6 9 4 1 8 3 20 4 25 2 6 3 15 4 22 0 7 8 10 16 6 14 -5 14
-8 0 -30z m9053 -3 c4 0 25 -30 47 -66 22 -36 52 -81 67 -100 16 -21 24 -42
21 -52 -3 -9 -3 -14 2 -10 4 4 25 -16 45 -45 44 -60 57 -69 139 -97 l59 -21
74 47 c236 151 283 185 339 249 21 22 40 37 43 34 3 -3 -4 -29 -15 -59 -11
-29 -24 -73 -28 -97 -7 -36 -6 -43 8 -43 13 0 13 -2 2 -9 -9 -6 -10 -11 -2
-15 12 -8 15 -46 3 -46 -4 0 -9 -14 -10 -31 -2 -19 2 -28 8 -24 6 3 10 -3 10
-15 0 -12 6 -27 13 -35 25 -25 46 1 123 146 8 15 22 33 31 40 14 12 15 10 8
-21 -4 -18 -16 -50 -27 -69 -28 -49 -40 -84 -28 -76 6 3 10 2 10 -4 0 -5 -5
-13 -10 -16 -6 -4 -7 -11 -4 -17 5 -8 8 -130 4 -203 0 -5 -4 -4 -9 4 -6 10
-10 10 -16 1 -4 -6 -2 -17 4 -23 15 -15 14 -47 -3 -53 -8 -3 -31 5 -53 19 -21
13 -78 45 -128 71 -49 27 -119 68 -155 91 -54 36 -66 41 -73 29 -5 -9 -13 -77
-18 -152 -4 -75 -11 -157 -15 -182 -6 -46 -30 -80 -52 -72 -7 2 -10 -2 -6 -12
5 -12 2 -15 -10 -10 -12 5 -20 -3 -31 -30 -11 -25 -26 -40 -51 -51 l-36 -15
-49 46 c-43 42 -49 53 -55 103 -4 30 -15 69 -25 86 -60 100 -63 112 -47 231 1
6 49 26 107 44 65 20 98 35 86 38 -30 7 -68 39 -53 45 7 3 3 6 -9 6 -19 1 -97
-35 -128 -59 -5 -5 -59 -36 -120 -70 -60 -35 -127 -76 -147 -92 -21 -16 -42
-27 -47 -24 -5 3 -10 77 -10 165 -2 144 1 166 25 247 14 49 29 98 32 109 11
37 28 46 47 25 22 -25 34 -25 42 -2 3 9 14 24 23 34 10 9 20 42 25 80 5 34 10
55 12 46 3 -10 8 -18 11 -18z m-1129 -7 c1 9 6 17 12 17 6 0 9 -8 7 -17 -5
-25 -32 -23 -35 2 l-3 20 9 -20 c8 -17 10 -18 10 -2z m-130 -159 c-2 -200 -2
-196 -11 -182 -13 22 -5 329 8 315 2 -2 3 -62 3 -133z m128 113 c13 5 15 -31
3 -62 -5 -11 -14 -55 -21 -97 -6 -43 -18 -83 -25 -89 -19 -15 -18 2 1 65 8 27
15 69 15 93 0 23 5 43 10 43 6 0 10 5 10 11 0 8 -5 8 -15 -1 -8 -7 -15 -25
-15 -41 0 -16 -4 -29 -10 -29 -5 0 -10 -13 -10 -29 0 -17 -4 -33 -10 -36 -5
-3 -10 -22 -10 -41 0 -19 -4 -34 -10 -34 -5 0 -10 3 -10 8 0 22 33 158 42 176
6 12 10 22 9 24 -1 1 1 17 4 34 6 27 9 29 19 17 6 -9 16 -14 23 -12z m-6572
-17 c3 -5 2 -10 -4 -10 -5 0 -13 5 -16 10 -3 6 -2 10 4 10 5 0 13 -4 16 -10z
m-326 -54 c-3 -3 -11 5 -18 17 -13 21 -12 21 5 5 10 -10 16 -20 13 -22z m304
19 c-3 -9 -8 -14 -10 -11 -3 3 -2 9 2 15 9 16 15 13 8 -4z m8864 -27 c-3 -7
-5 -2 -5 12 0 14 2 19 5 13 2 -7 2 -19 0 -25z m-2077 3 c0 -6 -4 -13 -10 -16
-5 -3 -10 1 -10 9 0 9 5 16 10 16 6 0 10 -4 10 -9z m-7040 -49 c15 -16 23 -62
12 -62 -13 0 -39 32 -46 58 -4 12 -12 22 -17 22 -5 0 -4 6 3 14 11 13 15 13
25 -2 7 -9 17 -23 23 -30z m177 32 c-3 -3 -12 -4 -19 -1 -8 3 -5 6 6 6 11 1
17 -2 13 -5z m8961 -59 c-3 -3 -9 2 -12 12 -6 14 -5 15 5 6 7 -7 10 -15 7 -18z
m-5558 5 c0 -5 -5 -9 -11 -7 -6 1 -12 -8 -14 -20 -1 -14 4 -23 12 -23 7 0 13
-11 13 -25 0 -30 -14 -32 -33 -5 -8 11 -16 17 -19 15 -3 -3 -8 1 -12 10 -4 11
-2 14 7 10 6 -4 3 1 -7 9 -11 9 -18 16 -15 17 35 6 44 10 47 18 5 14 32 14 32
1z m1360 0 c0 -6 -5 -18 -10 -28 -6 -9 -20 -42 -31 -72 -18 -51 -20 -52 -15
-16 6 44 37 126 49 126 4 0 7 -5 7 -10z m-6165 -50 c3 -6 0 -12 -7 -15 -7 -3
-14 -17 -15 -31 -2 -41 -21 -52 -29 -18 -5 18 -3 29 4 32 7 2 12 12 12 23 0
20 24 26 35 9z m4898 -10 c-3 -11 -13 -25 -22 -29 -13 -7 -16 -4 -17 15 -2 20
1 23 12 13 12 -10 13 -9 8 5 -4 10 -1 16 9 16 10 0 13 -7 10 -20z m-2349 -90
c-9 -16 -12 -35 -8 -42 5 -8 10 -6 16 8 6 13 7 8 3 -15 -3 -19 -7 -37 -10 -39
-10 -10 -33 27 -36 59 -4 41 6 59 31 59 17 0 17 -2 4 -30z m3550 -15 c3 -8 1
-15 -4 -15 -6 0 -10 7 -10 15 0 8 2 15 4 15 2 0 6 -7 10 -15z m1931 5 c3 -5 1
-10 -4 -10 -6 0 -11 5 -11 10 0 6 2 10 4 10 3 0 8 -4 11 -10z m-56 -27 c0 -25
-1 -25 -8 -8 -5 11 -7 23 -4 28 8 14 13 7 12 -20z m-7993 -31 c-4 -3 -11 -1
-17 5 -8 8 -8 15 2 26 12 13 14 13 17 -5 2 -11 1 -22 -2 -26z m8040 21 c-7 -7
-26 7 -26 19 0 6 6 6 15 -2 9 -7 13 -15 11 -17z m4 -17 c0 -2 -6 -9 -13 -15
-10 -8 -14 -7 -14 4 0 8 6 15 14 15 7 0 13 -2 13 -4z m2317 -28 c-3 -8 -6 -5
-6 6 -1 11 2 17 5 13 3 -3 4 -12 1 -19z m-10357 2 c0 -5 -4 -10 -10 -10 -5 0
-10 5 -10 10 0 6 5 10 10 10 6 0 10 -4 10 -10z m143 -28 c10 -10 14 -22 10
-26 -13 -12 -31 -86 -23 -91 4 -2 5 -16 2 -30 -5 -28 22 -57 45 -48 7 3 14 -1
15 -8 0 -8 2 -19 2 -25 1 -6 9 -23 19 -38 41 -61 43 -205 3 -190 -28 11 -39
-114 -61 -676 -8 -212 -19 -416 -24 -455 -5 -38 -15 -112 -22 -163 -7 -60 -17
-96 -25 -99 -8 -3 -31 -1 -51 4 -32 8 -38 13 -35 34 1 13 8 80 16 149 8 69 17
265 20 435 3 171 11 391 17 490 6 99 12 192 13 207 0 14 3 26 6 25 6 -1 95 52
124 75 17 13 21 27 21 70 0 46 -5 61 -36 103 -25 36 -43 51 -63 53 -18 2 -26
8 -23 16 7 17 -29 76 -45 76 -36 1 -38 16 -11 73 25 51 31 57 59 57 17 0 38
-8 47 -18z m-148 -12 c3 -5 1 -10 -4 -10 -6 0 -11 5 -11 10 0 6 2 10 4 10 3 0
8 -4 11 -10z m7327 -52 c-7 -7 -12 -8 -12 -2 0 14 12 26 19 19 2 -3 -1 -11 -7
-17z m-855 -85 c-3 -10 -5 -2 -5 17 0 19 2 27 5 18 2 -10 2 -26 0 -35z m-94
12 c-3 -9 -8 -14 -10 -11 -3 3 -2 9 2 15 9 16 15 13 8 -4z m74 -51 c-3 -3 -12
-4 -19 -1 -8 3 -5 6 6 6 11 1 17 -2 13 -5z m3 -29 c0 -9 7 -27 16 -41 9 -13
14 -27 10 -31 -3 -3 -2 -11 3 -17 15 -19 24 -76 11 -76 -7 0 -5 -8 4 -22 22
-30 22 -128 1 -128 -8 0 -15 -5 -15 -11 0 -8 14 -10 45 -6 44 7 45 6 43 -21
-1 -15 3 -36 8 -47 6 -11 9 -30 8 -42 0 -13 2 -23 6 -23 4 0 7 -14 7 -31 0
-17 6 -35 14 -40 11 -7 10 -9 -6 -10 -11 0 -15 -3 -9 -5 17 -7 5 -44 -13 -44
-9 0 -107 -23 -220 -50 -214 -53 -223 -53 -231 -7 -3 15 1 18 20 13 16 -4 14
-2 -6 8 -16 7 -25 15 -19 17 13 5 26 59 14 59 -5 0 -11 17 -13 38 -2 25 -8 37
-18 37 -8 0 -16 8 -18 18 -2 9 1 17 7 17 6 0 11 -5 11 -11 0 -5 4 -8 9 -5 5 4
12 0 15 -6 3 -7 3 -3 1 8 -6 24 -11 22 180 77 39 11 88 26 110 33 44 14 45 14
-49 15 -21 1 -25 3 -15 10 8 5 32 7 54 4 l40 -4 -35 10 c-19 6 -41 13 -47 15
-20 5 -15 25 7 31 16 4 20 13 18 40 -1 19 -8 39 -15 45 -7 5 -10 14 -7 19 3 5
-2 9 -12 9 -14 0 -14 -3 -4 -16 11 -13 10 -16 -9 -21 -20 -5 -21 -7 -5 -24 20
-22 11 -39 -22 -39 -19 0 -24 5 -24 24 0 13 -3 31 -6 39 -3 10 0 14 10 14 8
-1 15 3 15 8 0 6 -8 9 -17 7 -15 -2 -15 -1 -2 7 8 6 23 11 33 11 19 0 23 15 6
25 -14 10 22 43 41 38 8 -2 21 5 28 17 11 18 10 20 -13 20 -14 0 -25 5 -25 11
0 5 -5 7 -11 4 -6 -4 -8 -13 -5 -21 3 -8 -1 -14 -9 -14 -17 0 -20 16 -5 25 6
4 7 11 4 17 -4 7 5 8 27 3 29 -7 32 -6 21 7 -15 19 -6 28 30 28 18 0 28 -5 28
-15z m4497 9 c-3 -3 -12 -4 -19 -1 -8 3 -5 6 6 6 11 1 17 -2 13 -5z m-10850
-46 c-3 -7 -5 -2 -5 12 0 14 2 19 5 13 2 -7 2 -19 0 -25z m5269 -94 c30 -29
39 -32 121 -36 48 -3 104 -13 123 -21 l35 -16 -37 5 c-28 5 -38 3 -38 -7 0
-11 -2 -11 -10 1 -9 13 -10 13 -10 -1 0 -14 64 -36 121 -42 9 -1 15 -7 12 -13
-4 -10 -13 -9 -43 1 -35 12 -43 12 -79 -6 l-41 -19 -41 26 c-38 23 -48 26
-101 20 -50 -6 -58 -5 -58 10 0 13 3 14 15 4 8 -6 19 -9 26 -5 6 4 33 10 60
14 37 5 46 9 40 20 -6 10 -21 11 -59 6 -41 -5 -50 -10 -46 -23 4 -13 2 -12
-11 3 -11 14 -12 21 -4 24 7 2 2 10 -12 18 -23 14 -23 14 -1 9 12 -3 32 -8 45
-11 22 -5 22 -5 1 4 -12 5 -25 14 -28 20 -4 6 -12 8 -19 5 -16 -6 -50 30 -54
58 -3 18 -1 19 14 7 15 -13 16 -12 10 11 -6 24 -5 23 16 -5 11 -16 36 -44 53
-61z m219 56 l-20 -9 20 -1 c11 -1 14 -4 8 -7 -7 -2 -22 2 -33 10 -19 13 -19
14 12 14 27 1 29 -1 13 -7z m-5498 -42 c-3 -7 -5 -2 -5 12 0 14 2 19 5 13 2
-7 2 -19 0 -25z m5380 -10 c18 -21 18 -21 -14 -4 -37 19 -51 36 -24 29 11 -3
28 -14 38 -25z m239 23 c12 10 13 9 8 -5 -3 -9 -12 -16 -20 -16 -8 0 -14 -6
-14 -12 0 -7 -7 -22 -15 -32 -15 -19 -15 -19 -15 3 0 14 4 20 11 15 9 -5 10 1
5 20 -4 18 -3 25 4 21 5 -3 10 0 11 7 0 10 2 11 6 0 4 -10 8 -10 19 -1z m-4
-53 c-7 -7 -12 -8 -12 -2 0 14 12 26 19 19 2 -3 -1 -11 -7 -17z m-5625 -45
c-3 -10 -5 -4 -5 12 0 17 2 24 5 18 2 -7 2 -21 0 -30z m10783 -10 c1 -10 9
-40 19 -68 10 -27 21 -59 25 -70 5 -13 2 -11 -8 5 -14 23 -15 23 -17 5 -1 -11
-7 7 -14 40 -8 33 -17 70 -20 83 -5 14 -3 22 4 22 6 0 11 -8 11 -17z m-10780
-28 c0 -8 -2 -15 -4 -15 -2 0 -6 7 -10 15 -3 8 -1 15 4 15 6 0 10 -7 10 -15z
m5237 -14 c9 -26 8 -30 -13 -40 -23 -10 -24 -9 -18 14 4 17 2 25 -6 25 -10 0
-10 3 0 15 18 21 24 19 37 -14z m967 -8 c-10 -40 -14 -41 -14 -5 0 18 5 32 10
32 6 0 8 -11 4 -27z m2770 18 c3 -5 -5 -11 -18 -13 -17 -4 -23 -1 -19 9 6 15
29 18 37 4z m743 -23 c-3 -7 -5 -2 -5 12 0 14 2 19 5 13 2 -7 2 -19 0 -25z
m-9537 7 c-7 -9 -15 -13 -17 -11 -7 7 7 26 19 26 6 0 6 -6 -2 -15z m5459 -26
c-7 -4 -9 -14 -6 -23 7 -17 -1 -20 -21 -8 -10 7 -10 15 -2 36 9 24 13 26 26
15 11 -9 12 -14 3 -20z m4335 5 c17 -17 21 -34 8 -34 -5 0 -18 -9 -30 -20 -17
-17 -26 -19 -42 -10 -21 11 -36 52 -25 69 10 17 72 13 89 -5z m-3728 -9 c-3
-8 0 -15 6 -15 6 0 9 -3 5 -6 -8 -8 -47 5 -47 16 0 5 7 7 15 4 8 -4 15 -1 15
5 0 6 3 11 6 11 3 0 4 -7 0 -15z m2722 -22 c-7 -9 -16 -10 -29 -2 -26 13 -24
16 10 15 22 -1 27 -4 19 -13z m-2711 -39 c-3 -3 -12 -4 -19 -1 -8 3 -5 6 6 6
11 1 17 -2 13 -5z m3965 -26 c-7 -7 -12 -8 -12 -2 0 14 12 26 19 19 2 -3 -1
-11 -7 -17z m633 -15 c-3 -9 2 -27 11 -41 9 -13 11 -21 5 -17 -8 5 -10 -2 -5
-22 11 -45 34 -97 47 -105 9 -6 9 -8 -1 -8 -9 0 -11 -10 -6 -36 5 -29 4 -35
-6 -29 -8 5 -11 4 -6 -3 11 -18 7 -343 -5 -407 -6 -33 -12 -69 -13 -81 -1 -11
-6 -27 -12 -35 -5 -7 -9 -17 -9 -21 0 -3 -4 -10 -8 -15 -5 -4 -6 17 -2 47 22
212 24 308 9 490 -4 47 -6 110 -6 140 1 30 -3 76 -9 102 -11 48 -6 73 12 62 6
-3 8 -13 4 -21z m-45 -8 c14 -19 14 -19 -2 -6 -10 7 -18 18 -18 24 0 6 1 8 3
6 1 -2 9 -13 17 -24z m-620 -95 c-13 -8 -13 -13 -1 -32 10 -18 10 -20 0 -10
-18 17 -32 15 -25 -3 3 -8 2 -15 -3 -15 -16 0 -19 13 -8 33 14 25 40 47 47 41
2 -3 -2 -9 -10 -14z m-4183 -32 c-3 -8 -6 -5 -6 6 -1 11 2 17 5 13 3 -3 4 -12
1 -19z m4906 -18 c3 -11 2 -18 -3 -15 -4 3 -10 14 -13 25 -3 11 -2 18 3 15 4
-3 10 -14 13 -25z m-2079 4 c21 -8 21 -58 0 -74 -13 -11 -19 -10 -36 8 -20 20
-20 22 -4 46 18 29 18 29 40 20z m1127 -33 c21 -17 22 -21 10 -44 -7 -14 -23
-28 -35 -31 -24 -6 -66 18 -66 39 0 8 -1 18 -1 23 -2 8 40 32 57 32 7 0 22 -9
35 -19z m-3391 5 c0 -2 -9 -6 -20 -9 -11 -3 -18 -1 -14 4 5 9 34 13 34 5z
m4380 -55 c0 -5 3 -16 6 -25 3 -9 1 -16 -5 -16 -6 0 -11 7 -11 15 0 8 -5 15
-11 15 -5 0 -7 5 -4 10 8 13 25 13 25 1z m-827 -68 c4 -3 -5 -15 -20 -25 -16
-10 -24 -18 -20 -18 4 0 -3 -15 -17 -33 -15 -19 -26 -38 -26 -42 0 -4 -11 -23
-25 -41 -28 -37 -32 -69 -10 -90 23 -23 18 -40 -5 -19 -20 18 -20 18 -14 -13
6 -27 3 -32 -20 -38 -32 -8 -53 8 -61 48 -5 23 -2 34 14 49 11 10 28 19 37 19
13 0 14 3 5 13 -8 10 -3 23 19 54 17 23 37 44 46 47 9 3 14 13 10 21 -3 8 0
17 6 21 7 5 8 2 4 -7 -4 -8 0 -5 8 5 9 11 16 23 16 28 0 4 7 8 15 8 8 0 15 5
15 10 0 11 13 13 23 3z m852 -3 c3 -5 1 -10 -4 -10 -6 0 -11 5 -11 10 0 6 2
10 4 10 3 0 8 -4 11 -10z m41 -147 c-5 -5 -36 92 -35 109 1 7 10 -14 20 -46
11 -33 17 -61 15 -63z m-11726 -43 c0 -14 -9 -36 -20 -50 -36 -46 -23 -155 27
-211 12 -14 11 -20 -4 -48 -10 -17 -22 -31 -27 -31 -5 0 -3 7 4 15 9 10 9 15
1 15 -6 0 -11 -3 -12 -7 -3 -27 -9 -47 -18 -56 -6 -6 -11 -21 -11 -33 0 -13
-5 -26 -11 -29 -7 -5 -4 -14 7 -26 17 -19 7 -28 -12 -9 -6 6 -15 5 -24 -1 -13
-10 -13 -10 0 -6 8 2 21 -2 28 -9 12 -13 8 -18 -9 -16 -4 1 -5 -7 -2 -17 3
-11 -1 -18 -11 -18 -8 0 -13 4 -10 9 3 4 1 8 -5 8 -6 0 -8 6 -5 14 3 7 -2 16
-10 19 -21 8 -20 27 1 27 16 0 16 1 0 13 -19 14 -22 61 -15 248 6 135 12 153
61 178 15 8 27 18 27 23 0 4 8 16 18 26 20 21 32 10 32 -28z m9433 19 c16 -26
-17 -73 -42 -59 -25 13 -30 30 -20 58 10 27 46 27 62 1z m-135 -311 c14 -14
16 -44 3 -52 -5 -4 -7 4 -4 15 4 15 0 27 -12 35 -11 8 -14 14 -9 14 6 0 15 -5
22 -12z m2204 -23 c-2 -14 -6 -25 -8 -25 -2 0 -4 11 -4 25 0 14 4 25 9 25 4 0
6 -11 3 -25z m-2240 -32 c7 -9 7 -13 -1 -13 -14 0 -31 41 -23 55 4 6 8 1 10
-10 2 -11 9 -26 14 -32z m-1170 -95 c-2 -9 -16 -19 -31 -22 -58 -12 -121 -18
-121 -12 0 12 53 40 88 45 59 10 69 8 64 -11z m2636 6 c22 -15 30 -44 12 -44
-5 0 -13 7 -18 16 -6 11 -12 13 -16 6 -3 -6 -2 -13 4 -17 16 -10 12 -23 -9
-35 -27 -14 -47 -4 -61 31 -10 23 -10 32 0 44 16 19 60 19 88 -1z m511 -185
c-7 -17 -16 -26 -21 -21 -5 5 -1 25 9 48 12 29 18 34 21 21 2 -10 -2 -32 -9
-48z m-2039 -13 c0 -47 -54 -59 -69 -15 -3 9 2 8 14 -4 9 -10 22 -16 29 -14
19 6 19 48 -1 63 -17 14 -16 14 5 4 13 -7 22 -20 22 -34z m-56 19 c-4 -8 -11
-15 -16 -15 -6 0 -5 6 2 15 7 8 14 15 16 15 2 0 1 -7 -2 -15z m1593 -137 c29
-27 29 -43 1 -62 -29 -21 -57 -20 -80 1 -25 22 -23 58 5 71 33 16 48 14 74
-10z m-1647 -173 c6 -8 10 -22 7 -32 -4 -14 -5 -13 -6 5 -1 29 -27 39 -55 22
-19 -12 -20 -12 -7 3 17 21 45 22 61 2z m-5743 -27 c-3 -7 -5 -2 -5 12 0 14 2
19 5 13 2 -7 2 -19 0 -25z m5697 -14 c3 -8 2 -12 -4 -9 -6 3 -10 10 -10 16 0
14 7 11 14 -7z m-8180 -72 c19 -38 27 -87 20 -122 -7 -34 -28 -39 -44 -11 -15
29 -12 38 5 15 14 -18 14 -18 16 11 3 45 -1 77 -12 98 -14 25 -21 16 -30 -36
l-6 -42 -2 51 c-2 74 24 92 53 36z m9900 -54 c13 -22 1 -35 -19 -18 -20 17
-19 1 1 -22 16 -16 15 -18 -7 -27 -31 -12 -61 6 -70 42 -5 20 -3 30 9 37 25
14 73 8 86 -12z m-5273 -9 c33 -17 23 -39 -18 -39 l-38 -1 25 -14 c25 -14 25
-14 -10 -9 -19 4 -66 15 -105 25 -38 11 -99 20 -135 20 l-65 2 65 8 c36 5 85
12 110 17 55 9 146 5 171 -9z m914 -39 c-3 -5 -14 -8 -24 -7 -16 1 -18 5 -10
20 8 14 13 16 25 7 7 -7 11 -16 9 -20z m2603 -92 c7 -7 12 -19 11 -27 0 -11
-3 -10 -8 4 -4 11 -19 23 -32 26 -21 6 -21 7 -3 8 11 1 25 -4 32 -11z m-51
-30 c-3 -8 -6 -5 -6 6 -1 11 2 17 5 13 3 -3 4 -12 1 -19z m-2627 -12 c0 -3 -4
-8 -10 -11 -5 -3 -10 -1 -10 4 0 6 5 11 10 11 6 0 10 -2 10 -4z m2660 -16 c8
-5 11 -10 5 -10 -5 0 -17 5 -25 10 -8 5 -10 10 -5 10 6 0 17 -5 25 -10z
m-2765 -10 c3 -5 1 -10 -4 -10 -6 0 -11 5 -11 10 0 6 2 10 4 10 3 0 8 -4 11
-10z m4552 -145 c1 -11 3 -29 5 -40 3 -23 -35 -34 -56 -15 -22 17 -26 59 -7
70 25 15 56 7 58 -15z m33 -16 c0 -6 -4 -7 -10 -4 -5 3 -10 11 -10 16 0 6 5 7
10 4 6 -3 10 -11 10 -16z m-1851 -73 c-3 -3 -11 5 -18 17 -13 21 -12 21 5 5
10 -10 16 -20 13 -22z m-3869 -82 c0 -2 -6 -13 -12 -24 -10 -16 -10 -24 0 -40
19 -32 13 -47 -8 -20 -21 27 -26 55 -10 65 5 3 7 12 3 20 -4 11 -1 13 11 9 9
-3 16 -8 16 -10z m-60 -99 c14 -19 14 -19 -2 -6 -10 7 -18 18 -18 24 0 6 1 8
3 6 1 -2 9 -13 17 -24z m1415 -17 c18 -8 22 -14 13 -20 -20 -12 -26 -10 -38
12 -12 23 -10 24 25 8z m4396 -18 c6 0 8 -9 4 -19 -3 -11 -1 -22 5 -26 5 -3
10 -10 10 -14 0 -11 -38 -21 -55 -15 -12 5 -35 46 -35 64 0 10 30 19 48 14 8
-2 18 -4 23 -4z m-5781 -10 c0 -5 -5 -10 -11 -10 -7 0 -9 -10 -5 -24 5 -22 4
-24 -21 -20 -37 7 -37 7 -7 37 28 28 44 34 44 17z m1466 -37 c-8 -8 -36 10
-36 25 0 13 3 12 20 -3 11 -10 18 -20 16 -22z m4354 16 c0 -6 -4 -7 -10 -4 -5
3 -10 11 -10 16 0 6 5 7 10 4 6 -3 10 -11 10 -16z m-4301 -38 c11 -7 11 -10 0
-17 -7 -4 -14 -3 -17 4 -2 7 -9 9 -14 6 -7 -4 -8 -2 -4 4 8 14 16 15 35 3z
m911 -11 c0 -5 -16 -10 -36 -10 -21 0 -33 4 -29 10 3 6 19 10 36 10 16 0 29
-4 29 -10z m-850 -40 c0 -5 -4 -10 -10 -10 -5 0 -10 5 -10 10 0 6 5 10 10 10
6 0 10 -4 10 -10z m-6225 -61 c-3 -34 -10 -69 -15 -78 -8 -14 -9 -14 -15 2 -4
9 -1 25 6 34 12 14 12 16 0 8 -12 -7 -13 -1 -8 31 4 21 7 45 7 52 0 6 7 12 15
12 12 0 14 -11 10 -61z m6255 47 c0 -3 -4 -8 -10 -11 -5 -3 -10 -1 -10 4 0 6
5 11 10 11 6 0 10 -2 10 -4z m45 -37 c11 -17 -1 -21 -15 -4 -8 9 -8 15 -2 15
6 0 14 -5 17 -11z m2084 -95 c20 -15 22 -22 16 -63 -4 -25 -11 -50 -17 -56 -6
-7 -9 -7 -7 0 2 6 -1 30 -6 55 -5 25 -8 49 -6 54 1 5 -4 13 -11 17 -7 5 -8 9
-3 9 6 0 21 -7 34 -16z m-3772 -26 c-3 -7 -5 -2 -5 12 0 14 2 19 5 13 2 -7 2
-19 0 -25z m3542 -5 c6 -21 11 -55 11 -75 0 -32 -3 -38 -21 -38 -19 0 -20 4
-15 35 4 22 2 45 -7 62 -16 31 -12 53 8 53 8 0 19 -17 24 -37z m2381 -13 c0
-5 -5 -10 -10 -10 -6 0 -5 -8 2 -19 7 -11 15 -18 19 -15 4 2 10 0 14 -6 3 -5
0 -10 -9 -10 -8 0 -20 -2 -28 -5 -18 -7 -44 14 -52 42 -5 16 -2 23 11 26 32 8
53 7 53 -3z m34 -16 c3 -8 2 -12 -4 -9 -6 3 -10 10 -10 16 0 14 7 11 14 -7z
m-5957 -126 c-3 -7 -5 -2 -5 12 0 14 2 19 5 13 2 -7 2 -19 0 -25z"/>
<path d="M1121 6124 c0 -11 3 -14 6 -6 3 7 2 16 -1 19 -3 4 -6 -2 -5 -13z"/>
<path d="M1346 6132 c-2 -4 -1 -14 5 -22 6 -11 9 -12 9 -2 0 7 4 11 9 7 5 -3
12 -1 15 4 3 5 -1 12 -10 15 -20 8 -22 8 -28 -2z"/>
<path d="M1330 6080 c0 -13 11 -13 30 0 12 8 11 10 -7 10 -13 0 -23 -4 -23
-10z"/>
<path d="M400 6140 c0 -5 7 -10 15 -10 8 0 15 5 15 10 0 6 -7 10 -15 10 -8 0
-15 -4 -15 -10z"/>
<path d="M736 6115 c-11 -8 -16 -18 -11 -22 4 -5 10 -2 12 5 3 6 11 12 19 12
8 0 14 5 14 10 0 14 -11 12 -34 -5z"/>
<path d="M780 6101 c0 -5 11 -8 25 -8 14 0 25 3 25 8 0 5 -11 9 -25 9 -14 0
-25 -4 -25 -9z"/>
<path d="M425 6080 c-3 -5 -2 -10 4 -10 5 0 13 5 16 10 3 6 2 10 -4 10 -5 0
-13 -4 -16 -10z"/>
<path d="M476 6067 c3 -10 9 -15 12 -12 3 3 0 11 -7 18 -10 9 -11 8 -5 -6z"/>
<path d="M605 6070 c-3 -5 1 -10 9 -10 9 0 16 5 16 10 0 6 -4 10 -9 10 -6 0
-13 -4 -16 -10z"/>
<path d="M8151 5896 c-1 -29 2 -37 10 -29 8 8 8 19 1 40 -10 28 -10 28 -11
-11z"/>
<path d="M8530 5765 c0 -8 -5 -15 -12 -15 -6 0 -9 -3 -5 -6 3 -3 15 0 26 8 12
8 18 18 14 21 -11 12 -23 8 -23 -8z"/>
<path d="M8415 5750 c-3 -5 1 -10 9 -10 9 0 16 5 16 10 0 6 -4 10 -9 10 -6 0
-13 -4 -16 -10z"/>
<path d="M8474 5735 c-7 -17 3 -35 19 -35 8 0 8 3 0 11 -6 6 -9 18 -6 25 3 8
2 14 -1 14 -4 0 -9 -7 -12 -15z"/>
<path d="M8261 5724 c0 -11 3 -14 6 -6 3 7 2 16 -1 19 -3 4 -6 -2 -5 -13z"/>
<path d="M8366 5656 c3 -9 11 -16 16 -16 13 0 5 23 -10 28 -7 2 -10 -2 -6 -12z"/>
<path d="M8253 5585 c-19 -21 -16 -27 7 -13 11 7 20 16 20 20 0 12 -14 9 -27
-7z"/>
<path d="M8360 5592 c0 -7 -14 -12 -31 -12 -16 0 -28 -4 -25 -9 3 -4 17 -6 31
-3 26 5 41 19 31 29 -3 4 -6 1 -6 -5z"/>
<path d="M8400 5580 c0 -5 7 -10 15 -10 8 0 15 5 15 10 0 6 -7 10 -15 10 -8 0
-15 -4 -15 -10z"/>
<path d="M8220 4571 c0 -6 11 -13 23 -17 19 -4 23 -11 19 -30 -3 -15 0 -24 8
-24 7 0 10 -8 7 -20 -5 -21 1 -24 27 -14 21 8 20 20 -4 44 -12 12 -18 25 -15
29 6 11 -13 26 -42 35 -14 5 -23 3 -23 -3z"/>
<path d="M8232 4479 c-7 -12 -11 -23 -8 -26 8 -9 36 17 36 33 0 20 -13 17 -28
-7z"/>
<path d="M8252 4449 c5 -17 48 -25 48 -10 0 6 -4 11 -9 11 -5 0 -17 3 -27 7
-12 4 -15 2 -12 -8z"/>
<path d="M8224 4429 c-7 -13 14 -39 32 -39 20 0 17 13 -6 32 -12 11 -22 13
-26 7z"/>
<path d="M8220 4376 c0 -8 5 -18 10 -21 6 -3 10 3 10 14 0 12 -4 21 -10 21 -5
0 -10 -6 -10 -14z"/>
<path d="M8215 4290 c4 -6 11 -8 16 -5 14 9 11 15 -7 15 -8 0 -12 -5 -9 -10z"/>
<path d="M8706 5561 c-4 -7 -5 -15 -2 -18 9 -9 19 4 14 18 -4 11 -6 11 -12 0z"/>
<path d="M488 5743 c6 -2 18 -2 25 0 6 3 1 5 -13 5 -14 0 -19 -2 -12 -5z"/>
<path d="M465 5720 c-3 -5 -1 -10 4 -10 6 0 11 5 11 10 0 6 -2 10 -4 10 -3 0
-8 -4 -11 -10z"/>
<path d="M6317 5663 c-12 -12 -7 -22 8 -17 8 4 15 10 15 15 0 11 -14 12 -23 2z"/>
<path d="M6182 5504 c7 -15 14 -21 16 -15 5 16 -5 41 -17 41 -7 0 -6 -10 1
-26z"/>
<path d="M5775 5048 c12 -56 38 -75 50 -38 8 25 -19 70 -41 70 -12 0 -14 -7
-9 -32z"/>
<path d="M5690 4990 c0 -5 6 -10 14 -10 8 0 18 5 21 10 3 6 -3 10 -14 10 -12
0 -21 -4 -21 -10z"/>
<path d="M8990 5385 c0 -8 5 -15 10 -15 6 0 10 7 10 15 0 8 -4 15 -10 15 -5 0
-10 -7 -10 -15z"/>
<path d="M10378 5013 c7 -3 16 -2 19 1 4 3 -2 6 -13 5 -11 0 -14 -3 -6 -6z"/>
<path d="M10050 4588 c0 -9 5 -20 10 -23 13 -8 13 5 0 25 -8 13 -10 13 -10 -2z"/>
<path d="M5240 4019 c0 -17 4 -28 10 -24 6 3 10 17 10 31 0 13 -4 24 -10 24
-5 0 -10 -14 -10 -31z"/>
<path d="M5270 3993 c0 -23 -23 -47 -35 -35 -5 4 -5 2 -1 -5 4 -7 14 -9 23 -6
13 5 15 2 10 -11 -4 -11 -3 -15 4 -11 6 4 8 14 5 22 -4 9 -1 22 5 30 9 10 9
17 1 25 -9 9 -12 7 -12 -9z"/>
<path d="M5317 3867 c-6 -15 29 -21 38 -6 4 5 -2 6 -11 2 -12 -4 -15 -3 -10 5
4 7 3 12 -2 12 -6 0 -12 -6 -15 -13z"/>
<path d="M3947 2779 c28 -48 60 -79 82 -79 20 0 20 0 -1 36 -12 20 -30 39 -39
41 -10 3 -15 11 -12 19 4 10 -3 14 -21 14 l-27 0 18 -31z"/>
<path d="M10396 3408 c3 -4 9 -8 15 -8 5 0 9 4 9 8 0 5 -7 9 -15 9 -8 0 -12
-4 -9 -9z"/>
<path d="M7255 3050 c3 -5 10 -10 16 -10 5 0 9 5 9 10 0 6 -7 10 -16 10 -8 0
-12 -4 -9 -10z"/>
<path d="M7208 2863 c7 -3 16 -2 19 1 4 3 -2 6 -13 5 -11 0 -14 -3 -6 -6z"/>
<path d="M6126 3046 c21 -15 30 -14 19 3 -3 6 -14 11 -23 11 -13 0 -13 -2 4
-14z"/>
<path d="M6310 2962 c0 -12 19 -26 26 -19 2 2 -2 10 -11 17 -9 8 -15 8 -15 2z"/>
<path d="M6356 2955 c-3 -8 -1 -15 4 -15 6 0 10 7 10 15 0 8 -2 15 -4 15 -2 0
-6 -7 -10 -15z"/>
<path d="M6306 2922 c-9 -14 40 -35 63 -27 27 8 27 25 1 25 -11 0 -20 -5 -20
-11 0 -6 -7 -3 -16 5 -18 18 -21 19 -28 8z"/>
<path d="M9722 2598 c-17 -17 -15 -45 3 -52 10 -3 17 3 21 20 8 30 -7 49 -24
32z"/>
<path d="M190 2001 c0 -6 4 -13 10 -16 6 -3 7 1 4 9 -7 18 -14 21 -14 7z"/>
<path d="M9590 2285 c-14 -17 -5 -48 13 -43 14 5 23 58 9 58 -5 0 -15 -7 -22
-15z"/>
<path d="M3211 6523 c-30 -12 -51 -44 -51 -77 0 -28 4 -35 23 -38 71 -10 104
19 84 77 -14 40 -27 49 -56 38z"/>
<path d="M3505 6458 c-11 -6 -25 -17 -32 -25 -8 -10 -31 -15 -75 -15 -47 -1
-67 -5 -80 -18 -40 -42 21 -62 225 -74 96 -6 110 -11 146 -50 31 -33 41 -33
41 -1 0 67 -45 119 -146 170 -56 28 -53 28 -79 13z"/>
<path d="M3407 6084 c-4 -4 -7 -17 -7 -30 0 -15 -12 -30 -35 -44 -19 -12 -35
-30 -35 -40 0 -18 54 -50 85 -50 40 0 52 -17 48 -67 -11 -116 -10 -128 10
-133 18 -5 18 -7 -7 -37 -36 -42 -34 -77 4 -93 16 -7 35 -18 41 -26 6 -8 29
-14 51 -14 73 0 128 92 75 124 -15 9 -22 7 -37 -12 -13 -15 -21 -19 -26 -11
-4 7 0 17 9 24 12 8 14 22 10 52 -5 39 -8 42 -44 48 -35 6 -39 10 -39 37 0 35
13 63 47 100 21 22 24 33 19 62 -8 44 -65 106 -97 106 -13 0 -33 3 -44 6 -11
3 -24 2 -28 -2z"/>
<path d="M3726 6047 c-66 -41 -76 -63 -54 -112 10 -22 17 -25 60 -25 43 0 50
3 58 26 7 18 6 33 -5 55 -9 16 -14 37 -13 46 4 21 -20 26 -46 10z"/>
<path d="M10806 5705 c10 -8 30 -14 44 -14 24 1 24 1 -5 14 -41 19 -65 19 -39
0z"/>
<path d="M10778 5693 c7 -3 16 -2 19 1 4 3 -2 6 -13 5 -11 0 -14 -3 -6 -6z"/>
<path d="M11255 5240 c9 -16 18 -30 21 -30 2 0 -2 14 -11 30 -9 17 -18 30 -21
30 -2 0 2 -13 11 -30z"/>
<path d="M11947 5243 c-2 -5 -3 -37 -2 -73 2 -36 -2 -81 -8 -100 -7 -25 -7
-35 2 -38 6 -2 9 -8 6 -13 -3 -4 1 -19 9 -31 8 -13 15 -32 14 -43 0 -11 7 -47
15 -80 16 -60 16 -59 15 144 0 172 -3 206 -16 222 -17 20 -28 24 -35 12z"/>
<path d="M11972 4800 c0 -14 2 -19 5 -12 2 6 2 18 0 25 -3 6 -5 1 -5 -13z"/>
<path d="M162 4750 c0 -14 2 -19 5 -12 2 6 2 18 0 25 -3 6 -5 1 -5 -13z"/>
<path d="M85 4720 c-3 -5 1 -10 10 -10 9 0 13 5 10 10 -3 6 -8 10 -10 10 -2 0
-7 -4 -10 -10z"/>
<path d="M11216 4221 c-12 -19 -19 -251 -9 -251 6 0 14 8 18 17 6 16 5 243 -1
243 -2 0 -5 -4 -8 -9z"/>
<path d="M11950 4187 c0 -7 8 -22 19 -33 13 -15 16 -25 9 -37 -5 -11 -5 -24 2
-37 9 -18 8 -20 -15 -20 -15 0 -25 -6 -25 -14 0 -9 7 -12 19 -9 11 3 21 -2 24
-11 5 -11 1 -16 -13 -16 -13 0 -18 -6 -17 -20 1 -13 8 -20 22 -20 19 0 20 6
21 113 1 61 -1 104 -3 95 -6 -24 -23 -23 -23 2 0 11 -4 20 -10 20 -5 0 -10 -6
-10 -13z"/>
<path d="M11981 3951 c-10 -6 -10 -10 -1 -16 13 -8 24 -1 19 14 -3 6 -10 7
-18 2z"/>
<path d="M11953 3896 c0 -8 11 -16 24 -19 17 -3 23 0 23 14 0 13 -7 19 -23 19
-14 0 -24 -6 -24 -14z"/>
<path d="M11975 3840 c-3 -5 -3 -14 0 -20 3 -5 1 -10 -4 -10 -6 0 -11 -7 -11
-15 0 -8 5 -15 10 -15 13 0 13 -49 -1 -90 -9 -24 -9 -41 -1 -64 22 -62 24
-102 8 -118 -14 -14 -14 -17 0 -28 8 -7 17 -10 21 -6 3 3 1 6 -5 6 -7 0 -12 5
-12 11 0 5 4 8 10 4 5 -3 9 63 8 175 0 164 -5 199 -23 170z"/>
<path d="M11641 3758 c0 -20 4 -40 10 -43 15 -10 24 2 11 17 -5 7 -12 24 -15
38 -3 19 -5 16 -6 -12z"/>
<path d="M11630 2805 c0 -8 -4 -15 -9 -15 -5 0 -7 -9 -4 -20 3 -12 8 -18 11
-15 7 7 13 65 7 65 -3 0 -5 -7 -5 -15z"/>
<path d="M11607 2408 c-5 -53 6 -87 19 -54 6 15 7 15 20 -1 7 -10 14 -13 14
-6 0 6 -10 19 -22 29 -16 11 -17 15 -5 11 18 -7 24 8 7 18 -5 3 -10 17 -10 31
0 46 -17 24 -23 -28z"/>
<path d="M6440 857 c-8 -12 -18 -29 -22 -37 -6 -13 -7 -13 -8 0 -2 16 -29 -75
-30 -97 0 -7 5 -13 10 -13 6 0 10 7 10 17 0 9 14 45 31 81 31 66 35 89 9 49z"/>
<path d="M4260 739 c0 -5 5 -7 10 -4 6 3 10 8 10 11 0 2 -4 4 -10 4 -5 0 -10
-5 -10 -11z"/>
<path d="M4726 710 c-11 -24 -12 -30 -1 -30 7 0 18 7 25 15 7 8 18 15 25 15 7
0 18 7 25 15 11 13 7 15 -23 15 -29 0 -38 -5 -51 -30z"/>
<path d="M4836 731 c-4 -6 -5 -11 -1 -11 3 0 -4 -18 -14 -39 -21 -41 -46 -68
-148 -164 -34 -32 -72 -70 -86 -86 -13 -16 -34 -34 -46 -41 -13 -6 -20 -14
-18 -17 3 -2 -10 -21 -29 -41 -19 -20 -37 -44 -40 -54 -3 -10 -10 -18 -15 -18
-5 0 -9 -6 -9 -14 0 -8 -3 -16 -7 -18 -11 -4 -63 -75 -63 -85 0 -4 -21 -35
-45 -67 -25 -33 -45 -63 -45 -68 0 -4 76 -8 170 -8 l169 0 12 43 c55 209 131
382 224 511 68 96 109 165 101 173 -12 12 -103 15 -110 4z"/>
<path d="M27 69 c7 -7 15 -10 18 -7 3 3 -2 9 -12 12 -14 6 -15 5 -6 -5z"/>
</g>
</svg>
